<?xml version="1.0" standalone="yes"?>
<svg xmlns="http://www.w3.org/2000/svg" width="2048" height="2048">
<path style="fill:#010101; stroke:none;" d="M0 0L0 2048L2048 2048L2048 0L0 0z"/>
<path style="fill:#fffefd; stroke:none;" d="M970 278C948.399 278 926.579 277.094 905 278.039C895.746 278.445 885.873 279.425 885 290C874.856 290 859.573 287.943 850.147 292.032C845.215 294.173 846.096 301.131 839.996 302.682C828.21 305.679 814.121 302.016 802 303.17C798.096 303.541 792.537 303.334 789.143 305.434C785.407 307.746 784.187 311.665 779.714 313.286C772.515 315.893 764.161 314.54 757.058 317.589C753.296 319.203 752.633 323.732 748.942 325.486C743.119 328.254 735.835 327.418 730.147 331.009C726.9 333.059 726.952 337.583 722.941 338.682C715.922 340.605 708.186 338.282 701 340.531C694.229 342.651 693.659 347.738 688.687 350.972C685.641 352.953 681.475 351.406 678.174 352.728C673.492 354.602 670.675 359.906 666.714 362.852C659.319 368.352 652.113 362.524 652 375C645.315 375.018 634.983 374.57 629.299 378.483C626.633 380.318 625.416 383.598 622.943 385.698C620.159 388.063 617.261 388.399 616 392C609.12 392.077 607.077 394.12 607 401C602.259 401 595.927 400.014 592.6 404.228C590.485 406.906 591.032 410.71 587.772 412.566C581.361 416.217 572.437 414.794 571 424C561.586 425.788 555.008 426.666 555 437C551.391 437.457 545.943 437.35 543.573 440.573C541.689 443.133 542.499 447.048 539.682 448.976C537.451 450.503 534.467 450.079 532.224 451.742C528.79 454.288 527.846 458.758 523.982 461.016C519.461 463.658 514.118 464.766 510.174 468.478C505.924 472.478 506.804 478.252 503.772 482.852C501.574 486.185 498.3 485.044 495.433 487.027C492.878 488.794 492.734 492.583 490.686 494.852C488.122 497.693 484.459 497.826 481.289 499.598C471.757 504.928 467.09 513.098 467 524C459.439 524.068 457.162 526.424 457 534C448.09 534.71 437.757 543.392 433.318 551.108C429.989 556.895 433.018 563.676 425 566C421.291 578.975 407.109 582.962 406 597L397 599L383.88 624L380.566 640.856L359.027 661.133L355.972 677.981L347.228 688.019L343.973 709.741L334.974 720.286L332.397 730.397L323.027 736.059L321 758C305.424 762.375 308 794.168 308 807C294.846 810.695 296 831.027 296 842C276.169 847.632 289.431 881.345 284.397 895C282.353 900.544 275.797 903.139 274.318 909C269.671 927.419 273 950.101 273 969L273 1087C273 1104.36 271.252 1122.77 273.285 1140C274.308 1148.67 274.203 1156.65 285 1157C285 1169.07 278.983 1206.06 296 1207C296 1217.67 293.259 1243.89 308 1245C308 1258.38 304.234 1290.1 321 1293C321 1304.27 320.157 1323.07 334 1327C334 1335.47 332.478 1342.88 343 1343C344.265 1353.38 344.43 1377.59 357 1378C357.007 1388.63 356.968 1401.69 370 1403C370.035 1415.3 376.982 1410.79 381.972 1418.32C387.967 1427.36 378.628 1438.65 395 1440C395.004 1445.39 394.679 1455.75 398.317 1460.11C400.335 1462.52 404.122 1461.61 405.977 1464.32C410.711 1471.22 408.569 1475.91 419 1476C420.227 1485.65 425.583 1485.79 429.836 1493.1C432.723 1498.07 431.363 1504.1 435.305 1508.77C439.93 1514.25 445.762 1512.12 448 1521C455.172 1522.81 463.33 1532.95 466.988 1539.26C468.576 1542 467.911 1545.27 470.318 1547.68C472.88 1550.24 476.96 1549.17 479.397 1551.6C481.465 1553.67 480.492 1557.06 482.603 1559.1C485.079 1561.49 488.967 1561.16 491.701 1563.01C495.451 1565.55 500.144 1570.6 503.682 1573.72C506.816 1576.49 504.939 1580.55 507.028 1583.68C509.165 1586.88 513.799 1585.41 516.567 1587.74C519.023 1589.81 519.037 1593.43 521.314 1595.68C525.871 1600.18 535.153 1599 541 1599C541.018 1605.69 541.751 1615.98 548.143 1619.99C552.293 1622.59 557.91 1622.77 561.945 1625.6C570.347 1631.49 569.475 1635 581 1635L581 1644C594.776 1647.43 601.297 1660.96 616 1661C616.171 1675.45 629.254 1668.85 637.736 1674.03C640.758 1675.87 640.942 1679.97 643.688 1681.97C646.044 1683.69 649.444 1682.99 652 1684.6C661.895 1690.85 665.42 1696.97 678 1697C678.055 1712.5 702.364 1709.9 714 1710C714.824 1720.93 728.216 1722 737 1722C737.399 1734.29 753.278 1734.23 763 1735C764.855 1747.76 782.579 1745 792 1745C797.326 1745 805.8 1743.41 810.657 1745.86C816.227 1748.67 818.057 1755.41 825.089 1757.43C835.081 1760.31 848.623 1758 859 1758C861.543 1777.57 896.245 1771 911 1771C911.694 1780.55 918.41 1779.65 926 1781.22C941.242 1784.38 957.414 1783 973 1783L1086 1783C1101.28 1783 1122.57 1786.7 1136.78 1780.11C1140.38 1778.43 1141.4 1773.9 1145.02 1772.03C1157.82 1765.38 1187.94 1780.77 1189 1758C1202.42 1758 1236.93 1764.44 1237 1745C1249.53 1745 1268.22 1748.49 1279.98 1743.97C1284.51 1742.22 1284.73 1736.8 1289.11 1735.23C1299.11 1731.64 1311.37 1736.3 1312 1722C1317.98 1722 1327.58 1723.74 1332.72 1720.06C1336.41 1717.43 1335.45 1711.9 1340.11 1710.23C1350.86 1706.37 1371.44 1714.14 1372 1697L1395 1693C1395.3 1680.49 1408.95 1686.61 1409 1673C1418.74 1673 1427.19 1672.58 1435.91 1667.76C1442.86 1663.92 1444.95 1657.29 1454 1657C1456.73 1646.15 1469.62 1646.75 1470 1635L1490 1631C1492.69 1621.4 1508.6 1610.33 1518 1608C1518.28 1596.61 1530.98 1598.85 1532 1586C1545.61 1586 1549.01 1574.71 1556.6 1565.28C1559.13 1562.14 1563.79 1562.42 1566.4 1559.43C1568.36 1557.18 1567.49 1553.71 1569.6 1551.6C1571.99 1549.22 1575.83 1550.76 1578.41 1548.82C1584.87 1543.96 1592.97 1533.04 1593 1525C1604.3 1523.56 1599.41 1518.44 1606.3 1512.6C1616.6 1503.87 1630.83 1490.91 1633 1476C1645.67 1475.69 1638.97 1465.78 1643.03 1458.02C1647.31 1449.82 1654.9 1451.41 1655 1440C1664.67 1439.91 1665 1435.62 1665 1427C1680.48 1426.67 1678 1412.7 1678 1401C1688.53 1398.04 1691 1387.48 1691 1378C1702.52 1377.96 1699.53 1371.97 1704.16 1364.3C1706.49 1360.44 1710.21 1358.48 1712.29 1354C1717.02 1343.76 1712.13 1330.35 1716.6 1320.15C1718.22 1316.47 1722.82 1317.65 1725.06 1314.68C1729.1 1309.34 1725.07 1301.85 1727.6 1296.23C1729.35 1292.36 1734.19 1293.92 1736.72 1291.11C1741.12 1286.21 1740 1274.15 1740 1268C1748.33 1267.37 1750.56 1259.36 1751.7 1252C1754.08 1236.58 1748.09 1216.69 1753.6 1202C1755.6 1196.68 1761.79 1195.77 1763.39 1190C1766.96 1177.06 1761.89 1162.68 1765.32 1150.05C1766.78 1144.67 1773.9 1145.84 1774.85 1139.98C1777.69 1122.51 1776 1103.66 1776 1086L1776 989C1776 968.388 1778.13 946.465 1775.71 926C1774.83 918.489 1774.1 908.42 1765 907C1765 894.32 1766.77 880.247 1763.18 868C1761.2 861.269 1761.42 855.635 1753 855C1753 842.276 1752 829.706 1752 817C1752 811.21 1752.84 802.28 1749.97 797.059C1747.85 793.198 1743.9 793.046 1740 793C1740 782.272 1742.05 758.489 1727 758C1727 753.904 1727.79 748.819 1726.01 745.015C1723.51 739.67 1717.89 736.9 1716.11 731C1713.41 722.055 1715.63 712.051 1713.14 703.001C1711.81 698.173 1708.74 696.358 1704 696C1703.31 687.279 1700.69 680.398 1691 679C1691 667.872 1692.04 657.301 1678 657C1678 651.025 1679.76 641.644 1676.68 636.304C1674.15 631.906 1668.41 630.682 1666.03 625.995C1663.89 621.8 1665.76 616.657 1663.23 612.483C1658.96 605.426 1651.27 610.091 1651 599C1634.47 597.753 1648.29 573.068 1629 573C1627.9 564.288 1626.47 560.414 1617 560C1616.18 540.985 1591.55 532.487 1587 515L1577 511C1576.79 504.682 1574.32 502.205 1568 502L1564 489C1550.83 488.007 1544.86 466.422 1532 466C1528.07 453.853 1519 453.381 1510.06 446.096C1503.12 440.439 1498.08 433.778 1491.5 427.97C1485.88 423.011 1481.76 423.431 1480 415L1458 413C1457.25 403.559 1454.47 401.078 1445 401C1444.77 390.087 1438.68 388.764 1429 388C1425.31 375.015 1411.42 378.417 1402.06 374.411C1398.18 372.751 1398.02 368.129 1394.66 366.028C1392.07 364.413 1388.74 365.419 1386.06 363.973C1382.97 362.307 1382.15 358.731 1379.43 356.714C1373.12 352.033 1366.47 352 1359 352C1358.46 335.449 1335.69 339 1324 339C1323.94 322.186 1310.02 331.301 1300.31 324.98C1297.51 323.154 1297.17 319.54 1293.94 317.924C1288.16 315.032 1280.63 316.685 1275.13 313.682C1270.15 310.962 1267.92 306.319 1261.91 304.704C1246.65 300.602 1228.67 303 1213 303C1209.27 285.127 1179.44 290 1165 290C1162.25 279.092 1152.75 278.466 1143 278.039C1121.42 277.094 1099.6 278 1078 278L1075 269C1048.38 268.927 1021.98 264.211 995 266.054C985.937 266.673 970.366 266.73 970 278z"/>
<path style="fill:#ffc394; stroke:none;" d="M611 720.424C594.643 722.547 579.593 723.588 571.653 741.004C568.931 746.975 570 754.621 570 761L570 802L570 946L570 1082C570 1107.48 567.56 1134.88 572.312 1160C573.666 1167.16 578.227 1173.02 579.957 1180C582.224 1189.15 581.104 1198.92 583.939 1208C585.413 1212.72 589.337 1215.65 591.428 1220C597.462 1232.56 601.044 1246.19 608.969 1257.96C622.937 1278.71 643.387 1296.98 664 1311.2C668.924 1314.59 675.133 1314.89 680 1318.4C700.439 1333.18 724.593 1336.66 749 1340.3C773.466 1343.94 795.736 1350.64 821 1348.91C838.617 1347.7 854.789 1342.86 872 1340.3C882.849 1338.68 895.795 1339.89 906 1335.47C935.218 1322.81 963.857 1309.47 987.61 1287.43C1002.37 1273.74 1016.06 1253.78 1024.95 1235.96C1027.43 1230.98 1027.29 1225.05 1029.65 1220.04C1031.91 1215.25 1036.12 1212.29 1037.78 1207C1040.58 1198.06 1039.34 1188.13 1041.67 1179C1043.54 1171.65 1048.01 1165.63 1049.38 1158C1054.14 1131.58 1052 1101.82 1052 1075L1052 935L1052 777C1052 766.383 1054.18 750.808 1049.58 741.015C1047.72 737.056 1044.12 735.124 1041.41 731.897C1038.29 728.181 1036.92 724.831 1032 723.109C1018.67 718.437 989.326 717.025 978.185 727.275C971.56 733.369 967.714 747.419 965.684 756C962.56 769.204 965 785.456 965 799L965 885C965 959.575 969.21 1035.65 964.089 1110C961.394 1149.14 959.647 1189.58 933.49 1220.79C922.41 1234.01 908.913 1242.38 894.039 1250.14C890.001 1252.24 887.338 1256.13 882.999 1257.74C873.801 1261.13 863.216 1259.82 854 1263.48C831.958 1272.21 808.554 1272.11 785 1269.83C776.732 1269.03 770.774 1264.67 763 1262.63C754.678 1260.45 744.953 1261 737.004 1257.85C732.684 1256.14 730.006 1252.13 725.985 1249.92C721.972 1247.7 716.9 1247.73 713.13 1245.15C699.594 1235.86 684.484 1219.05 676.278 1204.91C673.092 1199.42 673.235 1192.66 670.586 1187C668.43 1182.39 664.442 1178.94 662.942 1174C659.129 1161.44 659.623 1146.14 658.905 1133.09C657.614 1109.62 656 1086.58 656 1063L656 876L656 795C656 782.71 658.207 768.016 655.61 756C650.518 732.446 636.695 717.09 611 720.424z"/>
<path style="fill:#ff9e5d; stroke:none;" d="M604 725.428C574.788 729.613 575 755.278 575 779L575 942C575 1016.6 568.303 1094.56 582.388 1168C590.476 1210.17 605.179 1252.87 637.329 1283.48C662.579 1307.52 695.237 1321.78 728 1332.25C742.709 1336.96 758.802 1336.72 774 1338.17C786.076 1339.32 798.857 1341.85 811 1341.41C837.328 1340.44 871.199 1340.69 896 1331.25C927.972 1319.09 958.156 1307.49 983.791 1283.62C1015.48 1254.11 1030.22 1211.91 1038.4 1171C1053.56 1095.21 1047 1015.02 1047 938L1047 780C1047 762.655 1048.73 734.919 1028 727.483C1011.81 721.677 983.711 722.742 975.955 741C969.698 755.729 973 776.342 973 792L973 897L973 984C973 1040.63 978.067 1099.55 965.665 1155C961.51 1173.58 958.734 1191.29 948.776 1208C935.532 1230.22 914.593 1245.52 893 1258.54C881.659 1265.37 861.999 1270.22 849 1272.8C826.718 1277.23 800.537 1276.01 778 1273.83C766.867 1272.75 757.571 1267.82 747 1264.92C736.179 1261.95 728.806 1258.43 719 1253.12C637.065 1208.76 648 1097.31 648 1018L648 958L648 877L648 782C648 769.042 650.965 750.78 644.442 739.004C636.744 725.105 618.104 723.408 604 725.428z"/>
<path style="fill:#ff6905; stroke:none;" d="M1006 728.711C997.879 728.858 982.309 734.574 979.513 743.055C975.042 756.618 978 774.88 978 789L978 883L978 1050C978 1080.82 982.3 1115.76 975.711 1146C974.427 1151.89 970.644 1156.4 968.789 1162C965.915 1170.67 967.778 1180.61 964.03 1189C950.435 1219.42 927.186 1246.17 897.985 1262.58C892.348 1265.75 885.901 1265.47 880 1267.71C872.867 1270.43 867.818 1274.97 860 1276.38C838.008 1280.35 814.272 1278 792 1278C752.824 1278 711.933 1263.87 685.174 1234C676.191 1223.97 670.741 1212.57 664.725 1201C662.339 1196.41 658.337 1193 656.61 1188C654.173 1180.95 654.749 1173.21 653.112 1166C651.488 1158.85 646.568 1153.23 645.325 1146C640.487 1117.85 643 1087.48 643 1059L643 908L643 798C643 781.699 646.502 760.745 642.137 745.004C637.908 729.751 611.952 725.194 599.089 730.402C575.964 739.766 582 770.747 582 790L582 965C582 1021.2 579.318 1078.09 584.831 1134C586.515 1151.08 585.408 1169.22 589.123 1186C590.448 1191.98 594.865 1196.29 596.779 1202C598.835 1208.14 598.78 1215.02 601.147 1221C602.985 1225.64 607.231 1228.59 609.442 1233C611.48 1237.07 611.453 1241.94 613.688 1245.87C615.544 1249.14 619.118 1251.02 621.367 1254.02C627.585 1262.3 633.258 1272.24 640.529 1279.61C647.778 1286.95 658.564 1292.71 666.985 1298.69C670.281 1301.03 672.41 1304.82 676.039 1306.68C680.716 1309.09 686.332 1308.47 690.996 1311.23C694.323 1313.2 696.567 1316.69 700.089 1318.3C707.773 1321.8 717.079 1320.72 725 1323.36C736.945 1327.34 744.904 1332.01 758 1332.91C795.812 1335.5 836.325 1336.32 874.001 1331.84C882.547 1330.83 888.113 1326.04 896 1323.41C903.71 1320.83 912.408 1321.66 919.961 1318.74C923.922 1317.2 926.324 1313.45 930.004 1311.42C934.995 1308.65 940.986 1309.02 945.896 1306.43C954.311 1301.99 962.441 1292.87 970.015 1286.82C973.425 1284.1 978.255 1282.55 981.186 1279.36C989.897 1269.88 1001.77 1256.28 1007.84 1244.99C1010.02 1240.93 1010.02 1236.09 1012.37 1232C1014.44 1228.39 1017.9 1225.79 1019.63 1221.96C1022.12 1216.47 1022.28 1209.76 1024.35 1204C1026.24 1198.72 1030.23 1194.47 1031.53 1189C1035.7 1171.51 1034.18 1152.76 1036.29 1135C1045.04 1061.05 1041 985.463 1041 911C1041 863.592 1043.51 815.419 1040.91 768.089C1039.65 745.237 1030.86 728.26 1006 728.711z"/>
<path style="fill:#ffc394; stroke:none;" d="M1302 883.425C1292.25 884.753 1283.52 889.315 1274 890.714C1262.24 892.443 1249.45 891.208 1238 894.494C1230.9 896.532 1227.42 902.898 1220 904.651C1211.48 906.662 1207.3 910.678 1200 914.914C1182.17 925.26 1166.85 938.962 1157.57 958.004C1154.86 963.562 1155.33 970.189 1153.4 976C1148.86 989.695 1144.99 998.965 1146.09 1014C1146.72 1022.59 1151.53 1029.8 1153.48 1038C1155.32 1045.75 1154.21 1054.55 1157.15 1062C1159.01 1066.72 1163.5 1068.94 1166.16 1073.04C1173.98 1085.08 1181.34 1094.59 1193.09 1103.49C1203.83 1111.62 1216.82 1115.86 1229 1121.11C1234.31 1123.39 1238.3 1127.47 1244 1129.08C1252.82 1131.57 1262.13 1130.84 1271 1133.04C1278.07 1134.8 1283.71 1139.52 1291 1140.91C1304.05 1143.38 1318.31 1141.88 1331 1145.49C1336.1 1146.95 1340.03 1150.67 1345 1152.45C1353.93 1155.65 1365.87 1153.29 1373.96 1158.09C1377.36 1160.11 1379.49 1163.58 1383.01 1165.47C1387.15 1167.68 1393 1167.69 1396.58 1170.73C1413.74 1185.28 1416.15 1209.89 1411.48 1231C1407.78 1247.75 1388.33 1256 1375 1262.4C1370.42 1264.6 1366.91 1268.66 1362 1270.2C1344.42 1275.69 1321.11 1272.83 1303 1272.04C1293.9 1271.64 1283.83 1272.97 1275 1270.2C1270.27 1268.71 1267.31 1264.59 1262.99 1262.38C1258.64 1260.15 1253.12 1260.31 1249.21 1257.3C1240.88 1250.87 1230.27 1239.25 1225.3 1229.96C1219.66 1219.4 1217.42 1209.96 1209.2 1200.33C1199.17 1188.57 1176.3 1181.04 1162.09 1190C1151.46 1196.71 1137.26 1206.61 1134.52 1220C1132.74 1228.73 1138.73 1233.86 1141.6 1241.04C1148.92 1259.38 1155.15 1277.89 1169.99 1291.91C1181.95 1303.21 1194.54 1315.8 1209.01 1323.56C1214.59 1326.55 1221.24 1326.13 1227 1328.48C1233.82 1331.27 1238.56 1336.4 1246 1338.11C1258.23 1340.93 1271.54 1339.2 1284 1341.29C1304.75 1344.76 1321.52 1349.46 1343 1346.71C1351.91 1345.58 1360.2 1341.89 1369 1340.32C1377.95 1338.72 1387.2 1339.54 1396 1337.07C1401.21 1335.61 1404.34 1331.66 1409 1329.3C1413.69 1326.93 1419.23 1327.36 1424 1325.2C1427.87 1323.44 1429.89 1320.03 1433.17 1317.56C1437.32 1314.46 1442.8 1313.9 1447 1310.61C1457.84 1302.12 1469.4 1290.78 1476.66 1279C1478.98 1275.24 1479.38 1270.71 1481.72 1267C1492.49 1249.95 1493 1233.13 1493 1213C1493 1197.02 1494.37 1175.09 1488.74 1160C1485.37 1150.98 1476.77 1141.8 1470.65 1134.62C1465.42 1128.51 1463.29 1121.76 1456.71 1116.25C1445.96 1107.24 1434.41 1103.78 1422.09 1098.15C1417.93 1096.24 1415.44 1092.2 1411 1090.61C1403.69 1088 1395.48 1088.37 1388 1086.14C1381.63 1084.24 1376.58 1079.86 1370 1078.45C1358.8 1076.06 1347.13 1076.93 1336 1074.32C1329.57 1072.81 1324.41 1068.5 1318 1066.9C1307.5 1064.28 1296.55 1064.71 1286 1062.54C1280.27 1061.36 1276.37 1057.1 1271 1055.09C1264.98 1052.85 1257.76 1052.48 1252.1 1049.43C1238.51 1042.1 1229.67 1025.72 1230.38 1010C1232.66 958.917 1291.19 951.38 1332 957.421C1341.27 958.793 1354.87 957.929 1362.91 963.147C1377.87 972.862 1387.26 984.651 1396.99 999.17C1401.82 1006.37 1402.86 1013.58 1411 1018.52C1424.18 1026.51 1449.95 1027.76 1462.9 1018.3C1465.5 1016.39 1467.02 1013.47 1469.21 1011.17C1490.51 988.787 1469.14 966.221 1456.78 945C1448.65 931.036 1429.47 914.698 1415 907.303C1410.01 904.752 1404.12 905.124 1399 903.11C1393.09 900.784 1389.45 895.857 1383 894.156C1372.59 891.409 1361.51 892.111 1351 889.88C1334.26 886.325 1319.58 881.032 1302 883.425z"/>
<path style="fill:#ff9e5d; stroke:none;" d="M1310 890.468C1289.83 892.473 1265.44 892.661 1246 897.927C1239.07 899.806 1233.71 904.878 1227 907.301C1199.49 917.235 1173.26 936.53 1160.97 964C1151.07 986.119 1154.91 1011.17 1157.71 1034C1158.72 1042.23 1158.02 1051.28 1161.92 1058.91C1170.16 1075.02 1183.5 1089.44 1198.09 1100.01C1256.08 1142.04 1336.31 1129.34 1396.99 1165.73C1420.74 1179.97 1422.3 1212.53 1414.64 1236C1409.4 1252.06 1394.47 1259.08 1381 1266.51C1356.35 1280.13 1325.49 1279.84 1298 1277.17C1279.01 1275.33 1261.61 1272.78 1246 1260.61C1237.57 1254.03 1227.61 1244.43 1222.42 1235C1216.51 1224.27 1213.57 1209.57 1202.91 1201.97C1185.47 1189.53 1169.48 1191.58 1152.02 1202.84C1141.94 1209.34 1142.05 1224.82 1144.73 1235C1151.13 1259.31 1165.38 1279.54 1183.17 1296.82C1198.72 1311.92 1215.42 1318.4 1235 1326.07C1240.61 1328.27 1245.02 1332.55 1251 1333.88C1264.01 1336.76 1277.79 1335.89 1291 1337.17C1321.3 1340.1 1350.83 1339.67 1381 1334.56C1389.5 1333.13 1396.14 1328.92 1404 1325.83C1431.46 1315.04 1456.4 1299.89 1473.03 1274C1500.29 1231.56 1494.39 1164.14 1459.67 1127.58C1438.08 1104.83 1408.16 1096.81 1379 1089.12C1345.5 1080.28 1311.78 1073.38 1278 1065.35C1253.18 1059.44 1220.14 1038.4 1222.32 1009C1226.59 951.576 1303.36 939.174 1348 953.67C1355.22 956.014 1363.53 956.817 1370 960.969C1375.85 964.725 1384.23 970.414 1388.36 976.015C1397.38 988.233 1402.16 1003.81 1414 1013.79C1424.29 1022.46 1445.82 1021.19 1457 1014.78C1487.06 997.509 1464.59 962.3 1448.67 943C1438.94 931.207 1423.52 918.346 1410 911.136C1404.52 908.212 1397.75 907.957 1392 905.536C1385.77 902.909 1380.72 898.649 1374 897.04C1364.89 894.86 1355.24 895.808 1346 894.714C1334.51 893.354 1321.56 889.319 1310 890.468z"/>
<path style="fill:#ff6905; stroke:none;" d="M1309 897.439C1290.17 899.45 1269.41 896.531 1251 901.139C1242.68 903.221 1235.84 909.557 1227 911.809C1221.2 913.286 1218.07 917.826 1213 920.583C1208.95 922.783 1203.99 922.649 1200.1 925.089C1185.03 934.561 1170.85 953.78 1163.88 970C1159.67 979.794 1161.24 992.559 1160.99 1003C1160.65 1016.97 1159.43 1034.35 1162.68 1048C1164.07 1053.8 1168.52 1057.13 1171.53 1062C1176.77 1070.48 1180.57 1080.58 1188.39 1087.3C1196.58 1094.33 1207.01 1097.35 1216 1102.99C1219.67 1105.31 1221.99 1109.59 1226.04 1111.26C1232.52 1113.93 1240.33 1113.08 1247 1115.56C1252.36 1117.55 1256.38 1122.11 1262 1123.47C1273.28 1126.19 1285.55 1125.26 1297 1127.46C1305.11 1129.02 1311.89 1133.98 1320 1135.54C1330.91 1137.64 1342.24 1136.83 1353 1139.92C1358.88 1141.61 1363.13 1146.18 1369 1147.96C1374.26 1149.55 1379.98 1149.51 1385 1151.92C1403.83 1160.97 1414.01 1175.62 1421.87 1194C1425.3 1202.01 1429.29 1210.03 1426.3 1219C1420.92 1235.16 1414.36 1251.33 1400.81 1262.36C1385.49 1274.83 1367.75 1277.57 1349 1280.92C1341.11 1282.34 1334.17 1286.34 1326 1286.91C1312.57 1287.85 1301.82 1284.3 1289 1281.43C1270.89 1277.36 1257.47 1275.25 1242.04 1264.37C1233.73 1258.51 1223.33 1248.08 1218.68 1239C1213.71 1229.27 1209.94 1214.21 1201.57 1206.7C1190.59 1196.86 1165.9 1199.89 1154.14 1206.43C1147.22 1210.28 1148.51 1225.37 1149.17 1232C1150.19 1242.21 1155.19 1245.57 1159.44 1254C1161.79 1258.65 1161.38 1264.48 1163.99 1268.91C1169.31 1277.94 1179.86 1287.27 1187.53 1294.36C1191.4 1297.94 1196.92 1304.18 1201.21 1306.84C1204.99 1309.18 1210.03 1309.16 1214 1311.28C1217.98 1313.4 1220.74 1317.18 1225 1318.85C1230.05 1320.84 1235.84 1320.45 1241 1322.25C1247.23 1324.42 1251.32 1329.6 1258 1330.9C1273.23 1333.88 1289.54 1332.2 1305 1333.08C1327.73 1334.36 1352.43 1335.2 1375 1331.56C1382.56 1330.34 1387.88 1325.09 1395 1322.75C1400.85 1320.83 1407.28 1321.16 1413 1318.86C1417.65 1316.98 1420.65 1312.79 1425 1310.42C1442.19 1301.05 1460.67 1286.18 1470.99 1268.82C1473.67 1264.31 1473.56 1257.9 1475.61 1253C1478.3 1246.56 1482.83 1242.09 1484.33 1235C1492.36 1197.15 1476.38 1145.72 1446.79 1121.51C1435.28 1112.1 1421.22 1109.63 1408 1104.24C1403.28 1102.31 1399.9 1098.02 1395 1096.57C1385.3 1093.69 1374.75 1094.83 1365 1092.08C1358.61 1090.27 1353.53 1085.46 1347 1084.17C1335.46 1081.91 1323.51 1082.83 1312 1080.33C1304.1 1078.62 1297.81 1073.64 1290 1071.75C1281.83 1069.77 1272.96 1070.71 1265 1067.74C1260.55 1066.07 1257.99 1062.05 1253.91 1059.84C1250.13 1057.79 1245.66 1057.6 1242.04 1055.18C1224.41 1043.42 1214.82 1021.65 1217.29 1001C1219.31 984.062 1233.8 964.51 1249 956.442C1254.28 953.64 1260.54 954.312 1266 952.122C1270.01 950.513 1272.86 947.034 1277 945.638C1284.89 942.974 1293.82 943.47 1302 942.911C1335.17 940.638 1362.95 948.696 1388.81 968.849C1403.5 980.289 1404.08 1004.86 1421.1 1013.57C1425.7 1015.92 1432.02 1015 1437 1015C1441.05 1015 1445.24 1015.21 1449 1013.43C1481.61 997.918 1456.41 959.231 1440.29 941.964C1430.31 931.287 1416.61 919.202 1403 913.479C1397.53 911.178 1391.48 911.531 1386 909.437C1380.75 907.432 1377.39 902.493 1372 900.804C1361.46 897.499 1348.89 899.438 1338 898.961C1328.58 898.548 1318.39 896.436 1309 897.439z"/>
</svg>
