<?xml version="1.0" standalone="yes"?>
<svg xmlns="http://www.w3.org/2000/svg" width="2048" height="2048">
<path style="fill:#010101; stroke:none;" d="M0 0L0 2048L2048 2048L2048 0L0 0z"/>
<path style="fill:#fffdfc; stroke:none;" d="M971 277C943.314 277 913.752 274.36 887 281L884 290C873.713 290 848.263 285.127 847 299L843 303L787 304C782.2 321.09 754 308.021 751 326L728 330C727.052 342.563 713.747 337.935 705 339.444C700.445 340.229 696.648 342.666 692 343C689.855 351.241 676.676 355.852 669 358C666.562 366.412 659.365 361.884 654.603 366.603C652.507 368.681 653.302 372.229 650.682 373.972C645.502 377.419 636.901 374.371 631.108 377.608C627.737 379.492 626.648 383.308 623.66 385.597C617.408 390.386 611.458 392.784 605.455 398.297C597.653 405.464 591.294 398.751 591 413C579.332 413.001 577.601 418.071 568.87 423.853C565.522 426.07 560.602 425.514 557.588 427.988C555.256 429.903 555.259 433.43 552.772 435.401C550.184 437.452 546.738 437.344 544.6 440.148C542.952 442.309 543.165 445.438 541.258 447.401C538.746 449.987 534.412 448.713 531.738 450.988C529.118 453.218 529.301 456.186 526 458L526 462C512.645 462.047 504.285 471.704 504 485C494.973 485.719 494.551 490.574 487.996 495.571C483.993 498.623 478.428 499.42 474.572 502.429C469.089 506.708 468.001 516.673 468 523C458.976 523.744 459.573 528.506 453.687 533.258C451.516 535.01 448.561 534.557 446.299 536.024C436.753 542.214 432.03 552.01 432 563C427.131 563.812 423.812 567.131 423 572C418.634 573.277 418.674 578.664 414.977 581.394C408.833 585.929 409.769 589.668 405.523 594.602C398.822 602.388 388.257 610.533 384.606 621.134C382.613 626.925 385.116 634.315 381.935 639.861C379.674 643.803 375.258 642.696 372.477 645.477C370.565 647.389 370.778 650.655 369.194 652.861C366.897 656.062 362.832 657.079 360.343 660.079C356.543 664.658 358 672.441 358 678C343.346 680.444 347.261 695.695 344.682 706C343.55 710.522 339.736 713.228 339 718C333.152 719.876 333.018 725.615 333 731L323 732L322 757C304.586 761.891 309 792.27 309 806C294.499 806.471 296 831.463 296 842C281.451 846.087 284 873.037 284 885C284 893.012 284.126 900.437 275 903C274.821 967.858 273 1032.98 273 1098C273 1112.83 272.766 1128.25 274.17 1143C274.892 1150.59 275.057 1156.71 284 1157C284 1169.19 279.61 1205.24 296 1206C296 1217.63 292.728 1242.82 309 1244C309 1257.02 303.344 1291.39 322 1292L322.724 1313.83L331.973 1327L335.344 1338.86L343.972 1347.02L349 1377C361.652 1377.15 356.098 1387.42 359.6 1395.95C361.352 1400.21 366.878 1402.07 371 1403C371.007 1412.09 373.79 1414.81 383 1415C383.001 1425.09 381.758 1437.3 394 1439C394.001 1445.1 394.316 1454.48 399.032 1459.11C401.059 1461.09 404.296 1460.92 406.012 1463.32C407.835 1465.86 407.548 1469.33 409.564 1471.85C411.967 1474.86 415.913 1474.11 418.397 1476.6C420.707 1478.92 420.612 1483.93 421 1487L432 1492C432.036 1496.39 431.681 1503.62 434.434 1507.28C436.562 1510.1 440.207 1509.63 442.857 1511.6C445.684 1513.7 446.671 1517.4 449.143 1519.86C454.328 1525.01 458.796 1524.58 459 1533L468 1536C468.194 1545.07 471.975 1548.97 481 1549C481.518 1560.86 488.872 1556.24 493.826 1563.31C495.249 1565.35 495.045 1568.02 496.893 1569.85C498.91 1571.85 502.193 1571.85 503.822 1574.31C505.564 1576.95 504.926 1580.29 507.318 1582.68C509.891 1585.25 513.902 1584.2 516.401 1586.6C518.652 1588.76 518.737 1592.27 521.174 1594.52C526.183 1599.13 535.694 1598 542 1598C542.001 1605.16 541.495 1613.79 548.019 1618.44C551.928 1621.22 557.028 1621.85 560.981 1624.69C568.754 1630.26 568.353 1634 579 1634L582 1643L595 1647C596.206 1655.21 607.596 1659.85 615 1660C615.449 1673.84 629.212 1668.86 637.852 1672.74C641.258 1674.27 640.767 1678.46 643.573 1680.57C646.28 1682.6 650.086 1681.94 653 1683.74C662.334 1689.52 665.046 1695.9 677 1696C681.46 1717.34 713.276 1698.07 715 1717L737 1721C737.992 1733.44 753.153 1733.91 764 1734C766.31 1749.88 800.469 1744 812 1744L815 1753L828 1756.81L860 1757C860.537 1782.06 897.088 1761.92 909.701 1771.59C912.055 1773.39 912.794 1776.57 915.482 1778.06C929.04 1785.56 952.06 1782 967 1782L1083 1782C1099.21 1782 1122.99 1786.35 1137.74 1778.49C1140.6 1776.96 1141.72 1773.62 1144.3 1771.74C1157.71 1761.98 1186.83 1781.41 1190 1757C1203.08 1757 1236.77 1763.32 1237 1744C1250.06 1744 1269.76 1747.65 1281.94 1742.41C1285.95 1740.69 1285.86 1735.69 1290.06 1734.23C1299.96 1730.77 1311.95 1734.65 1312 1721C1323.52 1721 1335.69 1723.79 1336 1709C1349.03 1708.44 1369.57 1711.97 1373 1696C1378.94 1695.98 1388.17 1695.83 1392.85 1691.68C1395.25 1689.56 1395.67 1685.78 1398.31 1684.02C1405.18 1679.45 1409.77 1682.66 1410 1672C1420.49 1672 1430.17 1671.69 1438.91 1665.12C1441.77 1662.97 1443.24 1659.48 1446.3 1657.57C1448.46 1656.24 1451.45 1656.52 1453.4 1654.98C1455.44 1653.37 1455.44 1650.19 1457.32 1648.32C1462.92 1642.73 1468.79 1643.63 1470 1634C1486.06 1634 1495.59 1622.39 1506.3 1612.31C1512.08 1606.88 1518.68 1607.89 1519 1598C1529.91 1597.53 1527.18 1592.67 1533.58 1586.6C1535.82 1584.49 1539.17 1585.53 1541.66 1583.97C1544.45 1582.23 1545.04 1578.56 1547.3 1576.3C1552.93 1570.66 1555.97 1570.95 1556 1562C1565.02 1561.61 1568.3 1557.85 1569 1549C1580.39 1548.96 1592.12 1535.08 1593 1524L1603 1523L1605.74 1511.6L1613.21 1506.66L1626.89 1490L1632.32 1478.23L1640.11 1472.7L1643.59 1458L1651.97 1449.7L1654.03 1441.32L1663.49 1437.82L1666 1426C1681.02 1425.95 1679 1411.59 1679 1400C1688.55 1397.32 1691.62 1386.9 1692 1378C1702.11 1376.69 1699.21 1372.45 1703.02 1365C1705.58 1360.02 1711.38 1357.31 1713.4 1352C1717.27 1341.84 1712.46 1330.22 1715.32 1320.11C1716.83 1314.76 1723.12 1317.63 1725.68 1313.68C1729.04 1308.51 1726.13 1300.69 1728.6 1295.23C1730.18 1291.75 1734.66 1292.53 1736.85 1289.68C1741.2 1284.05 1740 1273.67 1740 1267L1749 1264C1749.46 1253.28 1752.49 1242.85 1752.96 1232C1753.39 1222.27 1750.88 1210.45 1753.32 1201.02C1754.69 1195.72 1761.09 1196.43 1762.57 1191.85C1766.84 1178.58 1764 1159.87 1764 1146C1767.27 1145.58 1771.86 1145.4 1774.06 1142.57C1776.95 1138.85 1776 1132.38 1776 1128L1776 1095L1776 952C1776 938.008 1781.7 910.966 1764 906C1764 893.326 1769.43 856.611 1753 854L1752.08 812L1748.97 794.599L1740 792C1740 781.441 1742.99 758.131 1728 757C1727.99 747.219 1725.79 737.045 1715 734C1715 720.917 1719.9 697.201 1703 695C1702.73 691.609 1702.98 685.361 1700.4 682.853C1698.17 680.692 1694.91 680.76 1693.18 677.856C1687.72 668.732 1693.77 657.052 1679 657C1679 650.516 1680.51 640.946 1676.99 635.144C1674.58 631.177 1669.33 630.339 1667.01 625.995C1664.87 621.993 1666.53 616.12 1663.97 612.549C1661.74 609.441 1657.19 610.026 1654.32 607.991C1651.55 606.027 1646.8 598.822 1644.56 595.871C1637.62 586.711 1643.85 574.052 1629 572C1628.7 561.493 1624.21 563.985 1618.6 558.397C1616.01 555.816 1617.43 551.35 1615.06 548.588C1612.49 545.595 1608.25 545.74 1605.98 541.956C1586.99 510.308 1557.06 486.883 1531.3 462.296C1524.49 455.801 1518.61 452.763 1511.06 447.401C1503.65 442.143 1504.51 437.336 1494 436C1493.97 427.311 1489.61 424.25 1481 424C1480.59 411.44 1467.47 413 1458 413C1457.97 404.219 1454.78 401.031 1446 401C1444.56 389.677 1440.94 391.511 1432.13 387.436C1427.29 385.198 1424.25 380.022 1419 377.705C1413.69 375.362 1407.05 376.628 1402.02 373.973C1398.47 372.103 1398.23 368.259 1395.42 365.988C1392.31 363.488 1386.73 364.01 1383 364C1380.4 351.562 1372.2 355.197 1363.13 351.397C1358.58 349.491 1358.75 343.281 1354.52 340.938C1346.65 336.582 1332.69 339 1324 339C1323.84 324.471 1310.14 326 1299 326C1298.58 313.028 1284.74 316.957 1276.13 313.397C1271.14 311.333 1268.7 305.894 1263 304.13C1248.06 299.504 1227.58 303 1212 303C1211.93 283.732 1177.36 290 1164 290C1162.74 274.742 1139.59 277.142 1128 277.004C1113.5 276.831 1097.36 279.137 1083.04 276.853C1077.68 275.997 1076.02 269.613 1070.83 268.303C1052.93 263.791 1032.33 266 1014 266C1003.12 266 971.48 262.213 971 277z"/>
<path style="fill:#ff9854; stroke:none;" d="M991 551.425C946.176 557.527 915.241 588.772 878.999 611.772C845.553 632.997 814.967 658.216 783 681.366C742.093 710.989 698.761 737.336 659 768.714C639.825 783.846 617.613 795.811 600.015 813.039C583.228 829.473 570.652 853.099 562.695 875C550.832 907.655 555 943.76 555 978L555 1155L555 1263C555 1288.35 551.925 1316 556.463 1341C563.914 1382.05 591.28 1423.29 627 1444.55C659.097 1463.64 690.325 1469 727 1469L805 1469C818.689 1469 834.7 1470.88 848 1467.21C894.469 1454.41 896 1409.44 896 1370L896 1204C896 1177.81 892.146 1148.08 909.518 1126C923.764 1107.89 944.72 1106 966 1106C1003.12 1106 1042.06 1102.6 1079 1106.17C1102.45 1108.44 1123.37 1124.74 1129.48 1148C1133.18 1162.07 1131 1178.55 1131 1193L1131 1350C1131 1373.52 1126.3 1403.81 1135.26 1426C1157.7 1481.6 1222.93 1469 1271 1469C1291.73 1469 1313.37 1470.8 1334 1468.83C1348.34 1467.46 1361.5 1462.06 1375 1457.34C1425.16 1439.81 1461.96 1390.82 1470.68 1339C1476.64 1303.53 1472 1263.94 1472 1228L1472 1137L1472 974C1472 928.764 1474.23 887.054 1451.69 846C1432.63 811.294 1400.94 792.682 1370 770.073C1318.48 732.428 1265.99 696.199 1214 659.212C1190.4 642.42 1166.18 625.559 1143 608.24C1097.1 573.937 1051.37 543.207 991 551.425z"/>
<path style="fill:#ff6603; stroke:none;" d="M1004 566.424C993.801 567.763 983.94 568.103 974 571.325C934.069 584.268 901.635 613.583 868 637.215C820.889 670.317 774.208 704.227 727.996 738.511C711.03 751.097 692.655 761.434 676 774.32C656.706 789.249 634.159 800.75 616.089 817.213C600.388 831.518 586.116 853.245 578.323 873C564.929 906.954 568 944.18 568 980L568 1150L568 1264C568 1285.98 566.458 1309.21 569.289 1331C573.209 1361.16 590.099 1394.91 612.17 1415.79C621.935 1425.03 636.285 1432.26 648 1438.79C676.257 1454.54 706.856 1453 738 1453L813 1453C823.84 1453 837.862 1455.28 848 1450.73C887.875 1432.8 884 1389.33 884 1353L884 1201C884 1169.77 880.638 1141.17 900.789 1115.09C911.467 1101.27 931.129 1093.52 948 1091.83C969.747 1089.66 992.133 1091 1014 1091C1037.22 1091 1060.91 1089.69 1084 1092.17C1089.84 1092.8 1094.62 1095.6 1100 1097.63C1138.21 1112.04 1141 1146.47 1141 1182L1141 1341C1141 1363.18 1135.67 1393.4 1144.9 1414C1151.61 1428.96 1162.76 1443.38 1178 1450.35C1191.97 1456.74 1212.94 1453 1228 1453C1264.18 1453 1303.1 1457.11 1339 1452.82C1355.12 1450.89 1375.66 1441.65 1389 1432.75C1399.58 1425.69 1411.18 1420.2 1419.87 1410.56C1439.07 1389.25 1455.21 1355.54 1458.71 1327C1461.27 1306.16 1459 1283.16 1459 1262L1459 1141L1459 976C1459 938.958 1461.74 902.345 1445.68 868C1436.92 849.286 1425.57 830.022 1409.83 816.39C1395.96 804.378 1379.53 795.486 1365 784.468C1326.13 754.996 1285.66 727.759 1246 699.215C1238.57 693.867 1232.19 686.111 1224.79 681.224C1216.49 675.739 1207.3 671.677 1199 665.911C1190.87 660.259 1183.91 652.713 1175.91 646.774C1154.05 630.551 1130.39 615.79 1108 600.561C1077.56 579.855 1042.13 561.419 1004 566.424z"/>
<path style="fill:#ffff01; stroke:none;" d="M710 1708L711 1709L710 1708z"/>
</svg>
