<?xml version="1.0" standalone="yes"?>
<svg xmlns="http://www.w3.org/2000/svg" width="2048" height="2048">
<path style="fill:#010101; stroke:none;" d="M0 0L0 2048L2048 2048L2048 0L0 0z"/>
<path style="fill:#fffefd; stroke:none;" d="M810 311C795.651 311 777.838 308.223 764 312.545C758.508 314.261 756.319 319.028 751.741 321.682C746.478 324.732 735.131 326.474 729 328L729 334C724.932 334.084 718.848 333.928 715.259 336.022C710.466 338.82 707.516 344.399 702 346.397C695.299 348.825 686.844 345.802 680.129 348.603C675.909 350.364 673.89 355.882 669.999 358.401C665.712 361.176 660.111 359.977 656.059 363.317C653.23 365.648 652.639 370.048 649.687 371.972C647.166 373.615 643.838 372.47 641.263 374.028C637.46 376.328 636.525 380.856 631.985 382.576C628.21 384.005 623.585 383.124 620.054 385.028C616.287 387.059 615.231 391.672 611.812 394.106C607.7 397.034 601.668 396.271 597.058 398.424C592.807 400.409 592.765 404.562 589.525 407.411C583.147 413.021 580.036 411.087 578 421C561.88 421.044 549.22 434.186 540.992 445.683C537.232 450.935 532.267 448.768 532 457C521.189 457.089 519.302 459.7 518 470L507.028 472.434L503.566 481.977L483.653 496.652L479.412 504.397L472.433 507.027L468 519C458.212 519.318 461.365 525.176 456.258 530.397C450.856 535.918 445.33 533.57 445 544C432.354 544.553 431.222 556.225 431 567C421.961 567.746 423.944 571.894 419.157 577.682C417.03 580.254 413.832 579.326 411.318 581.027C408.14 583.177 408.436 589.551 408 593C394.034 593.049 399.326 603.741 395.397 612.853C394.076 615.915 390.287 616.262 388.26 618.723C383.428 624.589 383.001 631.801 383 639C369.832 639.382 372.704 652.053 361 655L360 678C342.499 680.33 351.465 697.657 345.972 707.956C343.806 712.019 339.484 711.722 336.564 714.588C333.726 717.374 334.03 722.352 334 726C319.056 730.246 324.58 748.18 321.566 758.995C320.085 764.311 313.672 764.844 312.318 770.019C309.431 781.055 312.614 795.367 308.397 805.945C306.648 810.331 300.593 809.792 299.318 814.144C295.61 826.796 303.358 843.439 287 849C286.71 863.057 288.81 881.274 285.721 894.906C284.718 899.336 280.076 899.578 278.027 903.144C275.759 907.09 274.66 917.333 274.129 922C268.339 972.844 273 1026.8 273 1078C273 1096.28 272.006 1115.86 274.13 1134C275.098 1142.27 276.941 1149.9 286 1150L287 1199C309.371 1203.4 286.868 1237.03 309 1238C309 1248.03 310.77 1257.13 311.826 1267C312.305 1271.47 311.03 1276.73 312.603 1281C314.473 1286.07 320.104 1288.65 321.566 1294C324.222 1303.71 321.304 1318.39 334 1322L335 1335L347 1340C347 1347.31 345.316 1357.35 348.988 1364C351.66 1368.83 357.368 1370.56 359.231 1376C362.486 1385.52 355.837 1395.95 370 1396C370.234 1406.92 377.168 1406.24 381.686 1414.09C386.243 1422.02 382.76 1431.85 395 1432C395.882 1443.17 395.087 1454.3 408 1457C408.068 1465.07 410.328 1469.74 419 1470C420.149 1478.49 422.518 1480.99 431 1481C431.11 1494.3 435.849 1498.28 443.397 1507.46C445.255 1509.72 444.483 1513.11 446.603 1515.15C449.02 1517.46 452.97 1516.91 455.567 1518.94C458.056 1520.88 458.108 1524.46 460.314 1526.69C462.324 1528.71 465.347 1529.13 467.231 1531.31C469.547 1533.99 469.035 1537.77 471.023 1540.44C476.169 1547.35 484.216 1554.99 493 1555C493.498 1566.4 501.916 1562.51 505.401 1570.15C508.507 1576.96 514.445 1585.6 521.274 1589.82C523.835 1591.41 527.206 1590.57 529.567 1592.6C532.024 1594.72 532.001 1598.41 534.314 1600.68C536.888 1603.21 540.893 1602.35 543.401 1604.74C554.398 1615.22 560.078 1628.63 578 1629C579.214 1638.68 584.058 1636.6 590.826 1640.32C594.298 1642.23 595.006 1646.53 598.284 1648.45C602.708 1651.05 608.669 1650.62 612.721 1653.18C616.248 1655.4 614.799 1659.56 617.024 1662.41C619.408 1665.46 625.562 1664.97 629 1665C629.049 1678.98 642.306 1674.48 652 1678.03C656.463 1679.67 659.145 1683.25 664 1684C665.956 1689.89 671.881 1686.16 675.397 1690.32C677.377 1692.66 676.466 1696.2 678.603 1698.41C682.743 1702.7 690.154 1699.52 694.982 1702.03C699.276 1704.26 700.019 1709.69 704.108 1711.97C712.235 1716.51 727.923 1714 737 1714C737.321 1727.3 751.541 1726.78 762 1727C765.176 1739.6 778.182 1735.88 788 1739.6C793.017 1741.5 795.786 1746.8 801.089 1748.29C818.629 1753.23 840.895 1750 859 1750C859.067 1768.97 894.334 1762 908 1762C910.293 1780.28 939.871 1775 953 1775L1099 1775C1111.83 1775 1147.22 1780.02 1150 1762C1163.02 1762 1188.94 1768.06 1189 1750C1206.7 1750 1224.37 1750.3 1242 1749.09C1250.84 1748.48 1259.88 1750.09 1260 1739C1266.93 1738.98 1277.5 1738.92 1283.7 1735.49C1287.17 1733.57 1288.09 1729.26 1292 1727.51C1302.46 1722.86 1309.99 1729.12 1310 1714C1322.77 1714 1354.65 1718.62 1357 1701C1368.51 1700.99 1369.06 1695.38 1378 1690.15C1386.13 1685.39 1393.54 1689.49 1396 1678C1406.15 1677.79 1418.96 1677.18 1419 1665C1428.1 1665 1441.64 1663.13 1442 1652L1453.97 1649.4L1458.15 1641.02L1474.85 1636.15L1481.15 1628.15L1490.68 1623.68L1495.32 1615.43L1501.98 1611.41L1505.32 1605.02L1523.03 1597.03L1545.23 1570.31L1559.7 1562.46L1578 1542C1578.62 1533.77 1584.41 1533.18 1589.42 1528.28C1595.64 1522.18 1603.6 1515.21 1604 1506C1611.26 1504.17 1613.43 1500.13 1614 1493C1623.34 1492.7 1622.33 1486.87 1627.6 1481.6C1631.2 1478 1635.87 1478.83 1637.77 1473C1640.07 1465.95 1637.58 1454.44 1646 1452C1648.11 1444.54 1653.71 1444.71 1658.68 1440.4C1663.69 1436.07 1665 1426.16 1665 1420C1676.87 1419.45 1673.27 1411.46 1677.3 1403.17C1679.37 1398.93 1683.94 1396.67 1686.07 1392.54C1689.06 1386.7 1688 1377.39 1688 1371C1698.84 1371 1700.99 1367.63 1701 1357C1714.26 1356.57 1710.73 1341.79 1714.51 1333C1716.54 1328.3 1720.94 1325.03 1722.45 1320C1724.36 1313.64 1723.23 1306.35 1725.89 1300.05C1727.31 1296.68 1730.87 1295.22 1732.45 1291.95C1737.44 1281.68 1737 1272.2 1737 1261C1754.81 1260.84 1747.92 1239.18 1750.23 1227.02C1751.07 1222.61 1755.03 1222.11 1757.4 1218.86C1759.38 1216.13 1759.85 1211.27 1760.54 1208C1764.57 1189.14 1762 1167.23 1762 1148C1779.27 1145.25 1775 1109.29 1775 1097L1775 952C1775 938.835 1780.59 908.437 1762 908C1762 882.379 1764.99 853.966 1758.68 829C1757.36 823.756 1751.64 821.245 1750.32 816C1748.42 808.468 1751.04 797.424 1747.14 790.573C1745.17 787.115 1740.22 788.762 1738.03 785.566C1731.1 775.488 1743.71 763.252 1726 761C1726 751.67 1725.75 739.806 1722.4 731C1720.5 726.004 1715.07 723.526 1714.14 718C1712.56 708.531 1713.56 691.408 1701 691C1700.94 683.658 1700.58 677.279 1692 677L1692 673L1688 673C1688 663.031 1689.18 653.52 1677 652C1675.79 638.085 1672.85 627.804 1663.26 617.563C1660.67 614.789 1656.37 615.068 1654.01 611.775C1648.94 604.711 1651.63 593.878 1640 593C1639.99 580.813 1634.22 577.607 1627.82 568.541C1625.87 565.778 1626.76 562.181 1624.97 559.46C1622.78 556.118 1618.11 555.699 1615.59 552.701C1610.42 546.547 1606.6 538.376 1601.4 532.684C1595.48 526.204 1587.57 521.089 1585 512C1562.98 505.785 1558.05 470.282 1534 470L1530 466C1529.4 459.353 1520.03 449.741 1514.59 446.013C1512.13 444.33 1508.97 444.749 1506.76 442.486C1502.76 438.389 1498.54 435.31 1494.55 431.44C1492.06 429.033 1491.54 424.998 1488.54 423.027C1484.78 420.558 1479.17 421.942 1475.09 419.864C1470.97 417.767 1469.83 413.411 1466.53 410.588C1464.13 408.529 1460.72 408.794 1458.15 407.062C1455.03 404.96 1455.36 400.953 1452.68 398.564C1450.29 396.428 1446.84 396.802 1444.31 395.012C1442.05 393.407 1441.78 390.365 1439.69 388.599C1433.85 383.676 1423.26 383.02 1416 383C1414.75 374.42 1404.91 374.133 1399.14 369.451C1396.5 367.302 1395.64 363.735 1392.86 361.742C1389.29 359.193 1384.77 361.045 1381.14 358.973C1376.68 356.423 1374 351.482 1369 348.969C1362.08 345.49 1352.51 347 1345 347C1344.22 336.249 1331 334.006 1322 334C1321.95 320.652 1309.56 325.385 1300.05 321.852C1295.31 320.09 1293.85 314.404 1289 312.603C1277.29 308.253 1260.33 311 1248 311C1247.94 294.502 1224.29 298 1212 298C1207.96 283.841 1187.88 286 1176 286C1172.13 286 1166.55 286.977 1163.3 284.397C1161.05 282.609 1160.41 279.538 1157.86 278.024C1153.63 275.522 1147.64 276.542 1143 275.545C1126.91 272.089 1108.51 273 1092 273L964 273C941.923 273 911.622 269.281 891.058 278.438C887.759 279.906 886.831 283.274 883.857 284.973C875.411 289.798 862.33 283.702 853.044 287.589C847.878 289.751 847.878 296.883 841.96 297.852C829.858 299.834 810.159 293.365 810 311z"/>
<path style="fill:#ffd0b0; stroke:none;" d="M1002 551.424C990.651 552.933 979.451 556.126 968 556.911C954.88 557.81 940.89 556.574 928 559.286C920.975 560.765 914.804 564.408 908 566.363C885.181 572.921 861.202 577.053 839 586.093C779.06 610.501 725.217 647.632 679.171 693.05C669.404 702.684 661.635 714.126 653.367 724.961C647.998 731.995 640.888 737.732 635.634 745C611.224 778.769 593.933 818.215 579.441 857C571.169 879.141 562.688 901.404 558.424 925C555.973 938.568 557.13 952.351 555.83 966C554.118 983.975 547.816 1000.7 548.004 1019C548.173 1035.44 553.8 1050.82 555.714 1067C557.403 1081.26 555.61 1095.8 558.449 1110C568.553 1160.53 588.865 1209.05 614.927 1253C633.772 1284.78 653.728 1316.38 680.209 1342.7C746.27 1408.37 832.433 1453.83 923 1473.88C935.824 1476.72 948.997 1475.86 962 1477.17C1008.41 1481.83 1053.68 1480.95 1100 1474.84C1107.11 1473.9 1113.1 1470.07 1120 1468.51C1145.82 1462.7 1168.66 1455.08 1193 1444.62C1231.19 1428.21 1266.79 1412.35 1298.18 1384.39C1315.96 1368.56 1336.35 1356.67 1352.7 1338.91C1380.1 1309.15 1400.18 1275.5 1420.08 1241C1438.01 1209.93 1453.61 1177.7 1463.96 1143C1470.9 1119.73 1472.89 1095.93 1475.17 1072C1480.21 1019.01 1479.44 967.854 1468.02 916C1466.27 908.094 1466.28 899.781 1463.96 892C1453.39 856.562 1437.12 825.365 1420.19 793C1406.7 767.232 1391.52 745.862 1373.52 723C1366.39 713.944 1361 703.417 1352.81 695.184C1336.84 679.116 1318.86 666.35 1301.04 652.391C1294.03 646.903 1288.27 639.917 1281 634.556C1254.31 614.87 1221.63 598.657 1191 586.258C1182.96 583.002 1174.16 582.388 1166 579.592C1144.53 572.238 1122.44 563.155 1100 559.25C1085.8 556.778 1071.26 558.354 1057 556.826C1038.3 554.824 1021.19 548.874 1002 551.424z"/>
<path style="fill:#ff9e5e; stroke:none;" d="M1013 560.428C988.532 563.35 963.357 563.931 939 567.428C910.965 571.454 882.509 580.065 856 589.695C718.81 639.535 616.206 756.374 574.57 895C566.139 923.073 564.671 951.124 561.83 980C556.641 1032.75 560.397 1087.57 574.289 1139C621.388 1313.36 779.866 1450.05 959 1467.17C987.128 1469.86 1012.28 1475.7 1041 1472.83C1049.83 1471.95 1058.25 1468.55 1067 1467.3C1078.91 1465.6 1091.11 1466.7 1103 1464.54C1165.31 1453.23 1227.1 1425.02 1279 1388.96C1372.92 1323.71 1445.27 1212.61 1463.56 1099C1465.34 1087.96 1464.12 1077.04 1465.17 1066C1466.71 1049.87 1471.66 1034.31 1471.66 1018C1471.66 1000.81 1467.3 984.01 1465.29 967C1464.07 956.72 1465.05 946.322 1463.57 936C1458.97 903.987 1447.66 870.895 1435.55 841C1384.49 714.973 1274.84 622.176 1147 582.491C1128.07 576.614 1109.86 570.535 1090 567.439C1080.15 565.903 1069.89 566.921 1060 565.575C1044.9 563.52 1028.28 558.604 1013 560.428z"/>
<path style="fill:#ff6805; stroke:none;" d="M1003 570.425C979.383 573.64 954.125 571.897 931 576.666C840.925 595.241 751.206 644.14 688.329 711.286C672.009 728.714 659.021 749.568 645.367 769C610.933 818.003 586.642 873.71 575.46 933C573.087 945.583 574.034 958.347 572.83 971C571.619 983.731 566.33 996.344 566.015 1009C565.547 1027.78 571.068 1044.5 572.83 1063C574.068 1076 573.034 1089.05 575.46 1102C586.659 1161.77 612.14 1216.17 645.949 1266C662.429 1290.29 679.155 1315.2 700.325 1335.62C750.135 1383.68 817.372 1425.6 884 1445.56C893.151 1448.3 902.764 1448.64 912 1450.9C918.833 1452.57 925.094 1456.24 932 1457.53C942.281 1459.46 952.682 1458.19 963 1459.17C1006.94 1463.35 1049.04 1463.49 1093 1457.71C1100.78 1456.69 1107.46 1453.01 1115 1451.24C1124.54 1448.99 1134.55 1448.7 1144 1445.96C1175.57 1436.81 1207.87 1419.99 1236 1403.34C1252.84 1393.38 1270.4 1384.48 1285.91 1372.37C1341.88 1328.64 1389.02 1269.8 1420.02 1206C1428.5 1188.55 1432.73 1169.3 1438.75 1151C1445.41 1130.76 1452.52 1109.28 1455.57 1088C1457.12 1077.2 1456.13 1065.9 1457.17 1055C1458.58 1040.25 1461.35 1025.88 1460.99 1011C1460.71 999.959 1457.9 989.009 1457.09 978C1456.34 967.842 1457.13 957.025 1455.56 947C1452.1 924.824 1444.87 903.227 1438.44 882C1430.17 854.674 1421.08 827.104 1407.33 802.039C1402.74 793.671 1395.69 785.819 1390.24 777.911C1365.35 741.829 1339.87 710.254 1307 680.83C1296.37 671.312 1285.59 659.828 1273.91 651.727C1257.94 640.65 1238.2 631.907 1221 622.676C1184.04 602.842 1142.7 584.961 1101 577.424C1084.44 574.431 1067.72 575.084 1051 573.911C1034.87 572.779 1019.35 568.2 1003 570.425z"/>
<path style="fill:#ff9e5e; stroke:none;" d="M859 716.439C841.033 719.245 819.828 727.559 804 736.424C763.62 759.038 731.42 794.47 718.427 840C710.957 866.179 714 895.064 714 922L714 1064C714 1125.87 704.689 1191.69 742.789 1245C768.202 1280.56 808.357 1307.02 851 1316.57C873.319 1321.58 898.235 1319 921 1319L1044 1319L1125 1319C1142.09 1319 1160.16 1320.1 1177 1316.91C1193.54 1313.77 1210.25 1305.43 1225 1297.82C1270.58 1274.29 1304.78 1228.45 1315.48 1178C1320.24 1155.59 1317 1129.82 1317 1107L1317 971C1317 934.167 1321.92 893.297 1315.38 857C1310.67 830.806 1296.51 802.859 1280.24 782.039C1257.64 753.123 1230.74 737.754 1197 725.456C1189.91 722.87 1183.52 718.907 1176 717.461C1154.55 713.339 1130.78 716 1109 716L986 716L902 716C888.041 716 872.799 714.284 859 716.439z"/>
<path style="fill:#ffd0b0; stroke:none;" d="M868 726.424C849.826 728.818 832.645 734.049 816 741.691C767.811 763.814 732.042 809.971 724.428 863C720.834 888.033 724 915.7 724 941L724 1062C724 1120.59 714.446 1185.99 749.774 1237C774.937 1273.33 815.607 1301.26 860 1306.71C882.997 1309.54 907.822 1307 931 1307L1044 1307L1126 1307C1142.55 1307 1159.61 1308.24 1176 1305.7C1239.12 1295.93 1289.67 1240.39 1303.5 1180C1309.18 1155.23 1306 1127.27 1306 1102L1306 960C1306 903.178 1312.7 844.187 1277.96 795C1251.39 757.384 1207.59 731.885 1162 726.286C1140.61 723.66 1117.55 726 1096 726L994 726L911 726C896.917 726 881.967 724.585 868 726.424z"/>
<path style="fill:#fffefd; stroke:none;" d="M874 735.424C855.378 737.869 837.474 742.223 820 749.785C776.656 768.542 741.723 814.366 734.439 861C730.409 886.801 734 915.873 734 942L734 1061C734 1120.02 723.891 1186.28 761.105 1236.83C783.477 1267.22 821.712 1291 859 1297.67C883.659 1302.08 911.002 1299 936 1299L1050 1299C1088.93 1299 1131.54 1303.84 1170 1297.7C1185.7 1295.2 1203.41 1287.64 1217 1279.75C1232.41 1270.8 1247.31 1259.83 1259.83 1246.91C1301.05 1204.4 1296 1144.52 1296 1090L1296 960C1296 908.063 1303.99 846.126 1272.08 801.039C1250.34 770.319 1211.22 746.527 1175 737.529C1154.45 732.423 1131.01 735 1110 735L993 735C954.299 735 912.346 730.39 874 735.424z"/>
<path style="fill:#ffd0b0; stroke:none;" d="M901 761.424C885.19 763.506 865.527 762.185 851 769.377C814.486 787.456 781.58 814.99 766.468 854C759.537 871.889 760.791 896.038 759.961 915C758.01 959.541 759 1004.37 759 1049C759 1081.48 758.704 1113.69 761.83 1146C763.973 1168.14 767.379 1189.26 780.637 1208C798.652 1233.47 828.154 1257.78 858 1267.9C866.523 1270.79 876.172 1271.03 885 1272.61C927.861 1280.33 972.571 1277 1016 1277C1052.28 1277 1091.06 1280.82 1127 1275.7C1142.54 1273.48 1164.09 1272.53 1178 1265.1C1208.32 1248.89 1237.24 1229.19 1254.1 1198C1268.74 1170.91 1269 1135.96 1269 1106L1269 985C1269 931.447 1277.58 866.054 1244.36 820.001C1238.93 812.467 1230.99 806.645 1224.18 800.485C1208.86 786.616 1192.44 773.13 1172 767.036C1150.03 760.486 1123.75 761 1101 761L1006 761C971.838 761 934.849 756.967 901 761.424z"/>
<path style="fill:#ff9e5e; stroke:none;" d="M900 771.424C881.03 773.916 862.661 774.81 845 783.12C811.306 798.972 783.616 829.861 773.428 866C767.199 888.099 769 914.214 769 937L769 1050C769 1099.86 759.93 1162.18 790.746 1205C845.241 1280.72 942.272 1266 1024 1266C1057.39 1266 1094.28 1270.42 1127.29 1265.45C1144.32 1262.88 1165.54 1260.44 1181 1252.73C1212.03 1237.26 1239.96 1211.29 1251.91 1178C1260.03 1155.4 1258 1127.7 1258 1104L1258 983C1258 929.92 1267.66 867.605 1233.11 823C1225.48 813.143 1215.15 802.061 1205 794.789C1170.25 769.901 1127.75 771 1087 771L1003 771C969.482 771 933.214 767.062 900 771.424z"/>
<path style="fill:#ff6805; stroke:none;" d="M1236 864C1233.42 884.418 1222.22 910.961 1199 915.685C1187.3 918.066 1174.87 917 1163 917C1160.64 917 1152.74 915.773 1152.18 919.225C1151.74 921.901 1161.22 933.89 1163.01 937C1171 950.849 1180.2 967.742 1181.83 984C1184.06 1006.28 1186.13 1035.19 1180.52 1057C1166.14 1112.93 1119.81 1158.82 1066 1176.22C1057.45 1178.98 1050.2 1183.84 1041 1184.83C1008.23 1188.34 972.514 1184.7 943 1169.63C933.478 1164.76 925.721 1158.04 917 1152.09C907.627 1145.7 898.106 1140.27 890.184 1131.91C829.313 1067.69 830.003 948.734 902 892.389C945.991 857.961 1001.09 836.877 1057 853.72C1074.72 859.058 1090.6 866.869 1106 876.965C1111.17 880.354 1119.48 890.123 1126.77 888.184C1131.83 886.839 1130 875.818 1130 872C1130 855.24 1131.23 842.891 1143.17 830.015C1154.29 818.026 1168.25 814.018 1184 813.209C1191.84 812.806 1198.92 816.655 1206 812C1193.49 793.252 1168.19 785.856 1147 783.83C1104.08 779.729 1060.14 782 1017 782C977.681 782 938.231 781.243 899 782.961C877.516 783.901 851.055 785.408 833.286 799.506C812.856 815.715 792.793 837.163 785.392 863C776.374 894.481 781 932.492 781 965L781 1085C781 1112.44 777.456 1144.46 785.44 1171C791.741 1191.94 806.709 1210.97 822.325 1225.61C852.605 1254 899.217 1255 938 1255L1068 1255C1107.49 1255 1153.5 1258.72 1189 1237.78C1203.63 1229.14 1216.2 1216.37 1226.61 1203C1259.57 1160.69 1248 1092.05 1248 1042L1248 911C1248 898.907 1247.32 871.277 1236 864z"/>
<path style="fill:#ffd0b0; stroke:none;" d="M1173 824.518C1142.62 830.96 1125.15 871.84 1148.18 895.907C1159.81 908.049 1179.44 909.154 1195 905.789C1220.84 900.2 1229.6 867.889 1218.62 846C1210.58 829.968 1190.44 820.819 1173 824.518z"/>
<path style="fill:#fffefd; stroke:none;" d="M1174 834.518C1153.94 838.774 1138.29 865.746 1150.86 884.896C1159.79 898.513 1178.36 900.372 1193 897.181C1209.09 893.673 1217.47 874.004 1213.21 859C1208.51 842.431 1191 830.913 1174 834.518z"/>
<path style="fill:#ffd0b0; stroke:none;" d="M991 859.515C929.238 872.151 873.09 916.334 858.5 980C855.902 991.337 857 1003.45 857 1015C857 1027.81 855.695 1041.42 858.514 1054C874.556 1125.63 941.73 1174 1013 1174C1022.71 1174 1033.46 1175.29 1043 1173.33C1101.29 1161.41 1157.44 1116.27 1170.49 1056C1176.91 1026.36 1175.98 987.218 1164.55 959C1138.55 894.82 1061.14 845.163 991 859.515z"/>
<path style="fill:#fffefd; stroke:none;" d="M992 869.428C947.999 875.729 904.444 905.035 882.441 944.089C869.88 966.384 868 990.119 868 1015C868 1042.18 869.99 1066.12 882.649 1090.83C910.894 1145.96 981.787 1173.81 1041 1164.79C1047.14 1163.85 1053.03 1160.03 1059 1158.21C1096.87 1146.62 1135.68 1118.74 1152.35 1081C1168.49 1044.48 1169.01 989.482 1152.48 953C1147.85 942.782 1139.23 934.615 1132.39 925.996C1099.03 883.978 1045.87 861.714 992 869.428z"/>
<path style="fill:#ffd0b0; stroke:none;" d="M1015 892.595C997.029 893.159 973.311 898.621 958 907.882C947.72 914.1 937.402 918.264 928.184 926.518C909.616 943.146 894.408 971.701 889.286 996C884.747 1017.53 888.704 1034.93 895.91 1055C914.538 1106.88 960.634 1141.13 1017 1140.29C1069.14 1139.51 1115.5 1106.83 1133.3 1058C1157.52 991.594 1115.12 909.756 1044 898.561C1034.54 897.072 1024.56 892.295 1015 892.595z"/>
<path style="fill:#ff9e5e; stroke:none;" d="M1004 903.464C949.864 913.029 906.407 947.133 898.3 1004C890.175 1061 930.864 1110.19 983 1125.72C997.995 1130.19 1012.26 1133.89 1028 1130.91C1075.33 1121.92 1110.25 1095.45 1125.03 1049C1127.46 1041.35 1131.02 1034.1 1131.83 1026C1133.28 1011.47 1129.72 998.541 1125.08 985C1111.08 944.17 1083.63 917.13 1041 907.349C1028.89 904.57 1016.54 901.248 1004 903.464z"/>
<path style="fill:#ff6805; stroke:none;" d="M1005 914.439C979.689 918.382 952.579 926.563 934.468 946.184C924.443 957.044 918.206 971.057 914.14 985C910.549 997.32 905.179 1007.7 906.089 1021C906.753 1030.7 910.449 1037.99 913.484 1047C915.781 1053.82 916.754 1061.72 920.393 1068C941.473 1104.37 987.298 1126.68 1029 1119.71C1076.35 1111.8 1115.5 1076.72 1120.83 1027C1127.53 964.39 1068.08 904.612 1005 914.439z"/>
</svg>
