<?xml version="1.0" standalone="yes"?>
<svg xmlns="http://www.w3.org/2000/svg" width="2048" height="2048">
<path style="fill:#010101; stroke:none;" d="M0 0L0 2048L2048 2048L2048 0L0 0z"/>
<path style="fill:#fffefd; stroke:none;" d="M419 813C387.609 819.822 357.096 844.743 334.999 866.87C283.98 917.958 255 990.287 255 1062C255 1092.79 259.562 1125.47 274.453 1153C295.13 1191.23 326.778 1215.36 369.039 1224.68C379.091 1226.89 389.781 1226 400 1226C403.427 1226 409.635 1224.57 412.686 1226.2C415.578 1227.74 415.487 1232.26 416.326 1235C418.284 1241.4 421.92 1248.39 425.548 1254C436.554 1271.03 453.831 1284.48 473 1291C450.676 1328.46 450.357 1380.15 478.467 1415C497.383 1438.45 523.557 1453.22 552 1462.1C590.238 1474.05 627.563 1467.68 666 1463C657.065 1486.67 654.66 1511.15 651.871 1536C642.584 1618.73 666.688 1712.18 729.754 1770.12C779.25 1815.59 850.674 1820.02 906 1783.07C919.088 1774.34 939.76 1759.41 945 1744C963.547 1749.72 980.313 1755.5 1000 1755.99C1051.87 1757.26 1111.01 1725.91 1131 1676C1149.67 1681.98 1167.77 1688.83 1187 1692.82C1197.56 1695 1208.32 1694.31 1218.99 1695.05C1268.57 1698.52 1317.05 1688.85 1360 1661.94C1372.76 1653.94 1385.17 1643.3 1393.96 1631C1397.93 1625.46 1403.86 1611.12 1410.17 1608.61C1415.27 1606.58 1424.11 1610.53 1430 1609.87C1450.33 1607.59 1471.5 1605.23 1491 1598.12C1588.17 1562.7 1669.36 1488.8 1725.62 1403C1735.04 1388.63 1744.78 1373.64 1751.98 1358C1758.88 1343 1766.3 1328.34 1772.55 1313C1797.5 1251.7 1811.89 1156.29 1751 1110.67C1741.63 1103.65 1730.07 1099.26 1719 1095.69C1702.23 1090.28 1685.23 1091.64 1668 1092C1667.93 1071.71 1658.48 1048.55 1648.85 1031C1644.98 1023.93 1640.51 1015.64 1633 1012C1639.83 1002.76 1639.36 990.821 1641.26 980.089C1648.07 941.722 1639.15 898.431 1619.1 865C1613.73 856.049 1607.74 848.145 1600.42 840.715C1597.31 837.555 1590.67 833.36 1589.5 828.985C1587.63 822.01 1596.46 808.207 1598.16 801C1603.34 778.992 1605.52 757.611 1602.87 735C1595.21 669.621 1542.57 611.47 1478 598.478C1466.12 596.089 1451.06 593.182 1439 594.09C1430.32 594.744 1421.96 597.615 1413 598C1438.49 532.695 1433.71 438.817 1355 413.316C1343.93 409.728 1328.65 405.791 1317 407.184C1292.4 410.127 1270.03 416.446 1248 428C1244.75 390.72 1202.89 365.469 1168 373.595C1142.58 379.515 1124.81 395.011 1108 414C1095.55 370.481 1041.13 353.66 1010.17 388C981.91 419.35 979 462.114 979 502C969.111 500.164 956.62 501.156 947 504C949.948 494.551 947.982 487.445 947.104 478C945.231 457.851 942.823 439.38 936.285 420C901.07 315.626 788.78 254.622 684 290C680.243 277.321 667.608 266.337 656.996 259.167C601.449 221.631 537.967 268.812 503.541 313.171C426.983 411.817 388 545.231 388 669C388 715.224 391.253 773.721 419 813z"/>
<path style="fill:#e9c9a0; stroke:none;" d="M740 392L740 391C697.611 391 657.207 398.652 619 417.753C608.387 423.059 596.098 428.529 587.093 436.379C572.69 448.934 562.106 473.271 553.22 490C524.156 544.715 510.81 598.919 503.285 660C498.782 696.549 496.573 734.246 499.09 771C499.679 779.613 504.701 804.003 494.895 808.777C485.114 813.539 480.154 788.922 478.63 783C470.67 752.083 463.154 718.899 460.975 687C459.154 660.326 455.864 633.841 457.039 607C460.075 537.685 474.975 470.342 508.309 409C525.65 377.087 550.404 344.391 582 325.604C596.584 316.933 618.709 311.056 630.147 328.004C636.291 337.108 635 349.039 631.961 359C630.303 364.433 626.798 369.216 628 375C648.757 367.977 668.382 359.412 690 355.004C747.695 343.239 811.635 352.391 852.83 398C920.677 473.116 893.951 593.333 845.575 671C835.673 686.898 823.953 701.472 811.039 715C794.829 731.981 777.844 747.762 759 761.873C751.745 767.306 743.294 775.043 734 776C735.336 765.992 745.82 756.789 751.765 749C764.335 732.533 775.377 714.648 786.189 697C796.213 680.639 806.263 663.973 815.219 647C821.323 635.433 826.779 623.267 831.319 611C856.553 542.809 864.788 439.469 786 402.706C772.254 396.292 756.227 392.042 741 392L741 393C755.635 393.121 770.671 397.832 784 403.579C859.426 436.105 856.458 535.953 833.308 601C828.826 613.592 823.731 626.036 817.753 638C809.687 654.143 800.493 669.621 791.061 685C776.668 708.468 762.814 732.281 745.79 754C743.3 757.177 727.713 773.219 735.244 776.378C739.153 778.019 743.932 774.278 747 772.308C755.721 766.708 763.926 760.485 772 753.999C806.427 726.346 837.758 692.708 857.752 653C899.848 569.401 921.633 441.268 833 377.71C820.578 368.802 806.609 361.677 792 357.029C770.734 350.263 748.206 348.471 726 349.015C692.276 349.841 660.1 361.003 629 373C630.754 362.805 635.925 353.663 635.921 343C635.911 316.293 609.119 311.56 589 320.228C555.986 334.453 531.767 367.396 513.424 397C460.097 483.067 452.312 583.703 459.025 682C461.345 715.975 469.023 751.028 477.374 784C479.177 791.117 484.437 817.206 496.671 809.82C504.753 804.94 501.614 780.236 500.83 772C497.355 735.485 500.524 698.432 504.169 662C510.353 600.193 525.702 543.612 555.694 489C564.635 472.719 574.292 450.882 588.04 438.184C597.232 429.695 609.923 424.292 621 418.753C658.451 400.028 698.353 392 740 392z"/>
<path style="fill:#a2c477; stroke:none;" d="M734 776C748.149 775.264 763.57 759.591 774 750.919C806.674 723.752 834.983 692.493 855.309 655C902.034 568.809 920.595 428.27 820 370.72C806.7 363.111 792.013 357.408 777 354.211C754.402 349.398 731.826 349.387 709 351.95C681.194 355.072 653.351 363.141 628 375C626.581 358.906 640.322 346.065 631.326 329.001C622.701 312.638 600.848 315.755 587 322.32C555.956 337.038 532.314 368.431 514.811 397C457.933 489.838 446.632 607.271 464.247 713C468.247 737.01 472.664 761.449 478.884 785C480.602 791.501 482.927 805.209 489.213 808.817C502.57 816.484 500.009 787.768 500 782C499.944 746.922 498.474 713.124 501.83 678C508.237 610.952 521.379 550.944 553.22 491C562.457 473.611 574.376 445.405 591.001 434.232C654.095 391.832 768.381 362.186 823.335 433C829.739 441.252 834.756 450.311 838.6 460C844.212 474.145 847.87 489.8 848.911 505C850.415 526.964 848.185 549.611 843.116 571C830.671 623.508 803.276 670.002 774.308 715C765.723 728.335 756.794 741.435 747.119 754C742.057 760.574 734.58 767.352 734 776z"/>
<path style="fill:#e9c9a0; stroke:none;" d="M723 455L687 464C685.126 458.087 684.65 452.124 683.841 446C682.608 436.657 671.978 422.133 662.969 434.189C654.144 446 661.394 470.366 649.941 479.363C641.636 485.887 630.888 489.908 622 495.695C606.289 505.926 592.161 517.685 579.004 531C570.726 539.378 559.006 552.416 559.031 565C559.064 581.764 574.832 568.813 581 564.13C596.643 552.255 613.533 541.274 631 532.259C634.907 530.242 645.095 523.047 649.566 525.238C653.102 526.969 652 533.856 652 537C652.001 548.359 652.951 559.753 654.579 571C656.717 585.758 659.324 600.943 664.436 615C667.033 622.142 674.728 631.425 674.725 639C674.724 644.491 669.358 650.564 666.576 655C657.956 668.74 647.426 681.535 637.081 694C626.345 706.936 615.619 719.261 603.005 730.424C600.108 732.988 593.75 739.632 600.148 742.396C606.69 745.222 618.77 739.525 625 737.308C650.146 728.358 672.59 712.273 689.725 692C695.236 685.481 700.693 672.09 708.184 668.042C712.815 665.54 719.967 669.051 725 668.791C737.432 668.147 750.175 663.055 758.815 653.91C767.956 644.234 773.661 628.216 773.985 615C774.099 610.394 775.231 601.474 768.956 600.376C764.061 599.52 759.369 605.145 756 607.916C748.814 613.826 739.363 620.54 730 622C733.521 598.162 744.478 575.873 740.561 551C738.883 540.345 730.432 526.511 718.015 534.728C702.719 544.85 710.168 569.765 698 581C695.746 564.259 691.642 547.883 689.834 531C689.301 526.023 686.458 515.681 689.042 511.228C691.857 506.379 703.919 505.293 709 504.211C723.997 501.017 742.853 501.745 755.999 493.164C772.196 482.592 768.876 465.151 752 457.324C745.924 454.506 739.388 454.525 733 453C737.816 449.458 742.741 446.142 746.03 441C748.247 437.533 749.659 433.138 749.659 429C749.659 425.224 748.472 421.226 746.517 418.015C730.394 391.533 683.868 420.013 704.34 442.895C709.288 448.425 717.281 450.371 723 455z"/>
<path style="fill:#d89344; stroke:none;" d="M720 410.529C690.6 417.278 703.915 456.372 730 450.47C757.603 444.224 747.884 404.128 720 410.529z"/>
<path style="fill:#e9c9a0; stroke:none;" d="M1028 595C1027.99 609.621 1024.29 624.747 1021.21 639C1005.41 712.215 956.012 781.002 886 811.576C859.085 823.329 832.224 836.09 803 840.92C798.743 841.623 776.519 841.414 779.256 848.911C780.655 852.743 786.539 854.479 790 855.644C800.813 859.284 811.781 860.101 823 861.17C870.424 865.686 915.787 848.253 953 819.424C1008.58 776.369 1045.43 717.156 1058.39 648C1064.74 614.096 1064.58 580.11 1067.83 546C1070.97 512.987 1066.85 478.956 1065.99 446C1065.8 438.969 1065.24 413.973 1052.1 421.18C1043.38 425.965 1042.73 444.33 1041.93 453C1040.03 473.345 1038.14 493.685 1036.17 514C1035.46 521.356 1036.89 534.382 1032.97 540.772C1028.99 547.263 1006.28 546.52 999 548.004C969.492 554.021 918.384 568.389 917.26 606C916.687 625.182 934.081 635.08 951 634.999C982.021 634.852 1004.1 610.81 1028 595z"/>
<path style="fill:#d89344; stroke:none;" d="M1031 591C1030.94 679.267 976.094 763.618 901 806.573C874.497 821.733 843.72 834.323 814 841.346C803.076 843.927 791.97 843.963 781 846C782.668 851.331 788.018 852.482 793 853.848C804.126 856.898 815.439 858.995 827 859C875.268 859.019 915.424 845.334 954 815.765C1037 752.14 1065 652.542 1065 552C1065 518.259 1064.16 484.692 1064 451C1063.98 445.711 1064.4 418.675 1054.04 423.238C1045.11 427.175 1045.04 445.82 1044.17 454C1041.88 475.303 1040.8 496.767 1038.29 518C1037.43 525.203 1038.91 536.519 1034.99 542.852C1030.64 549.86 1009.55 548.38 1002 549.804C974.23 555.037 924.341 567.723 920.184 602C917.976 620.208 932.399 632.97 950 632.971C971.539 632.972 992.505 619.34 1009 606.87C1015.84 601.703 1022.59 593.187 1031 591z"/>
<path style="fill:#e9c9a0; stroke:none;" d="M1188 671C1218.11 667.112 1249.73 657.903 1278 647L1278 646C1255.81 651.258 1234.46 660.007 1212 664.789C1206.28 666.007 1191.52 666.314 1188.03 671.433C1184.74 676.248 1188.56 686.806 1189.6 692C1193.47 711.223 1198.13 730.388 1204.33 749C1229 823.002 1277.03 919.032 1364 929.714C1397.89 933.876 1421.14 903.169 1432.05 874C1442.18 846.905 1438.61 815.547 1431.52 788C1426.83 769.784 1420.08 756.524 1422.17 737C1424.69 713.483 1443.98 682.997 1469 679.301C1511.86 672.971 1527.54 734.511 1523.71 767C1515.27 838.824 1490.64 920.867 1414 947.655C1316.6 981.698 1237.92 887.295 1202.86 808C1196.51 793.628 1190.97 778.902 1186 764C1179.69 745.062 1174.54 725.571 1170.6 706C1168.97 697.914 1169.23 684.174 1164.82 677.243C1161.86 672.582 1153.42 675.514 1149 675.925C1137.02 677.039 1106.54 682.849 1101.89 666.996C1099.58 659.108 1107.42 653.868 1114 652.24C1126.95 649.035 1138.94 650.871 1151 644.138C1154.76 642.039 1159.93 639.775 1160.49 634.96C1162.25 619.703 1159 602.495 1159 587C1159 552.017 1161.06 516.286 1168.58 482C1172.19 465.517 1176.9 438.946 1192.09 428.697C1195.94 426.1 1200.36 428.149 1200.01 433.004C1199.41 441.448 1195.15 450.73 1193.13 459C1183.73 497.499 1179 537.414 1179 577C1179 588.701 1179.98 600.36 1180 612C1180.01 615.106 1178.81 623.16 1184.06 622.338C1194.68 620.674 1209.49 602.694 1216.29 595C1240.4 567.701 1256.6 538.633 1274.14 507C1284.7 487.945 1298.7 465.762 1324 468.171C1372.83 472.82 1387.37 530.827 1371.55 570C1356.3 607.752 1316.11 632.443 1279 645L1279 646C1323.09 635.552 1368.38 599.565 1377.55 554C1385.34 515.281 1362.6 459.946 1315 467.439C1285.55 472.074 1273.6 503.378 1261.75 527C1248.44 553.539 1231.05 578.051 1210 598.999C1201.82 607.141 1192.4 616.819 1182 622C1178.46 602.918 1180.12 582.253 1180.96 563C1182.23 533.978 1184.65 505.57 1190.4 477C1192.83 464.917 1196.06 452.89 1199.29 441C1200.44 436.772 1203.98 430.551 1199.57 427.013C1194.24 422.74 1188.9 429.077 1185.9 433.001C1177.92 443.434 1173.08 456.324 1169.9 469C1160.86 504.949 1158 543.077 1158 580C1158 591.536 1157.08 603.514 1158.17 615C1158.74 620.957 1160.94 630.216 1158.51 635.907C1152.5 649.998 1127.98 648.406 1116 650.435C1108.52 651.703 1100.52 655.215 1100.15 664C1099.3 684.033 1135.93 678.458 1148 677.166C1152.72 676.66 1160.81 674.116 1163.82 679.148C1167.59 685.456 1167.66 697.712 1168.92 705C1171.47 719.733 1175.45 734.672 1179.72 749C1195.64 802.413 1219.44 855.296 1257.17 897C1295.47 939.331 1350.53 967.203 1408 951.255C1482.01 930.716 1519.25 847.522 1524.09 777C1525.79 752.258 1524.33 725.526 1512.74 703C1493.8 666.18 1449.55 673.823 1431.31 707C1422.06 723.832 1417.66 743.928 1421.31 763C1424.11 777.64 1431.16 791.077 1433.75 806C1440.73 846.207 1434.66 881.492 1405.83 911.961C1400.44 917.654 1392.64 925.813 1385 928.196C1355.7 937.336 1315.77 914.286 1295 895.949C1247.62 854.114 1219.07 794.866 1201.58 735C1195.72 714.96 1188.17 692.008 1188 671z"/>
<path style="fill:#a2c477; stroke:none;" d="M1194.99 426.881C1190.11 427.551 1186.81 433.304 1184.36 437C1176.75 448.464 1172.3 462.591 1169.6 476C1162.77 509.898 1159 544.434 1159 579C1159 590.208 1158.11 601.841 1159.17 613C1159.8 619.642 1161.96 629.441 1159.94 635.907C1158.66 640.003 1153.46 642.21 1150 644.138C1138.54 650.53 1127.44 649.312 1115 651.808C1107.51 653.311 1099.43 658.024 1101.57 666.996C1105.4 683.013 1137.28 677.026 1149 676C1153.88 675.573 1161.94 672.643 1164.86 678.124C1168.85 685.6 1168.73 697.671 1170.4 706C1174.04 724.191 1178.7 742.328 1184.34 760C1189.13 774.975 1194.91 789.441 1200.8 804C1231.67 880.313 1304.14 971.234 1397 952.551C1479.24 936.004 1517.9 848.711 1523.09 773C1525.04 744.576 1522.26 701.387 1495 684.468C1460.73 663.197 1425.64 703.648 1422.17 736C1419.88 757.451 1427.95 771.845 1432.2 792C1441.65 836.893 1440.29 878.67 1406 913C1390.29 928.725 1378.73 932.066 1357 928.414C1344.51 926.315 1332.01 921.869 1321 915.573C1257.68 879.351 1220.19 804.899 1200.86 737C1196.35 721.148 1192.41 705.169 1189.2 689C1188.27 684.331 1185.08 675.524 1188.6 671.433C1192.15 667.319 1201.95 667.01 1207 666C1221.74 663.053 1236.64 659.419 1251 654.974C1309.55 636.856 1378.11 604.829 1378 534C1377.98 521.098 1374.75 507.063 1367.94 496C1352.18 470.419 1315.2 456.984 1291.09 480.174C1278.79 492.007 1271.96 510.098 1264.22 525C1253.7 545.263 1241.6 564.261 1227.2 582C1217.65 593.754 1206.61 604.39 1195 614.08C1192.47 616.189 1185.29 624.182 1181.6 621.263C1179.07 619.256 1180 613.802 1180 611C1179.98 601.998 1179 593.048 1179 584C1179 545.921 1181.37 506.044 1191 469C1193.95 457.666 1197.07 446.337 1199.94 435C1200.88 431.331 1199.96 426.198 1194.99 426.881z"/>
<path style="fill:#d89344; stroke:none;" d="M599 739C608.228 741.727 618.436 737.186 627 733.796C649.612 724.846 670.826 710.87 686.385 692C692.654 684.396 698.461 671.466 706.326 665.746C711.015 662.336 719.55 666.092 725 665.985C736.288 665.762 746.831 661.831 754.996 653.96C765.932 643.417 775.528 620.768 770.682 605.232C769.03 599.935 763.289 604.974 761 606.87C753.817 612.823 746.245 617.519 738 621.833C735.83 622.968 730.674 626.459 728.333 624.073C724.729 620.402 732.162 604.464 733.421 600C738.01 583.716 741.928 562.565 736.956 546C734.411 537.52 725.226 530.521 717.519 538.344C711.5 544.454 710 554.057 707.849 562C705.552 570.479 703.163 578.799 700 587L698 587C691.185 568.715 688.301 547.41 686.975 528C686.609 522.641 683.699 512.997 687.603 508.43C691.016 504.438 700.113 503.67 705 502.576C719.617 499.306 737.555 499.917 751 493.19C760.595 488.389 769.486 478.4 761.581 468.004C748.19 450.391 724.104 456.339 706 461.116C701.262 462.366 690.845 467.662 686.228 465.671C678.844 462.487 685.109 424.707 668.043 433.194C651.613 441.366 665.335 472.84 649.995 482.532C623.493 499.278 594.62 513.536 574.888 539C569.565 545.87 558.58 558.232 561.438 567.89C564.257 577.418 579.415 562.562 583 559.873C598.776 548.042 615.345 537.429 633 528.602C637.094 526.555 647.076 519.552 651.682 522.121C655.414 524.203 653.836 531.495 654.17 535C655.438 548.331 655.459 561.7 657.427 575C659.617 589.794 662.979 605.113 668.604 619C670.953 624.797 678.34 633.704 677.474 640C676.223 649.088 665.726 660.787 660.37 668C648.209 684.378 635.829 701.057 621.911 716C614.882 723.546 604.042 730.048 599 739z"/>
<path style="fill:#e9c9a0; stroke:none;" d="M598 578.464C575.42 582.528 557.525 601.82 553.004 624C551.166 633.015 551.197 645.196 559.105 651.566C563.668 655.242 570.567 653.718 576 655C581.365 656.266 587.53 656.569 593 655.675C613.682 652.296 632.109 635.609 636.334 615C641.007 592.206 619.743 574.551 598 578.464z"/>
<path style="fill:#d89344; stroke:none;" d="M596 581.464C575.336 585.19 559.023 604.982 555.261 625C553.816 632.688 553.395 643.8 560.214 649.347C564.721 653.013 570.7 651.536 576 652.464C580.83 653.309 585.054 654.338 590 653.561C607.565 650.803 625.571 639.247 631.907 622C641.127 596.9 621.194 576.922 596 581.464z"/>
<path style="fill:#e9c9a0; stroke:none;" d="M1450.67 594.333L1451.33 594.667L1450.67 594.333M578 629C585.078 628.633 592.834 624.799 597.891 619.815C599.684 618.048 602.885 614.309 600.928 611.619C598.923 608.862 594.132 611.663 592 612.796C585.512 616.245 579.109 621.407 578 629z"/>
<path style="fill:#fffefd; stroke:none;" d="M583 625C589.805 623.383 595.244 619.98 599 614C592.04 613.611 585.843 618.92 583 625z"/>
<path style="fill:#e9c9a0; stroke:none;" d="M634.999 648.668C628.934 650.246 623.29 655.693 618 658.939C604.097 667.47 589.391 677.83 574 683.308C566.577 685.95 549.74 685.072 544.858 691.394C539.988 697.701 545.648 706.127 551.015 709.751C561.513 716.84 576.143 716.957 588 714.101C608.122 709.254 624.341 696.532 633.63 678C635.947 673.376 649.121 644.995 634.999 648.668z"/>
<path style="fill:#d89344; stroke:none;" d="M635.941 650.85C630.096 651.989 624.021 658.113 619 661.189C605.393 669.526 591.02 679.834 576 685.305C568.887 687.896 552.475 687.109 547.529 692.434C543.025 697.282 547.843 704.293 552.015 707.362C560.345 713.489 573.104 714.285 583 712.536C603.004 709.002 619.504 697.59 629.573 680C633.49 673.157 637.115 665.673 639.075 658C639.784 655.225 640.457 649.971 635.941 650.85z"/>
<path style="fill:#e9c9a0; stroke:none;" d="M681 736.464C641.839 743.449 602.184 766.655 567 784.247C559.596 787.949 548.787 791.797 543.318 798.185C537.916 804.494 542.765 812.294 550 813.659C561.866 815.897 578.12 807.316 589 803.192C611.859 794.527 634.808 785.73 658 778C669.77 774.077 686.311 770.97 695.699 762.471C709.148 750.295 697.078 733.597 681 736.464z"/>
<path style="fill:#d89344; stroke:none;" d="M679 739.464C642.322 746.066 604.039 768.234 571 784.753C563.049 788.729 552.843 792.581 546.228 798.61C541.844 802.606 543.205 808.926 549.015 810.566C560.631 813.846 576.468 805.341 587 801.203C609.286 792.447 632.117 783.48 655 776.435C667.186 772.683 685.562 768.915 694.891 759.812C707.548 747.461 691.302 737.25 679 739.464z"/>
<path style="fill:#e9c9a0; stroke:none;" d="M998 961C980.545 985.779 952.46 1005.64 931 1027C926.526 1031.45 919.853 1036.27 917.029 1042C915.262 1045.58 916.373 1050.6 921.019 1050.72C929.353 1050.93 938.685 1037.32 944 1032C959.33 1016.67 974.747 1000.62 991 986.286C995.237 982.548 1002.36 972.495 1008 971.616C1014.24 970.644 1022.68 982.928 1026.42 986.83C1042.18 1003.24 1058.9 1018.9 1075 1035C1079.16 1039.16 1092.35 1057.15 1099.4 1050.26C1106.22 1043.58 1087.94 1029.94 1084 1026C1068.16 1010.16 1051.84 994.84 1036 979C1031.85 974.847 1020.55 967.099 1019.77 961.039C1019.38 957.975 1023.35 955.099 1025.29 953.246C1031.52 947.284 1037.47 940.75 1044 935.124C1050.5 929.519 1061.74 934.817 1070 933.816C1081.27 932.449 1092.15 924.73 1100 916.985C1105.62 911.431 1112.16 903.791 1114.36 896C1117.36 885.364 1107.51 884.264 1100 887C1106.4 870.391 1098.43 868.663 1084 872C1084.94 868.702 1086.69 865.466 1086.88 862C1087.95 842.347 1062.14 860.899 1057.01 866.015C1047.5 875.518 1040.37 887.589 1038.43 901C1037.25 909.161 1041.95 919.58 1035.94 925.961C1029.7 932.578 1022.52 938.613 1016 944.995C1013.98 946.976 1011.24 950.461 1008 949.654C1001.37 948.001 993.735 936.735 989 932C973.821 916.821 958.18 902.18 943 887C937.868 881.868 926.582 865.525 918.055 868.758C905.151 873.65 920.479 902.348 923.862 910C929.52 922.797 936.218 936.517 947.001 945.79C959.424 956.473 981.972 960.867 998 961z"/>
<path style="fill:#d89344; stroke:none;" d="M1094 893C1095.96 888.798 1106.84 873.327 1096.94 871.408C1091.11 870.278 1085.86 875.351 1080 875C1081.51 870.848 1084.47 866.474 1084.73 862.001C1085.07 856.249 1079.8 854.286 1075 855.854C1067.07 858.442 1059.58 865.83 1054.3 872C1047.65 879.768 1040.94 890.545 1040.09 901C1039.61 906.995 1042.8 916.717 1040.79 922C1038.24 928.694 1028.99 935.01 1024 940C1020.32 943.676 1015.28 950.983 1010 952.249C1003.91 953.709 994.82 940.82 991 937C974.16 920.16 956.841 903.814 940 887C936.317 883.323 920.156 862.658 915.604 874.059C912.802 881.077 918.648 891.621 921.2 898C929.403 918.507 938.823 942.859 961 951.536C970.045 955.075 980.414 957.032 990 958.282C992.188 958.567 998.855 958.386 999.369 961.318C1000.08 965.392 991.531 971.469 989 974C977.159 985.841 964.863 997.174 953 1009C943.478 1018.49 933.431 1027.39 924.005 1037C922.253 1038.78 914.672 1046.33 920.319 1048.29C926.886 1050.56 938.952 1034.05 943 1030C958.66 1014.34 975 999.279 991 983.961C994.83 980.294 1002.9 968.485 1008.58 968.485C1014.13 968.485 1022.18 980.349 1026 983.911C1042.74 999.5 1058.82 1015.82 1075 1032C1077.98 1034.98 1093.35 1054.15 1097.95 1048.24C1102.04 1043 1084.28 1029.28 1081 1026C1065.82 1010.82 1050.42 995.888 1035 980.961C1030.19 976.31 1019.16 968.652 1017.5 962C1016.68 958.729 1019.99 956.062 1022.01 954C1028.24 947.611 1034.52 941.186 1041 935.04C1050.72 925.814 1065.41 934.462 1078 929.536C1090.72 924.56 1101.32 914.303 1108.66 903C1111.09 899.246 1116.56 889.313 1108.89 887.478C1103.67 886.228 1098.81 891.752 1094 893z"/>
<path style="fill:#e9c9a0; stroke:none;" d="M1318 1261C1315.51 1241.7 1310.14 1222.42 1304 1204C1302.46 1199.37 1295.42 1186.78 1297.36 1182.32C1298.92 1178.7 1308.61 1179.09 1312 1178.33C1322.49 1175.99 1333.1 1171.72 1343 1167.58C1348.42 1165.3 1353.48 1162.02 1357.53 1168.05C1360.79 1172.89 1369.85 1188.07 1365.5 1193.62C1360.16 1200.42 1347.57 1203.7 1340.04 1207.44C1336.32 1209.29 1333.74 1212.89 1336.61 1216.86C1341.75 1223.97 1356.69 1221.01 1364 1220C1367.29 1219.55 1372.51 1217.64 1375.14 1220.52C1377.99 1223.63 1377.85 1230.05 1378.42 1234C1380.92 1251.46 1372.46 1265.25 1370.84 1282C1369.72 1293.67 1378.64 1301.14 1390 1298.24C1421.31 1290.23 1419.19 1256.08 1413.57 1231C1412.31 1225.34 1405.49 1212.55 1408.12 1207.21C1409.91 1203.59 1415.78 1201.62 1419 1199.48C1426.04 1194.82 1433.15 1189.84 1438.24 1183C1445.53 1173.2 1448.09 1150.18 1429 1154.53C1414.85 1157.75 1405.02 1171.31 1392 1177C1389.14 1170.95 1385.05 1165.41 1381.12 1160C1379.83 1158.23 1376.76 1155.23 1378.03 1152.8C1381.05 1147.05 1395.46 1143.68 1401 1140.57C1421.92 1128.85 1442.87 1117.42 1463 1104.34C1466.92 1101.79 1483.17 1087.76 1487.3 1090.75C1489.94 1092.65 1491.23 1098.1 1492.4 1101C1493.88 1104.69 1496.77 1110.49 1495.79 1114.57C1493.93 1122.33 1476.16 1130.01 1470 1134.63C1464.73 1138.57 1455.66 1143.94 1458.61 1151.98C1463.85 1166.28 1491.27 1150.85 1501 1150C1500.99 1164.53 1492.7 1184.16 1498.15 1198C1507.07 1220.66 1534.85 1199.93 1540.05 1186C1544.11 1175.12 1542.25 1161.1 1540 1150C1539.09 1145.51 1535.11 1137.45 1537.12 1133.1C1539.19 1128.64 1546.12 1126.38 1550 1123.79C1557.44 1118.83 1564.91 1112.5 1569.9 1105C1578.5 1092.05 1577.55 1063 1555 1069.8C1540.74 1074.1 1532.92 1090.3 1520 1097C1517.81 1090.39 1506.58 1080.17 1508.56 1073.01C1509.6 1069.24 1514.32 1066.53 1517 1063.96C1523.32 1057.92 1529.83 1051.75 1535.39 1045C1560.01 1015.09 1574.15 974.166 1548.39 940.004C1536.61 924.387 1514.63 928.004 1503.38 942.001C1487.59 961.637 1488.94 987.81 1477.68 1009C1459.15 1043.83 1423.13 1073.24 1392 1096.37C1368.92 1113.52 1344.75 1129.37 1319 1142.25C1308.94 1147.28 1297.96 1153.91 1287 1156.61C1281.17 1158.04 1278.75 1153.85 1274.91 1150.29C1266.43 1142.41 1248.63 1131.36 1240.42 1146.02C1234.85 1155.95 1240.15 1168.36 1243.81 1178C1250.34 1195.19 1254.8 1213 1258.4 1231C1270.03 1289.17 1270.52 1349.33 1256.1 1407C1249.17 1434.73 1239.04 1461.48 1226.25 1487C1219.78 1499.9 1211.84 1515.09 1200.99 1524.81C1182.09 1541.74 1139.38 1535.45 1131.76 1565C1123.34 1597.67 1163.94 1612.34 1189 1609.83C1231.42 1605.59 1261.45 1568.6 1279.25 1533C1306.18 1479.14 1319.81 1418.82 1323.91 1359C1325.3 1338.74 1321.35 1317.94 1323.06 1298C1323.74 1290.11 1334.52 1286.87 1340 1282.38C1350.12 1274.09 1358.83 1263.05 1364 1251C1366.1 1246.11 1370.59 1237.27 1366.4 1232.32C1362.48 1227.7 1354.77 1232.4 1351 1234.99C1339.85 1242.67 1332.19 1258.25 1318 1261z"/>
<path style="fill:#d89344; stroke:none;" d="M1365 1233C1350.55 1233.75 1342.48 1247.99 1332 1256.11C1328.9 1258.51 1322.59 1264.96 1318.23 1262.86C1314.66 1261.15 1314.66 1255.33 1314 1252C1312.09 1242.29 1309.84 1232.59 1307.37 1223C1304.75 1212.82 1301.29 1202.83 1297.57 1193C1296.36 1189.78 1292.91 1184.67 1293.82 1181.15C1294.99 1176.57 1304.36 1177.06 1308 1176.39C1317.83 1174.57 1327.78 1170.94 1337 1167.14C1341.48 1165.29 1348.02 1160.99 1353 1161.53C1360.89 1162.38 1372.44 1186.88 1368.93 1193.9C1365.69 1200.37 1352.31 1204.81 1346 1207.58C1343.5 1208.67 1337.66 1210.28 1338.18 1213.97C1338.75 1218.08 1345.01 1217.96 1348 1218C1354.19 1218.07 1373.27 1213.73 1377.27 1218.32C1380.74 1222.3 1380.84 1230.98 1380.99 1236C1381.47 1252.86 1373.99 1266.85 1373.11 1283C1372.36 1296.68 1386.1 1298.34 1396 1293.67C1419.86 1282.41 1416.35 1251.01 1410.57 1230C1408.95 1224.08 1403.21 1213.04 1404.79 1207.04C1406.03 1202.32 1413.27 1200.11 1417 1197.77C1427.41 1191.24 1447.41 1176.91 1440.99 1162.04C1434.29 1146.52 1408.99 1169.19 1402 1174.14C1398.4 1176.69 1393.61 1180.9 1389.63 1176.73C1386.33 1173.26 1373.56 1157.54 1374.54 1153.1C1375.96 1146.73 1394.63 1141.05 1400 1138C1420.51 1126.36 1440.97 1115.05 1461 1102.58C1467.57 1098.48 1478.24 1087.7 1485.96 1087.02C1492.23 1086.47 1499.29 1109.71 1498.51 1114.99C1497.88 1119.23 1493.2 1121.51 1490 1123.67C1482.58 1128.68 1475.09 1133.76 1468 1139.24C1464.33 1142.07 1458.3 1146.5 1461.19 1151.87C1466.19 1161.13 1484.95 1151.29 1492 1149.12C1495.06 1148.17 1500.32 1145.35 1502.48 1149.18C1504.12 1152.09 1503.13 1157.79 1502.91 1161C1502.03 1173.79 1490.58 1209.01 1516 1204.67C1540.22 1200.53 1541.85 1172.07 1538.2 1153C1537.16 1147.61 1531.9 1137.22 1534.27 1132.1C1536.38 1127.57 1544 1124.68 1548 1122C1560.59 1113.55 1582.19 1094.4 1570.85 1077.04C1560.1 1060.59 1540.18 1083.18 1532 1090.96C1529.54 1093.3 1524.93 1098.78 1521.09 1098.23C1516.63 1097.6 1512.56 1088.42 1510.34 1085C1508.42 1082.04 1505.89 1078.58 1505.33 1075C1504.69 1070.87 1508.28 1068.41 1511 1065.95C1517.76 1059.86 1524.33 1053.92 1530.27 1047C1552.03 1021.62 1569.7 988.078 1553.74 955C1548.72 944.6 1542.74 933.498 1530 932.174C1514.31 930.545 1503.88 943.226 1497.78 956C1490.03 972.255 1488.63 990.745 1481.47 1007C1472.67 1027 1453.56 1046.08 1438 1060.96C1396.05 1101.08 1346.87 1133.05 1294 1156.69C1290.34 1158.32 1284.96 1160.73 1281 1158.93C1271.34 1154.54 1256.27 1130.41 1243.8 1145.22C1238.21 1151.87 1240.35 1160.5 1242.59 1168C1247.92 1185.79 1255.47 1202.65 1259.2 1221C1271.85 1283.28 1274.02 1346.02 1258.52 1408C1251.17 1437.41 1239.97 1466.23 1225.78 1493C1219.78 1504.31 1212.93 1518.27 1202.96 1526.62C1184.91 1541.75 1153.65 1538.1 1138.53 1557.04C1127.14 1571.32 1137.86 1591.26 1151 1599.9C1189.74 1625.35 1237.42 1590.51 1259.88 1560C1302.44 1502.19 1315.2 1425.63 1321.83 1356C1322.99 1343.8 1322.75 1330.22 1321.91 1318C1321.43 1311.02 1319.07 1301.88 1320.52 1295.02C1321.92 1288.4 1334.14 1284.08 1338.99 1279.87C1351.76 1268.75 1366.5 1250.96 1365 1233z"/>
<path style="fill:#e9c9a0; stroke:none;" d="M728 1059C729.667 1066 729.482 1073.17 732.066 1080C738.592 1097.26 754.715 1107.57 773 1107.99C782.958 1108.21 793.786 1105.91 803 1102.18C806.194 1100.88 811.104 1099.02 811.534 1095C812.222 1088.59 798.201 1088.18 794 1087.13C779.644 1083.54 758.188 1078.19 755.483 1061C754.327 1053.65 760.868 1050.95 765.536 1046.73C773.414 1039.61 779.786 1026.23 770.786 1017.21C768.894 1015.32 766.516 1013.98 764 1013.11C748.258 1007.63 727.438 1027.99 714 1034.75C674.526 1054.63 633.499 1072.13 590 1081C576.147 1083.82 562.027 1085.25 548 1084C541.92 1083.46 533.053 1081.63 529.582 1075.96C526.963 1071.67 531.741 1069 535 1067.26C543.837 1062.56 553.055 1058.7 562 1054.25C594.4 1038.1 629.94 1026.22 652.485 996C664.059 980.486 666.812 955.449 644 948.443C628.459 943.67 611.571 948.32 597 954.201C562.271 968.216 530.925 993.732 513.471 1027C505.503 1042.19 495.988 1067.4 504.124 1084C516.263 1108.77 543.66 1111.01 568 1111C626.07 1110.98 676.397 1080.49 728 1059z"/>
<path style="fill:#a2c477; stroke:none;" d="M729 1057C731.29 1063.28 730.435 1069.63 732.159 1076C735.852 1089.65 746.395 1100.7 760 1104.79C772.621 1108.58 786.69 1106.39 799 1102.33C802.29 1101.25 810.804 1099.07 810.079 1094.21C809.404 1089.7 795.623 1088.84 792 1087.85C778.389 1084.12 758.181 1078.91 754.529 1063C753.809 1059.86 753.693 1056.06 755.742 1053.38C758.892 1049.25 764.319 1046.98 767.787 1042.99C776.358 1033.12 776.376 1017.92 762 1013.79C754.666 1011.68 748.957 1015.89 743 1019.58C733.221 1025.63 723.12 1031.17 713 1036.63C672.115 1058.66 625.251 1077.69 579 1084.13C564.903 1086.09 538.687 1090.48 528.592 1076.9C525.53 1072.77 528.278 1069.63 532.005 1067.35C540.433 1062.2 550.145 1058.64 559 1054.25C590.996 1038.36 627.637 1026.67 650.1 997C662.192 981.03 666.381 955.764 642 949.159C626.935 945.078 609.849 950.062 596 956.001C562.021 970.57 530.268 995.397 513.756 1029C506.552 1043.66 497.498 1068.09 505.377 1084C517.738 1108.96 550.374 1112.23 575 1109.29C631.045 1102.58 678.63 1080.98 729 1057z"/>
<path style="fill:#e9c9a0; stroke:none;" d="M420 1000.43C387.638 1004.83 360.281 1028.45 351.428 1060C340.576 1098.68 369.99 1130.99 409 1125.84C441.675 1121.53 471.725 1090.46 475.714 1058C479.605 1026.33 452.71 995.971 420 1000.43z"/>
<path style="fill:#d89344; stroke:none;" d="M417 1003.44C387.144 1008.1 360.289 1032.42 353.5 1062C345.536 1096.7 370.209 1128.84 407 1123.57C438.458 1119.06 466.861 1092.53 472.535 1061C478.587 1027.38 451.021 998.125 417 1003.44z"/>
<path style="fill:#e9c9a0; stroke:none;" d="M426.996 1044.74C414.178 1044.69 401.929 1056.08 395.362 1066C392.743 1069.96 386.995 1082.22 396.019 1082.68C408.702 1083.32 421.979 1070.39 428.56 1061C432.021 1056.06 437.617 1044.78 426.996 1044.74M1286 1045.42C1273.11 1047.14 1259.79 1049.68 1250.04 1059.09C1237.29 1071.4 1235.09 1095.81 1253.01 1105C1268.18 1112.77 1292.9 1103.19 1309 1102.09C1321.44 1101.24 1334.92 1105.23 1347 1103.63C1366.06 1101.11 1355.35 1078.6 1347.81 1070C1333.31 1053.46 1308.2 1042.47 1286 1045.42z"/>
<path style="fill:#fffefd; stroke:none;" d="M423.999 1047.52C413.116 1049.65 403.733 1058.05 397.75 1067C395.508 1070.35 389.909 1080.08 398.019 1079.76C408.495 1079.34 420.147 1069.01 425.791 1061C429.014 1056.43 434.697 1045.43 423.999 1047.52z"/>
<path style="fill:#d89344; stroke:none;" d="M1281 1048.43C1270.03 1050 1258.02 1053.59 1250.33 1062.09C1239.89 1073.63 1239.26 1095.62 1255 1103.08C1269.23 1109.83 1290.11 1101.11 1305 1100.09C1318.78 1099.14 1334.66 1103.21 1348 1100.77C1365.6 1097.55 1348.45 1074.3 1342.57 1068.29C1327.02 1052.36 1302.83 1045.3 1281 1048.43z"/>
<path style="fill:#e9c9a0; stroke:none;" d="M1041 1334C1044.09 1355.68 1034.1 1382.13 1028.87 1403C1016.81 1451.2 1003.91 1499.74 985.55 1546C974.682 1573.39 946.897 1603.99 956.043 1635C965.147 1665.87 1000.15 1680.02 1028 1664.69C1045.13 1655.26 1056.26 1637.99 1064.75 1621C1086.47 1577.57 1088.85 1526.57 1090.01 1479C1090.53 1458.08 1091.88 1437 1090.96 1416C1090.07 1395.57 1091.11 1374.3 1088.71 1354C1087.9 1347.11 1084.01 1330.26 1087.12 1324.15C1091.07 1316.36 1116.49 1319 1124 1319C1155.89 1319 1215.42 1314.06 1210.83 1268C1206.37 1223.21 1147.77 1225.34 1116 1232.88C1106.79 1235.07 1097.79 1237.95 1089 1241.45C1086.58 1242.41 1081.87 1245.52 1079.84 1242.47C1077.05 1238.28 1077.38 1229.89 1076.93 1225C1075.9 1213.95 1074.16 1203.01 1072.84 1192C1068.94 1159.39 1063.04 1123.41 1050.28 1093C1044.91 1080.2 1035.84 1051.16 1017 1055.4C998.5 1059.56 1002.52 1093.46 1003.83 1107C1007.56 1145.52 1016.52 1183.15 1028.34 1220C1031.66 1230.35 1035.05 1240.76 1038.69 1251C1039.99 1254.64 1043.35 1260.03 1041.79 1263.96C1038.3 1272.72 1020.18 1281.07 1013 1287.28C992.628 1304.91 971.01 1324.88 956.811 1348C951.732 1356.27 932.593 1380.54 951.001 1385.57C962.391 1388.68 972.285 1375.75 980 1369.42C997.774 1354.86 1018.62 1340.4 1041 1334z"/>
<path style="fill:#d89344; stroke:none;" d="M1019 1057.64C1000.73 1059.19 1005.02 1095.9 1006.17 1108C1009.94 1147.58 1021.16 1184.85 1031.64 1223C1034.31 1232.74 1037.9 1242.6 1041.6 1252C1042.99 1255.53 1046.01 1261.09 1044.65 1264.96C1041.88 1272.77 1024.48 1281 1018 1286.2C995.706 1304.07 974.999 1325.38 958.887 1349C954.747 1355.07 944.39 1368.48 945.488 1376C946.85 1385.32 957.097 1384.62 963 1380.56C982.244 1367.31 997.766 1351.37 1019 1340.75C1023.48 1338.51 1040.32 1327.86 1043.4 1335.1C1045.74 1340.61 1042.73 1350.36 1041.6 1356C1038.46 1371.75 1034.91 1387.32 1031.42 1403C1020.87 1450.53 1006.64 1498.8 988.551 1544C980.044 1565.25 967.11 1584.72 959.066 1606C947.598 1636.34 973.641 1669.37 1005 1669C1036.65 1668.62 1059.3 1633.72 1068.33 1607C1084.34 1559.68 1086.8 1512.48 1088.01 1463C1088.53 1442.08 1089.82 1419.95 1087.83 1399C1086.19 1381.76 1087.74 1364.21 1085.71 1347C1084.98 1340.77 1081.82 1327.71 1085.03 1322.13C1089.48 1314.39 1107.49 1317.56 1115 1316.58C1145.55 1312.56 1186.57 1321.67 1204.22 1288C1207.2 1282.3 1209.45 1275.52 1208.82 1269C1204.66 1225.39 1145.65 1227.05 1115 1235.71C1105.86 1238.29 1096.86 1240.98 1088 1244.45C1084.95 1245.64 1080.51 1248.19 1078.01 1244.68C1071.46 1235.48 1073.74 1214.04 1071.92 1203C1066.11 1167.82 1061.56 1132.93 1050 1099C1045.67 1086.29 1036.35 1056.17 1019 1057.64z"/>
<path style="fill:#e9c9a0; stroke:none;" d="M602 1203C585.431 1231.7 563.979 1254.82 555.478 1288C552.742 1298.68 551.331 1309.98 552.089 1321C555.656 1372.8 605.635 1392.15 651 1385.71C723.352 1375.46 803.36 1306.74 797.911 1229C797.581 1224.31 794.091 1201.16 786.133 1204.26C781.018 1206.25 782.24 1216.69 781.561 1221C779.223 1235.82 771.305 1250 764.231 1263C741.078 1305.55 697.616 1340.36 650 1351.11C626.399 1356.44 595.256 1352.69 585.468 1327C578.519 1308.76 586.157 1287.72 593.694 1271C611.992 1230.41 643.396 1188.77 677 1159.58C686.956 1150.93 697.241 1139.91 703.19 1128C705.842 1122.69 707.285 1115.6 700.945 1112.18C695.785 1109.4 689.92 1112.59 685 1114.3C673.517 1118.31 661.618 1121.42 650 1125.03C614.554 1136.04 572.86 1143.62 536 1136.74C517.469 1133.28 491.954 1112.6 474.301 1128.53C446.175 1153.91 473.27 1204.84 502 1215.3C525.886 1224 552.371 1219.3 576 1211.97C584.688 1209.28 593.022 1204.54 602 1203z"/>
<path style="fill:#d89344; stroke:none;" d="M608 1198C602.853 1209.93 592.644 1220.25 585.344 1231C573.741 1248.08 564.104 1267.11 558.427 1287C552.917 1306.31 552.629 1329.8 561.981 1348C576.065 1375.41 609.503 1387.64 639 1384.83C694.162 1379.58 744.066 1345.62 775.576 1301C792.043 1277.68 806.359 1232.01 788 1206C781.951 1211.92 781.874 1230.39 778.396 1239C769.281 1261.57 756.797 1281.76 740.714 1300C726.408 1316.23 707.289 1330.05 688 1339.75C666.304 1350.67 641.399 1358.52 617 1354.56C597.758 1351.44 581.246 1336.23 581.004 1316C580.919 1308.89 580.865 1301.97 582.425 1295C593.132 1247.14 630.657 1207.09 661.579 1171C672.973 1157.7 687.113 1147.53 697.279 1133C700.535 1128.35 706.633 1119.38 699.852 1114.78C695.704 1111.97 690.098 1115.29 686 1116.65C674.48 1120.47 662.674 1123.94 651 1127.29C617.196 1137 577.211 1146.56 542 1140.39C524.132 1137.25 494.743 1116.54 478.04 1128.8C453.882 1146.53 469.613 1189.46 488 1204.54C502.384 1216.33 521.14 1217.74 539 1216.96C555.436 1216.24 571.659 1210.79 587 1205.31C593.987 1202.81 600.525 1198.66 608 1198z"/>
<path style="fill:#e9c9a0; stroke:none;" d="M1581 1113.64C1571.15 1116.48 1562.89 1127.9 1556.02 1135C1553.09 1138.02 1549.72 1141.42 1550.27 1146C1551.54 1156.46 1575.36 1156.53 1583 1154.36C1593.14 1151.48 1600.61 1142.53 1600.96 1132C1601.32 1120.92 1592.96 1110.19 1581 1113.64z"/>
<path style="fill:#d89344; stroke:none;" d="M1581 1116.65C1571.5 1119.51 1565.7 1129.34 1559 1135.91C1556.31 1138.55 1551.9 1141.62 1552.57 1145.96C1553.69 1153.31 1576.41 1153.62 1582 1151.96C1590.96 1149.3 1597.52 1142.47 1598.68 1133C1599.96 1122.64 1591.62 1113.45 1581 1116.65z"/>
<path style="fill:#e9c9a0; stroke:none;" d="M878 1475C880.849 1491.06 875.954 1511.14 872.8 1527C863.675 1572.89 845.658 1618.14 821.189 1658C809.099 1677.69 782.752 1699.27 780.174 1723C776.325 1758.41 816.898 1766.96 843 1756.94C873.176 1745.35 891.44 1711.66 901.947 1683C924.839 1620.56 926.407 1548.66 921.911 1483C920.145 1457.21 913.425 1429.72 914.055 1404C914.488 1386.33 926.599 1366.36 930.765 1349C939.46 1312.76 943.439 1276.25 942.996 1239C942.65 1209.93 937.83 1176.73 921.656 1152C909.786 1133.85 888.881 1122.15 867 1127.92C836.457 1135.98 828.237 1169.78 835.745 1197C844.287 1227.96 856.817 1257.84 860.714 1290C868.371 1353.17 851.619 1420.16 826.85 1478C816.24 1502.77 805.584 1527.33 788.004 1548C785.068 1551.45 773.103 1565.35 778.746 1569.97C787.623 1577.24 805.024 1558.98 810 1554C824.251 1539.75 839.583 1526.64 852.384 1511C861.696 1499.62 868.133 1485.82 878 1475z"/>
<path style="fill:#d89344; stroke:none;" d="M779 1568C792.655 1570.84 804.558 1556.44 813 1548C829.185 1531.81 845.493 1516.51 859.116 1498C865.589 1489.21 870.869 1473.83 881 1469C881 1537.15 856.53 1609.35 818.996 1666C805.102 1686.97 767.98 1717.91 788.16 1744.99C801.844 1763.34 828.697 1761.45 847 1752.24C879.322 1735.97 896.774 1696.14 905.848 1663C921.065 1607.42 923.832 1547.26 919.911 1490C918.563 1470.32 916.937 1450.63 914.834 1431C913.878 1422.08 910.532 1411.92 911.224 1403C912.592 1385.34 924.21 1366.48 928.346 1349C938.001 1308.2 942.779 1266.85 939.911 1225C937.825 1194.58 930.312 1154.16 903 1136.1C882.532 1122.58 853.133 1129.06 841.324 1151C834.568 1163.55 834.65 1179.3 837.45 1193C843.977 1224.93 857.897 1254.44 862.572 1287C867.914 1324.21 863.084 1361.52 855.21 1398C847.06 1435.76 833.691 1476.01 815.136 1510C809.838 1519.7 805.225 1530.17 798.497 1539C791.442 1548.26 781.815 1556.26 779 1568z"/>
<path style="fill:#e9c9a0; stroke:none;" d="M1454 1193C1444.56 1196.67 1445.35 1200.63 1440.14 1207.85C1435.25 1214.63 1424.9 1204.24 1420.32 1213.06C1416.27 1220.85 1424.29 1229.18 1431 1231.73C1452.1 1239.76 1474.89 1223.35 1465 1201C1470.39 1198.76 1475.41 1195.96 1480 1192.33C1483.39 1189.65 1486.33 1186.57 1488.78 1183C1493.49 1176.15 1497.64 1160.3 1484 1160.63C1471.6 1160.92 1450.25 1180.21 1454 1193z"/>
<path style="fill:#d89344; stroke:none;" d="M1461 1198C1472.12 1196.49 1481.79 1189.36 1487.89 1180C1490.53 1175.96 1493.05 1168.55 1488.57 1164.74C1482.58 1159.67 1474.39 1167.28 1470 1170.92C1465.56 1174.6 1459.12 1178.47 1456.86 1184C1455.48 1187.37 1457.54 1192.62 1455.23 1195.4C1452.81 1198.31 1448.2 1197.6 1445.74 1201.11C1443.44 1204.38 1444.08 1208.75 1440.77 1211.47C1435.86 1215.52 1431.16 1210.09 1426.06 1211.7C1422.2 1212.91 1421.47 1217.64 1422.74 1221C1427.63 1233.86 1453.68 1233.14 1461.47 1223.9C1468.89 1215.09 1463.9 1207.18 1461 1198z"/>
<path style="fill:#e9c9a0; stroke:none;" d="M1593 1342C1598.39 1310.69 1623.62 1284.15 1616.33 1250C1612.22 1230.73 1592.28 1222.56 1575 1230.78C1556.88 1239.41 1543.98 1257.8 1536.6 1276C1527.83 1297.65 1524.24 1320.98 1529.21 1344C1531.11 1352.79 1546.22 1370.19 1542.22 1377C1528.62 1400.16 1512.98 1423.18 1494.83 1443C1491.18 1446.98 1478.43 1461.25 1472.23 1458.75C1468.14 1457.1 1469 1450.45 1469 1447C1469.01 1435.64 1471.18 1424.12 1473.4 1413C1482.86 1365.62 1495.43 1319.49 1511.78 1274C1516.14 1261.87 1520.65 1249.6 1523.42 1237C1524.27 1233.17 1526.81 1224.18 1519.96 1224.38C1515.67 1224.5 1513.11 1228.85 1511 1232C1505.49 1240.26 1501.13 1249.11 1496.76 1258C1485.43 1281.04 1474.51 1301.83 1458.2 1322C1451.64 1330.1 1442.73 1340.93 1432 1343C1432 1323.25 1437.03 1304.75 1445.76 1287C1448.64 1281.13 1457.1 1269.97 1452.97 1263.23C1446.42 1252.54 1431.28 1272.14 1428.08 1277C1411.17 1302.71 1386.5 1372 1438 1372C1433.96 1394.67 1419.71 1413.48 1421.09 1438C1421.54 1445.95 1422.65 1454.48 1425.38 1462C1440.64 1503.9 1488.29 1486.21 1513 1464.71C1529.91 1450 1542.71 1430.33 1553.72 1411C1558.19 1403.16 1562.03 1388.06 1569.22 1382.6C1573.45 1379.39 1581.02 1381.27 1586 1380.91C1594.7 1380.27 1604 1377.53 1612 1374.13C1648.31 1358.71 1677 1329.47 1695.69 1295C1709.63 1269.29 1726.06 1230.22 1714.14 1201C1710.01 1190.89 1698.69 1171.63 1685.06 1175.32C1678.45 1177.11 1683.73 1185.62 1684.07 1190C1685.2 1204.32 1681.91 1221.37 1677.65 1235C1664.75 1276.33 1636.48 1327.19 1593 1342z"/>
<path style="fill:#a2c477; stroke:none;" d="M1590 1343C1601.45 1318.84 1615.96 1290.33 1616 1263C1616.02 1248.94 1612.32 1234.14 1597 1229.79C1578.4 1224.5 1561.5 1239.56 1551.02 1253C1532.49 1276.75 1524.12 1311.53 1529.8 1341C1533.68 1361.1 1549.18 1379.16 1571.01 1379.98C1637.49 1382.49 1687.9 1320.02 1708.41 1263C1716.28 1241.14 1721.67 1212.76 1708.3 1192C1704.16 1185.57 1697.19 1177.17 1689 1176.23C1686.12 1175.9 1683.46 1176.8 1683.33 1180.06C1683.18 1184.09 1685.58 1187.95 1685.74 1192C1686.18 1203.33 1683.69 1217.09 1680.71 1228C1671.03 1263.37 1653.02 1298.9 1625 1323.28C1616.27 1330.88 1602.52 1344.1 1590 1343z"/>
<path style="fill:#d89344; stroke:none;" d="M1442 1369C1440.55 1378.69 1434.43 1387.8 1431.05 1397C1422.98 1419.02 1418.41 1447.96 1431.47 1469C1444.71 1490.33 1470.39 1487.06 1490 1477.4C1518.31 1463.44 1538.84 1434.24 1553.22 1407C1557.98 1397.98 1564.47 1388.21 1566 1378C1561.54 1376.97 1553.52 1371.76 1549.18 1373.36C1542.93 1375.67 1537.5 1388.62 1534 1394C1522.41 1411.77 1511.06 1429.88 1496 1445C1490.94 1450.08 1480.94 1462.29 1473 1462.26C1466.61 1462.24 1465.86 1453.61 1466.04 1449C1466.6 1434.52 1469.97 1420.29 1472.13 1406C1478.01 1367.11 1490.46 1328.17 1503 1291C1509.82 1270.81 1521.82 1248.62 1522 1227C1509.83 1228.89 1503.14 1251.2 1498.25 1261C1486.54 1284.42 1475.42 1305.88 1458.13 1326C1452.42 1332.64 1444.8 1342.32 1436 1344.95C1426.15 1347.89 1429.51 1330.68 1430.39 1326C1433.82 1307.66 1440.71 1291.72 1448.74 1275C1450.41 1271.53 1453.62 1261.95 1445.98 1263.71C1433.64 1266.56 1425.36 1285.55 1421.01 1296C1413.51 1314.02 1396.94 1355.36 1422 1367.23C1427.98 1370.06 1435.57 1369 1442 1369z"/>
<path style="fill:#e9c9a0; stroke:none;" d="M1561 1339C1566.77 1335.9 1568.23 1327.81 1570.42 1322C1575.93 1307.4 1589.33 1282.75 1585 1267C1578.19 1269.37 1573.69 1276.9 1570.31 1283C1561.98 1298.08 1552.91 1322.21 1561 1339z"/>
<path style="fill:#fffefd; stroke:none;" d="M1583 1269C1567.81 1282.44 1552.32 1316.88 1562 1337L1563 1337C1570.19 1321.8 1575.82 1305.16 1580.42 1289C1582.15 1282.94 1585.57 1275.14 1583 1269z"/>
<path style="fill:#010101; stroke:none;" d="M666.667 1462.33L667.333 1462.67L666.667 1462.33z"/>
<path style="fill:#e9c9a0; stroke:none;" d="M649 1556L650 1557L649 1556z"/>
</svg>
