<?xml version="1.0" standalone="yes"?>
<svg xmlns="http://www.w3.org/2000/svg" width="2048" height="2048">
<path style="fill:#47714d; stroke:none;" d="M0 0L0 2048L2048 2048L2048 0L0 0z"/>
<path style="fill:#fefbf9; stroke:none;" d="M944 209L945 207L934 208L933 208L904 213L904 211L903 211L903 214L902 214L901 211L900 211L901 214L879 215L880 217L877 216L878 218L877 218L874 216L875 218L874 218L857 220C857 222.854 855.314 221.67 853 221L854 223L853 223L838 224L836 227L837 225L819 229L810 234L809 234L809 232L808 232L806 233L794 240L793 240L792 238L780 243L775 242L776 245L763 248L764 246L763 246L763 249L754 250L753 250C752.362 252.392 752.221 252.036 750 251L751 254C746.67 253.577 743.1 253.916 741 258L737 257L732 259L731 260L732 262L722 264C722 267.2 714.933 268.435 712 268L712 271L704 272L703 273L704 275L701 274L694 278L694 276L693 276L691 277L692 280L689 278L683 283L679 282L674 288L672 286L669 288L669 290L661 293L661 295L657 298L650 300L650 301L652 300L652 301C647.028 302.844 641.491 305.087 639 310L638 308L637 308L636 311L623 315L622 318L619 320L617 321L615 320L613 321L608 328L607 328L607 326L606 326L604 328L604 330L602 329L601 330L602 332L597 333L594 336L594 338L592 337L592 339L588 342L583 342L583 346L577 346L575 348L575 351C570.988 351.678 566.798 354.918 566 359L562 359L559 363L560 361L554 364C553.528 367.793 548.492 370.899 545 372L543 374L538 378L539 381L535 381L534 385L530 388L528 390L525 389L523 391L521 396L518 396L515 399L513 401L510 404L509 405L510 407L508 409L506 408L500 416L495 418L491 422L488 426L484 430L482 432L482 436L479 435L475 440L473 442L470 445L466 450L464 452L459 458L455 462L456 465L448 470L449 473L447 472L441 485L440 485L440 483L439 483L437 486L434 490L433 495L427 499L426 504L425 505L423 504L424 506L421 505L423 508L420 507C420.502 509.51 419.579 512.645 417 512L413 522L410 522L411 525L409 524L410 526L407 525L409 527L404 531L402 540L399 540L400 542L398 542L397 548L396 549L394 548L391 553L392 556L390 555L386 562L385 564L381 570L378 575L376 585L375 585L375 583L374 583L372 587L374 587L370 594L368 594L369 596L367 596L366 598L367 601L364 601L365 604L363 603C363.496 605.973 363.791 609.698 361 609C361.53 611.649 361.428 612.607 359 612C359.157 616.03 358.529 619.777 355 622L355 623L357 623L357 624L354 625L352 629L350 632L352 634L348 638L349 641L346 641C346.511 644.064 345.484 649.621 343 649L339 659L334 671L330 683L331 686L329 685C329.765 688.825 326.549 698.637 324 698L322 713L322 714L319 715L317 722C317.453 724.458 317.833 726 315 726L315 737L313 736L311 744L309 759L311 759L308 762L309 765L307 764L309 766L309 767L306 770L306 771L308 771L308 772L303 785L305 784L305 785L302 786L302 787L304 788L299 804L298 808L298 809L301 809L301 810L298 810L298 811L300 811L300 812L297 812L297 813L297 839L296 839L295 835L294 835L293 842L293 843L295 843L295 844L293.025 857.039L292 890L291 890L291 888L290 888L292 895L290 894L292 896L292 897L290 898L290 899L292 900L292 901L289 912L289 913L289 916L289 917L291 922L290 922L290 920L289 920L289 926L289 927L291 929L289 928L289 929L291 936L290 936L290 934L289 934L289 940L289 941L291 953L289 952L293 972L290 972C294.151 981.641 294.479 995.627 293 1006L296 1007L294 1008L294 1009L297 1010L299 1043L302 1046L300 1046L302 1059C306.994 1059 306.227 1080.42 308 1085L309 1085L308 1083L309 1083L310 1099L312 1099L320 1137L323 1136L321 1139L325 1151L328 1151L329 1163C332.765 1163 333.085 1171.78 333 1175C336.487 1175 337.327 1182.06 337 1185L339 1184L338 1187C341.643 1187.48 342.133 1193.69 342 1197L344 1196L343 1199L345 1198L345 1199L346 1207L348 1207L350 1218L353 1217L354 1225L356 1229L359 1229L361 1241L363 1246L371 1257L376 1271L378 1271L377 1273L385 1281L389 1293L394 1295L398 1310L402 1311L406 1317L407 1323L409 1323L409 1324L408 1325C411.051 1324.39 412.391 1329.43 412 1331L414 1334L417 1339L433 1356L432 1359L436 1364C439.192 1364 442.471 1369.82 442 1373L443 1374L445 1373L449 1383L455 1386L460 1391L465 1401L466 1402L468 1401L469 1407L471 1409L479 1418L481 1417L483 1422L487 1426L490 1425L491 1430L494 1433L496 1432L495 1435C498.908 1435.53 501.053 1439.38 502 1443L506 1447L512 1453C516.06 1453.51 519.815 1457.13 521 1461C525.347 1461.53 528.987 1465.25 531 1469L536 1474L539 1477L541 1476L540 1479L543 1478L543 1481L544 1482L546 1481L548 1487C551.047 1486.49 552.647 1486.41 552 1489L555 1492L560 1492L560 1495L562 1494L561 1497C564.047 1496.49 565.647 1496.41 565 1499L574 1502L576 1507L580 1511L587 1517C590.851 1517.2 599.438 1522.14 600 1526L604 1526L609 1530L610 1531L609 1533C611.95 1532.02 612.622 1531.51 612 1534L616 1537C619.841 1537.37 631.417 1543.99 632 1548L639 1549L640 1550L639 1552L640 1553C643.656 1552.27 657.814 1559.75 657 1563C660.047 1562.49 661.647 1562.41 661 1565C663.649 1564.47 664.607 1564.57 664 1567L671 1567L672 1571L678 1572L679 1576L684 1579L695 1582L695 1584L714 1591L714 1593L720 1593L721 1596L723 1595L745 1607L755 1609L755 1611C757.337 1610.53 760.681 1610.28 760 1613L763 1612L762 1615C764.957 1614.51 769.716 1614.14 769 1617L772 1616L771 1618L773 1619L782 1623L792 1627L795 1626C797.301 1629.35 801.996 1631.14 806 1631L806 1633L813 1636L816 1635L815 1637C818.597 1636.73 822.991 1637.05 824 1641C827.196 1640.47 832.801 1640.8 832 1644L836 1645C838.729 1644.45 842.638 1645.45 842 1648L851 1651L854 1654L855 1655L854 1657L856 1657L855 1659L856 1660L858 1659L862 1667L865 1671L867 1671L867 1672L866 1673L869 1673L873 1678L872 1680L876 1685L878 1685L878 1686L877 1687L879 1686L878 1689C882.508 1690.39 892.357 1702.33 893 1707C896.171 1707 900 1711.86 900 1715L902 1717L904 1721L908 1721C907.765 1724.61 908.127 1727.4 912 1728L917 1734L921 1743L922 1744L924 1743L928 1749L926 1748L926 1749L929 1749L940 1767L949 1778L951 1777L956 1787L958 1789L961 1793L963 1792L962 1795L965 1799L966 1800L968 1799L970 1805L974 1810L976 1809L975 1812L978 1815L987 1827L989 1829L993 1833L995 1832L994 1835L997 1834L996 1836L999 1835L998 1837C1006.67 1838.81 1014.95 1842.29 1023.41 1836.82C1027.96 1833.87 1030.81 1829.32 1035 1826L1038 1822C1037.89 1818.99 1038.75 1815.47 1042 1815C1041.66 1805.43 1059.89 1798.59 1061 1788L1064 1788C1063.87 1784.37 1069.57 1776 1073 1776L1076 1771L1079 1768L1081 1766L1086 1760L1087 1758L1094 1748L1099 1741L1100 1740L1099 1738L1100 1737L1102 1738L1101 1735L1109 1730L1108 1727L1110 1728L1109 1725L1111 1726L1116 1720L1115 1717L1118 1713L1131 1701L1132 1695L1138 1690L1141 1682C1146.09 1679.19 1151.8 1672.76 1153 1667L1163 1660L1162 1657L1166 1657C1166 1654.2 1167.48 1654.73 1170 1655L1169 1653L1172 1654L1172 1651L1207 1644L1207 1642L1222 1640L1222 1638L1240 1636C1240 1633.15 1241.69 1634.33 1244 1635L1256 1632L1257 1629L1267 1628L1272 1626L1282 1622L1282 1620L1297 1617L1302 1615L1322 1603L1323 1603L1323 1605L1324 1605L1325 1602L1333 1602C1333 1598.94 1342.92 1595.66 1346 1596L1363 1586L1362 1588L1363 1588L1363 1585L1372 1584L1371 1581L1380 1580L1379 1577L1387 1576C1386.87 1572.32 1391.85 1570.65 1395 1571L1401 1567L1404 1565L1409 1562C1409.54 1558.07 1412.46 1557.92 1416 1558L1415 1555L1422 1554L1426 1552L1430 1547L1432 1548L1442 1542L1450 1535L1457 1531L1457 1527L1463 1526L1463 1524L1464 1524L1465 1525L1471 1521L1470 1519L1473 1520L1474 1516L1477 1517L1480 1514L1482 1512L1485 1509L1492 1504L1495 1502C1494.88 1498.74 1498.84 1495.88 1502 1496L1501 1494L1504 1495L1509 1490L1514 1486L1522 1479L1523 1478C1524.47 1472.85 1533.85 1463.56 1539 1462L1542 1459L1545 1457L1548 1454L1552 1450L1554 1444L1557 1445C1557.98 1439.69 1564.85 1432.56 1570 1431L1571 1430L1575 1426L1579 1417L1582 1418L1584 1416L1585 1409L1587 1410L1588 1405L1592 1400L1601 1395C1600.42 1392.08 1603.74 1388.44 1606 1389L1610 1384L1614 1378L1615 1376L1615 1372L1618 1372C1618.51 1367.17 1622.26 1361.49 1627 1360L1628 1358C1627.47 1355.35 1627.57 1354.39 1630 1355C1629.52 1352.6 1634.53 1345.38 1637 1346C1636.49 1342.95 1636.41 1341.35 1639 1342L1638 1339L1640 1340L1644 1334L1647 1325L1653 1320L1654 1318L1658 1312L1661 1305L1663 1302C1662.53 1299.66 1662.28 1296.32 1665 1297L1674 1280L1676 1280L1677 1278L1676 1275L1678 1276L1677 1273L1679 1274L1680 1272L1679 1270L1681 1270C1680.53 1267.66 1680.28 1264.32 1683 1265L1682 1262L1684 1263L1687 1252L1686 1254L1687 1254L1696 1232L1700 1226L1702 1224L1705 1217L1707 1205L1710 1205C1709.54 1202.68 1712.09 1191.27 1715 1192L1716 1180L1719 1180L1719 1179L1717 1180L1717 1179C1721.49 1175.41 1718.58 1170.39 1720 1164C1720.7 1160.84 1724.67 1156.99 1725 1154C1725.47 1149.78 1725.48 1144.12 1729 1145C1728.42 1141.47 1727.58 1132.65 1732 1132L1731 1129L1733 1130C1732.45 1126.69 1733.13 1117.28 1736 1118L1740 1102L1741 1100L1739 1097L1741 1098L1741 1097L1744 1083L1742 1081L1742 1080L1746 1076L1746 1075L1744 1075L1744 1074C1748.58 1071.51 1747 1057.69 1747 1053L1748 1053L1748 1055L1749 1055L1749 1046L1751 1046L1754 1018C1750.58 1018.68 1751.95 1016.49 1754 1017L1755 1011L1753 1012L1753 1011L1755 1008L1755 1007L1753 1006C1758.33 998.158 1755 980.252 1755 971C1755 941.973 1750.91 909.651 1755 881L1753 882L1753 881L1753 864L1752 864L1752 867L1751 867L1751 846L1748 839L1748 838L1750 838L1750 837C1742.2 832.319 1749.96 816.192 1744 815L1746 812C1742.74 812 1743.45 808.611 1744 806L1740 795L1741 790C1736.66 790 1737.15 779.234 1738 776L1736 777L1736 776L1736 771L1735 771L1735 773L1734 773L1733 761L1731 761L1732 759C1728.32 755.396 1727.39 747.145 1728 742C1723.29 741.385 1724.05 733.589 1725 730C1722.56 730 1723.39 729.214 1724 727L1722 728L1723 725C1718.56 725 1719.54 715.435 1720 712L1718 713L1719 710L1717 711L1718 708L1715 697L1713 691L1711 692L1712 689L1709 687L1709 686L1711 686L1711 685C1705.62 680.563 1702.73 670.675 1701 664L1699 665L1697 655L1690 649L1687 634L1686 636L1685 636L1685 626L1683 627L1684 624L1681 624L1681 617C1678.22 617 1678.68 615.464 1679 613L1678 613L1677 615L1676 606C1672.89 605.587 1672.06 604.067 1672 601L1670 601L1670 600L1671 599L1669 600L1670 597L1667 597L1666 591L1665 590L1663 591L1661 587C1661.3 584.556 1661.44 583.972 1659 584L1658 576L1656 574L1652 566L1651 566L1651 568L1650 568L1649 560L1646 561L1648 558L1641 553L1637 548L1636 540L1634 538L1629 533L1631 534L1631 533L1628 533L1628 529L1626 529L1627 527L1626 526L1624 527L1625 524L1623 525L1624 522L1621 519L1620 521L1619 521L1614 508L1613 507L1611 508L1612 505L1608 504L1609 501L1606 497L1604 495L1597 491L1593 487L1592 481L1589 482L1590 479L1586 473L1583 473L1584 471L1583 469L1577 461L1575 459L1573 460L1574 457L1564 451L1564 448C1560.81 448.114 1559 446.096 1559 443L1557 441L1551 438L1552 435L1549 436L1549 431L1547 429L1535 420L1535 416L1532 417L1533 415L1531 413L1525 408L1524 410L1523 410L1520 407L1520 404L1516 400L1513 397L1509 393L1507 394L1507 390L1504 391L1505 389L1500 385L1496 385L1491 381L1491 377L1482 373L1477 366L1475 364L1472 362L1470 364L1459 353L1457 351L1452 347L1443 343L1443 341L1435 338L1434 335L1433 337L1432 337L1425 328L1421 325L1419 324L1417 325L1415 321L1414 321L1414 323L1413 323L1412 319L1407 316L1405 315L1391 311L1390 310L1391 308L1389 307C1385.99 307.109 1382.47 306.247 1382 303L1375 301L1375 298L1355 287L1356 289L1355 289L1354 285L1353 285L1352 287L1351 284C1348.54 284.493 1346.35 284.591 1347 282L1345 281L1344 281L1344 283L1343 283L1333 279L1334 277L1322 272L1315 269L1313 268L1311 269L1311 267L1303 266L1303 263C1300.27 263.546 1296.36 262.551 1297 260L1294 262L1295 259L1286 258L1285 257L1286 255C1282.92 255.616 1274.39 253.441 1275 251L1262 246L1251 245L1252 243L1249 244L1250 242L1248 241L1247 241L1247 243L1246 243L1232 239L1233 237C1229.49 237.453 1219.49 236.787 1219 233L1218 233L1218 235L1217 235L1216 232L1206 229L1187 227L1186 224L1168 222L1169 220L1155 217L1154 217L1154 219L1153 219L1148 216L1147 218L1147 215L1126 212L1122 214L1124 211L1121 211L1122 213L1120 211L1092 208L1091 208L1090 210L1080 207C1080.68 210.421 1078.49 209.048 1079 207L1073 209L1072 209L1072 206L1071 206C1070.35 207.96 1070 208.554 1070 206C1040.23 209.639 1008.17 204.55 978 205.925C966.863 206.433 954.367 204.413 944 209z"/>
<path style="fill:#47714d; stroke:none;" d="M982 206L983 207L982 206M1043 206L1044 207L1043 206M949 208L949 209L953 208L949 208M954 207L955 208L954 207M956 207L957 208L956 207M962 207L963 208L962 207M970 207L971 208L970 207M973 207L974 208L973 207M1053 207L1054 208L1053 207M1056 207L1057 208L1056 207M1062 207L1063 208L1062 207M1067 207L1068 208L1067 207z"/>
<path style="fill:#fefbf9; stroke:none;" d="M1083 207L1084 208L1083 207z"/>
<path style="fill:#47714d; stroke:none;" d="M947 208L948 209L947 208M1074 208L1075 209L1074 208M1076 208L1077 209L1076 208M937 209L938 210L937 209M939 209L940 210L939 209M941 209L942 210L941 209M943 209L944 210L943 209M1081 209L1082 210L1081 209M1085 209L1086 210L1085 209M1087 209L1088 210L1087 209M909 211L911 213L909 211M912 211L913 212L912 211M914 211L915 212L914 211M917 211L918 212L917 211M1111 211L1112 212L1111 211M1114 211L1115 212L1114 211z"/>
<path style="fill:#fefbf9; stroke:none;" d="M897 212L898 213L897 212z"/>
<path style="fill:#47714d; stroke:none;" d="M907 212L908 213L907 212M1116 212L1117 213L1116 212M1118 212L1120 214L1118 212M905 213L906 214L905 213M884 216L885 217L884 216M1142 216L1143 217L1142 216M1144 216L1146 218L1144 216z"/>
<path style="fill:#fefbf9; stroke:none;" d="M1150 216L1151 217L1150 216z"/>
<path style="fill:#47714d; stroke:none;" d="M881 217L882 218L881 217M872 218L873 219L872 218z"/>
<path style="fill:#fefbf9; stroke:none;" d="M855 220L856 221L855 220z"/>
<path style="fill:#47714d; stroke:none;" d="M860 220L859 222L860 220M1165 220L1166 221L1165 220M1170 222L1171 223L1170 222M1181 224L1182 225L1181 224M840 225L839 227L840 225M1183 225L1184 226L1183 225M1185.33 225.667L1185.67 226.333L1185.33 225.667z"/>
<path style="fill:#fefbf9; stroke:none;" d="M1188 225L1189 226L1188 225z"/>
<path style="fill:#47714d; stroke:none;" d="M822 229L821 231L822 229M824 229L825 230L824 229M1201 230L1202 231L1201 230M1203 230L1204 231L1203 230M1213 232L1214 233L1213 232z"/>
<path style="fill:#fefbf9; stroke:none;" d="M1220 233L1221 234L1220 233M803 234L804 235L803 234z"/>
<path style="fill:#47714d; stroke:none;" d="M806.333 234.667L806.667 235.333L806.333 234.667M808 234L809 235L808 234z"/>
<path style="fill:#fefbf9; stroke:none;" d="M1222 234L1223 235L1222 234M790 238L791 239L790 238z"/>
<path style="fill:#47714d; stroke:none;" d="M1230 238L1231 239L1230 238M1234 239L1235 240L1234 239M777.667 243.333L778.333 243.667L777.667 243.333M1247 243L1248 244L1247 243M1258 246L1259 247L1258 246M766 247L767 248L766 247z"/>
<path style="fill:#fefbf9; stroke:none;" d="M1263 247L1264 248L1263 247z"/>
<path style="fill:#47714d; stroke:none;" d="M1265 249L1266 250L1265 249M1269 250L1270 251L1269 250M1272 252L1273 253L1272 252M743 255L742 257L743 255M1281 255L1282 256L1281 255z"/>
<path style="fill:#fefbf9; stroke:none;" d="M739 256L740 257L739 256z"/>
<path style="fill:#47714d; stroke:none;" d="M1283 256L1285 258L1283 256M732 260L733 261L732 260M1302 264L1303 265L1302 264M1305 266L1306 267L1305 266M714 269L713 271L714 269M1312 270L1313 271L1312 270M704 273L705 274L704 273M1321 273L1322 274L1321 273z"/>
<path style="fill:#fefbf9; stroke:none;" d="M1324 273L1325 274L1324 273z"/>
<path style="fill:#edaca2; stroke:none;" d="M981.96 277.566C865.262 288.3 754.595 323.766 657 390.028C467.208 518.886 357.442 747.735 373.09 976C379.519 1069.8 408.361 1163.48 453.159 1246C513.545 1357.23 611.207 1457.03 726 1512.02C757.311 1527.02 788.966 1540.75 822 1551.48C839.184 1557.06 861.098 1559.43 876.985 1567.69C882.537 1570.58 885.32 1576.94 888.529 1582C895.156 1592.44 902.474 1602.37 908.799 1613C931.394 1650.96 956.007 1687.76 978.154 1726C985.941 1739.44 993.917 1753.5 1003.16 1766C1007.93 1772.46 1013.51 1777.6 1022 1776.91C1030.76 1776.19 1034.54 1768.96 1038.42 1762.09C1044.89 1750.64 1052.01 1739.66 1058.17 1728C1078.2 1690.08 1098.54 1651.88 1120.42 1615C1127.05 1603.81 1132.66 1582.08 1144.04 1575.09C1149.92 1571.48 1158.39 1571.2 1165 1569.79C1176.73 1567.28 1188.46 1564.32 1200 1561.08C1236.49 1550.82 1272.71 1537.76 1307 1521.51C1445.49 1455.93 1559 1340.6 1622.1 1201C1733.67 954.202 1679.35 656.257 1486.83 465.05C1411.69 390.424 1320.8 339.457 1221 306.403C1146.23 281.638 1060.89 270.305 981.96 277.566z"/>
<path style="fill:#fefbf9; stroke:none;" d="M1335 277L1336 278L1335 277M1337 278L1338 279L1337 278z"/>
<path style="fill:#f77229; stroke:none;" d="M1006 280.576C951.077 284.693 897.443 290.922 844 305.289C774.147 324.068 705.703 359.796 647 401.558C467.458 529.287 362.027 751.045 377.09 971C383.724 1067.87 411.636 1161.83 458.306 1247C517.194 1354.47 610.857 1450.42 721 1505.63C751.897 1521.12 784.232 1534.86 817 1545.79C830.275 1550.23 843.543 1554.62 857 1558.44C864.51 1560.57 872.996 1561.1 879.961 1564.84C892.544 1571.59 901.223 1595.26 909.004 1607C934.34 1645.22 957.316 1685.12 981.681 1724C989.554 1736.56 996.258 1749.9 1004.88 1761.99C1008.51 1767.07 1013.57 1773.68 1020.58 1773.45C1027.68 1773.22 1031.95 1766.34 1035.2 1761C1042.55 1748.93 1048.63 1736.36 1055.44 1724C1075.3 1687.95 1095.57 1652.16 1115.23 1616C1122.09 1603.38 1130.56 1578.53 1143.01 1570.86C1148.36 1567.57 1156.15 1567.66 1162.17 1566.17C1177.13 1562.48 1192.15 1559.44 1207 1555.25C1246.42 1544.14 1284.08 1527.71 1321 1510.22C1453.72 1447.37 1559.18 1329.13 1619.69 1197C1704.65 1011.48 1693 784.923 1591.84 608C1534.79 508.206 1451.11 424.905 1352 367.012C1293.22 332.677 1228.37 308.484 1161.91 294.732C1111.62 284.326 1057.47 276.718 1006 280.576z"/>
<path style="fill:#47714d; stroke:none;" d="M685 281L686 282L685 281M681 283L682 284L681 283M1344 283L1345 284L1344 283M676 285L677 286L676 285M1350 285L1351 286L1350 285M672 288L673 289L672 288M667 290L665 293L667 290M1359 290L1361 292L1359 290z"/>
<path style="fill:#fefbf9; stroke:none;" d="M1363 291L1364 292L1363 291z"/>
<path style="fill:#47714d; stroke:none;" d="M1366 294L1367 295L1366 294M659 295L658 297L659 295M1368 296L1370 298L1368 296M1374 299L1375 300L1374 299M647 303L648 304L647 303z"/>
<path style="fill:#edaca2; stroke:none;" d="M985.715 304.543C938.342 310.804 891.11 316.366 845 329.913C760.935 354.61 680.991 399.975 615 457.289C555.092 509.321 505.146 573.399 468.92 644C353.35 869.231 386.214 1156.91 557.17 1346C641.696 1439.49 752.371 1506.35 874 1538.42C948.832 1558.14 1029.85 1561.51 1106.42 1551.57C1321.08 1523.71 1509.78 1383.78 1598.69 1186C1632.37 1111.09 1649.38 1029.72 1652.96 948C1662.62 727.413 1541.2 511.744 1355 396.424C1280.68 350.394 1199.7 324.295 1113.99 310.802C1072.86 304.328 1027.45 299.028 985.715 304.543z"/>
<path style="fill:#47714d; stroke:none;" d="M645 305L646 306L645 305z"/>
<path style="fill:#fefbf9; stroke:none;" d="M997 307.709C925.378 308.984 849.582 328.396 784 356.67C688.671 397.769 603.908 460.604 539.004 542C388.4 730.872 359.662 1005.4 474.692 1219C501.36 1268.52 532.774 1316.45 572.424 1356.71C626.612 1411.74 689.031 1459.45 759 1492.7C845.169 1533.66 939.765 1553.51 1035 1553.51C1107.3 1553.51 1179.34 1536.7 1247 1512.54C1312.79 1489.05 1374.77 1451.35 1428 1406.27C1497.5 1347.42 1555.17 1273.04 1593.05 1190C1668.28 1025.08 1667.63 826.844 1589.51 663C1557.84 596.571 1513.91 536.902 1462 485C1413.86 436.863 1355.64 396.525 1294 367.629C1232.57 338.831 1163.59 317.439 1096 310.174C1063.12 306.639 1030.01 307.121 997 307.709z"/>
<path style="fill:#47714d; stroke:none;" d="M629 313L628 315L629 313M1399 313L1399 315L1401 315L1399 313M623 316L624 317L623 316z"/>
<path style="fill:#fefbf9; stroke:none;" d="M1408 317L1409 318L1408 317z"/>
<path style="fill:#47714d; stroke:none;" d="M620 318L621 319L620 318M1411 320L1412 321L1411 320M613 323L614 324L613 323M609 325L610 326L609 325M602 330L603 331L602 330z"/>
<path style="fill:#fefbf9; stroke:none;" d="M1428 331L1429 332L1428 331z"/>
<path style="fill:#47714d; stroke:none;" d="M1430 334L1431 335L1430 334M590 339L589 341L590 339z"/>
<path style="fill:#fefbf9; stroke:none;" d="M1440 339L1441 340L1440 339z"/>
<path style="fill:#47714d; stroke:none;" d="M1444 343L1446 345L1444 343z"/>
<path style="fill:#fefbf9; stroke:none;" d="M580 344L581 345L580 344z"/>
<path style="fill:#47714d; stroke:none;" d="M577 349L578 350L577 349M573 351L571 354L573 351M568 356L569 357L568 356M566 357L567 358L566 357z"/>
<path style="fill:#fefbf9; stroke:none;" d="M1464 357L1465 358L1464 357z"/>
<path style="fill:#edaca2; stroke:none;" d="M1004.67 358.566C958.819 363.292 913.927 366.212 869 378.289C786.659 400.425 708.296 444.265 644.09 499.8C589.862 546.706 544.831 604.704 511.515 668C410.353 860.191 428.342 1101.25 555.927 1277C595.97 1332.16 645.527 1377.16 701 1416.29C748.511 1449.81 804.164 1475.56 860 1491.57C931.898 1512.19 1008.28 1519.28 1082.67 1511.62C1353.87 1483.71 1580.15 1256.96 1598.91 983C1604.44 902.221 1595.12 818.526 1567.91 742C1504.2 562.785 1348.71 420.924 1164 375.626C1113.71 363.293 1056.7 353.203 1004.67 358.566z"/>
<path style="fill:#47714d; stroke:none;" d="M562 360L563 361L562 360M1467 360L1469 362L1467 360M558 363L559 364L558 363z"/>
<path style="fill:#f77229; stroke:none;" d="M998.714 363.54C958.931 368.433 919.143 370.461 880 380.478C752.734 413.047 635.426 493.401 558.924 600C457.071 741.923 425.022 926.978 472.428 1095C492.025 1164.46 526.614 1230.07 570.5 1287C598.342 1323.12 630.022 1357.03 666 1385.33C731.436 1436.81 807.281 1473.45 888 1493.37C952.814 1509.37 1022.74 1513.75 1089 1505.71C1164.65 1496.55 1238.43 1473.35 1305 1436.1C1476.18 1340.32 1586.42 1155.98 1594.96 961C1599.7 852.809 1573.08 742.837 1519.05 649C1440.13 511.967 1300.44 407.835 1145 376.551C1098.3 367.151 1046.55 357.657 998.714 363.54z"/>
<path style="fill:#fefbf9; stroke:none;" d="M552 366L553 367L552 366z"/>
<path style="fill:#d6191f; stroke:none;" d="M1001.67 367.566C978.549 369.95 954.979 370.505 931.999 374.286C871.554 384.233 812.792 404.811 759 433.676C736.157 445.933 712.753 457.749 692 473.594C593.415 548.864 517.863 648.082 480.029 767C427.305 932.717 458.013 1128.83 561.3 1268.99C635.391 1369.52 741.524 1447.08 862 1481.71C933.624 1502.3 1008.45 1509.07 1082.71 1501.77C1215.56 1488.72 1339.16 1426.31 1432.83 1331.83C1448.2 1316.32 1461.13 1298.34 1474.24 1281C1540.4 1193.52 1582.36 1089.17 1589.91 979C1601.99 802.636 1531.76 626.012 1398 509.711C1381.51 495.377 1365.06 480.097 1346.83 467.926C1293 431.977 1235.1 406.067 1173 388.218C1139.52 378.595 1106.61 373.636 1071.96 370.244C1048.85 367.981 1024.94 365.166 1001.67 367.566z"/>
<path style="fill:#47714d; stroke:none;" d="M550 369L549 371L550 369z"/>
<path style="fill:#f77229; stroke:none;" d="M1052 369L1053 370L1052 369z"/>
<path style="fill:#47714d; stroke:none;" d="M1479 370L1481 372L1479 370z"/>
<path style="fill:#f77229; stroke:none;" d="M969 371L968 373L969 371M976 371L977 372L976 371M1067 371L1068 372L1067 371M1069 371L1070 372L1069 371M1072 371L1073 372L1072 371M963 372L964 373L963 372M966 372L967 373L966 372M973 372L974 373L973 372M1074 372L1075 373L1074 372M1076 372L1077 373L1076 372M1080 372L1081 373L1080 372M1084 372L1085 373L1084 372z"/>
<path style="fill:#47714d; stroke:none;" d="M1483 373L1486 376L1483 373M1494 382L1495 383L1494 382M532 385L533 386L532 385z"/>
<path style="fill:#fefbf9; stroke:none;" d="M1502 387L1503 388L1502 387z"/>
<path style="fill:#47714d; stroke:none;" d="M528 388L529 389L528 388M1505 392L1506 393L1505 392M523 393L524 394L523 393z"/>
<path style="fill:#fefbf9; stroke:none;" d="M1511 395L1512 396L1511 395z"/>
<path style="fill:#47714d; stroke:none;" d="M519 396L520 397L519 396M510 405L511 406L510 405M1519 405L1520 406L1519 405M506.333 409.667L506.667 410.333L506.333 409.667M1524 410L1525 411L1524 410M501 413L500 415L501 413z"/>
<path style="fill:#fefbf9; stroke:none;" d="M496 416L497 417L496 416z"/>
<path style="fill:#47714d; stroke:none;" d="M1536 420L1538 422L1536 420M494 421L495 422L494 421z"/>
<path style="fill:#fefbf9; stroke:none;" d="M1541 423L1542 424L1541 423z"/>
<path style="fill:#47714d; stroke:none;" d="M1542 426L1543 427L1542 426z"/>
<path style="fill:#fefbf9; stroke:none;" d="M486 427L487 428L486 427z"/>
<path style="fill:#47714d; stroke:none;" d="M480 437L481 438L480 437z"/>
<path style="fill:#fefbf9; stroke:none;" d="M1555 439L1556 440L1555 439M1560 445L1561 446L1560 445z"/>
<path style="fill:#47714d; stroke:none;" d="M472 446L473 447L472 446M1563 449L1564 450L1563 449M1566 452L1569 455L1566 452M463 455L462 457L463 455M1571 458L1572 459L1571 458M458 461L459 462L458 461z"/>
<path style="fill:#fefbf9; stroke:none;" d="M1578 463L1579 464L1578 463z"/>
<path style="fill:#47714d; stroke:none;" d="M454 465L452 468L454 465z"/>
<path style="fill:#fefbf9; stroke:none;" d="M1581 467L1582 468L1581 467z"/>
<path style="fill:#47714d; stroke:none;" d="M446 476L445 478L446 476M1585 476L1587 478L1585 476M443 479L444 480L443 479z"/>
<path style="fill:#fefbf9; stroke:none;" d="M435 488L436 489L435 488z"/>
<path style="fill:#47714d; stroke:none;" d="M431 495L432 496L431 495M426 502L427 503L426 502M1612 508L1613 509L1612 508z"/>
<path style="fill:#f77229; stroke:none;" d="M981 513C967.838 534.324 996.9 566.643 1008.09 583C1010.8 586.957 1015.25 589.84 1017.43 594.089C1020.35 599.801 1019.64 607.757 1021.67 614C1036.76 660.309 1033.29 706.723 1002.33 746C995.685 754.431 987.236 760.863 979 767.614C970.512 774.571 959.947 791.151 949 793C949.848 795.684 951.349 797.568 948 798L948 799L956 806C998.476 789.422 1046.98 792.719 1075.56 752C1103.05 712.835 1101.66 654.282 1084.91 611C1081.09 601.14 1074.79 593.147 1069.77 584C1054.3 555.801 1032.66 526.788 1001 515.76C994.138 513.37 987.957 513.901 981 513z"/>
<path style="fill:#fefbf9; stroke:none;" d="M1617 513L1618 514L1617 513z"/>
<path style="fill:#47714d; stroke:none;" d="M415 517L413 520L415 517z"/>
<path style="fill:#edaca2; stroke:none;" d="M959 793L959 796C961.391 795.915 962.732 798.205 965.333 797.667C980.464 794.536 994.915 787.476 1010 784.333C1026.56 780.884 1039.82 780.893 1054 769.667C1091.65 739.863 1097.42 685.615 1088.33 642C1085.32 627.554 1081.7 609.295 1073.17 597C1055.41 571.424 1042.48 541.573 1013 526.833C1007.22 523.942 991.769 513.832 985.167 519.333C980.321 523.372 984.572 536.348 986.833 541C993.276 554.254 1001.93 566.898 1010.33 579C1013.79 583.971 1023.14 587.813 1024 594C1026.78 614.003 1033.99 634.329 1036 655C1040.67 703.051 1014.38 745.535 978 774.333C971.273 779.659 966.01 788.832 959 793z"/>
<path style="fill:#f77229; stroke:none;" d="M992 1321C995.575 1319.86 998.503 1320.69 1002.17 1320.91C1012.42 1321.5 1041 1318.8 1032.56 1303C1030.91 1299.91 1029.07 1296.93 1027.17 1294C1024.9 1290.52 1022.73 1287.06 1019.91 1284C1006.99 1270 990.165 1259.56 976 1246.83C950.774 1224.17 925.49 1196.71 907.185 1168C898.714 1154.71 894.353 1140.38 888.547 1126C868.213 1075.64 860.109 1013.75 871.004 960C876.808 931.363 892.606 907.09 902.63 880C910.442 858.89 918.995 835.004 923.61 813C924.95 806.615 922.405 800.485 924.159 794C928.007 779.771 933.771 764.828 939.065 751C941.512 744.608 945.393 739.007 945.91 732C947.233 714.047 943.867 695.819 942.17 678C939.553 650.527 938.922 619.647 927.485 594C921.942 581.568 913.264 571.468 904.803 561C890.279 543.031 869.864 523.442 846 519.329C827.965 516.22 830.673 535.537 836.134 546C846.052 565.002 861.324 582.949 868.934 603C875.392 620.013 876.678 641.005 879.271 659C881.244 672.694 885.503 686.279 886.83 700C888.703 719.353 886.999 740.729 884.841 760.015C878.536 816.356 845.833 864.944 835.311 920C818.267 1009.19 823.592 1108.81 865.373 1191C878.388 1216.6 897.528 1238.23 915.674 1260C929.104 1276.11 940.566 1291.54 957.424 1304.64C968.216 1313.03 980.743 1314.35 992 1321z"/>
<path style="fill:#47714d; stroke:none;" d="M1620 521L1621 522L1620 521z"/>
<path style="fill:#edaca2; stroke:none;" d="M841.044 524.576C835.397 526.233 835.645 532.31 836.928 537C839.813 547.543 848.549 557.001 853.181 567C858.545 578.577 867.822 587.949 872.536 600C879.985 619.042 881.231 642.83 884.131 663C886.506 679.519 891 695.186 891 712C891 734.294 891.498 759.219 886.346 781C875.227 828 852.162 871.252 840.475 918C826.749 972.905 827.589 1030.63 837.576 1086C845.641 1130.72 857.728 1172.42 882.414 1211C888.344 1220.27 896.066 1227.22 902.363 1236C924.666 1267.08 952.01 1308.65 993 1314.42C1003.09 1315.85 1013.26 1317.05 1022.98 1312.87C1030.01 1309.85 1027.96 1304.3 1024.79 1299C1018.97 1289.26 1011.04 1281.5 1002 1274.73C984.286 1261.46 969.454 1245.54 953.961 1230.04C926.257 1202.32 901.503 1172.76 886.8 1136C870.302 1094.75 864 1053.12 864 1009C864 990.68 863.407 971.955 867.654 954C874.885 923.434 892.015 896.531 902.305 867C908.362 849.617 914.878 829.964 918.61 812C919.882 805.876 917.521 800.226 919.519 794C923.597 781.296 927.678 768.41 932.601 756C935.745 748.077 940.781 739.522 941.816 731C944.391 709.778 937.93 686.35 936.961 665C934.841 618.3 920.192 579.623 886 547.04C876.318 537.814 856.068 520.17 841.044 524.576z"/>
<path style="fill:#fefbf9; stroke:none;" d="M973 785C980.651 792.137 993.602 783.37 1002 781.428C1010.86 779.379 1020.27 779.38 1029 776.791C1048.42 771.03 1062.88 756.265 1072.77 739C1102.46 687.147 1084.62 621.56 1054 575C1042.7 557.822 1029.45 541.114 1011 531.16C1007.27 529.146 994.603 522.123 991.028 526.604C986.907 531.768 992.834 542.466 995.427 547C1001.39 557.419 1008.58 568.831 1016.52 577.826C1020.75 582.62 1028.73 585.01 1029.92 592C1030.6 595.976 1029.12 599.946 1029.82 604C1031.42 613.17 1035.37 621.87 1037.19 631C1041.41 652.204 1042.32 677.911 1037.1 699C1032.07 719.352 1020.27 739.168 1006.7 755C997.019 766.295 984.922 776.162 973 785z"/>
<path style="fill:#47714d; stroke:none;" d="M1625 527L1626 528L1625 527z"/>
<path style="fill:#fefbf9; stroke:none;" d="M842 530C842.77 540.436 847.908 545.384 852.929 554C860.241 566.549 871.059 581.316 875.791 595C894.1 647.944 897.688 707.838 893.911 763C890.276 816.07 859.803 865.283 845.921 916C826.277 987.764 833.371 1070.34 854.57 1141C862.872 1168.67 876.823 1196.49 893.865 1219.83C896.826 1223.88 901.37 1226.14 904.443 1230.04C921.175 1251.31 935.475 1272.86 956 1291.05C969.851 1303.32 983.56 1309.65 1002 1310.91C1006.71 1311.23 1016.85 1311.88 1019.96 1307.35C1023.09 1302.78 1017.07 1296.17 1014.41 1293C1004.89 1281.64 991.879 1272.64 980.83 1262.74C935.506 1222.15 893.666 1177.25 874.746 1118C858.999 1068.69 850.957 1010.33 861.45 959C867.398 929.904 882.859 905.509 892.947 878C900.47 857.485 907.953 835.356 912.482 814C913.743 808.057 912.085 801.931 913.519 796C918.703 774.552 931.833 754.454 935.905 733C938.866 717.401 934.19 700.767 933.996 685C933.575 650.676 927.858 610.509 909.532 581C904.518 572.925 896.5 565.95 890.025 559C876.155 544.113 862.96 531.443 842 530z"/>
<path style="fill:#47714d; stroke:none;" d="M406 532L405 534L406 532M403 536L404 537L403 536M400 540L401 541L400 540M397 546L398 547L397 546z"/>
<path style="fill:#fefbf9; stroke:none;" d="M1638 546L1639 547L1638 546z"/>
<path style="fill:#47714d; stroke:none;" d="M1642 553L1644 555L1642 553z"/>
<path style="fill:#fefbf9; stroke:none;" d="M387 560L388 561L387 560z"/>
<path style="fill:#f77229; stroke:none;" d="M707 568L707 570C700.883 567.961 681.946 571.839 686 584C687.242 587.724 690.74 589.61 693 593C696.264 597.896 698.37 604.16 702 609C712.57 623.093 731.138 624.425 744 633C763.225 645.817 778.197 665.591 785 686C788.533 696.6 793.662 717.351 791 728C789.353 734.588 792.647 742.412 791 749C788.521 758.917 785.545 770.91 781 780C770.979 800.042 750.406 810.959 730 813C708.86 815.114 697.826 817.184 679 813C674.929 812.095 671.257 815.584 666 815C658.621 814.18 646.557 811.383 641 812C631.92 813.009 622.914 813.121 615 814C611.115 814.432 606.432 817.608 604 817C602.734 831.061 613.739 836.876 623 845.997C640.896 863.622 667.464 879.406 694.039 873.961C708.775 870.942 722.316 862.134 736.999 859.554C744.302 858.271 745.204 866.841 744.96 872C744.134 889.445 730.223 909.307 724.749 926C711.804 965.475 702 1011.37 702 1053C702 1124.3 705.281 1202.38 761.17 1254.29C778.474 1270.36 798.288 1289.12 821 1297.3C827.591 1299.67 843.421 1303.52 847.258 1294.81C850.29 1287.93 846.495 1277.37 843.691 1271C835.504 1252.41 820.471 1235.87 806.286 1221.71C772.486 1187.98 756.09 1136.83 754.039 1090C752.069 1045 764.685 1001.93 778.645 960C781.429 951.637 780.727 942.09 784.002 934C789.9 919.429 810.125 915.417 813.698 900C816.4 888.344 810.73 877.02 801.985 869.439C795.268 863.616 783.719 855.664 787.743 845C792.542 832.281 810.269 830.372 817.971 819.91C822.544 813.698 825.444 806.395 829.749 800C837.4 788.637 847.005 777.254 851.254 764C856.02 749.133 856.717 728.648 857.777 713.04C860.154 678.039 848 648.298 828.746 620C824.207 613.328 821.474 605.318 816.471 599.015C810.763 591.825 798.115 583.844 789.996 579.464C778.234 573.119 765.004 572.301 751.985 570.841C742.365 569.762 729.458 566.754 720 569L720 567L707 568z"/>
<path style="fill:#fefbf9; stroke:none;" d="M382 568L383 569L382 568z"/>
<path style="fill:#d6191f; stroke:none;" d="M711 568L712 569L711 568M715 568L716 569L715 568M717 568L718 569L717 568z"/>
<path style="fill:#fefbf9; stroke:none;" d="M1653 568L1654 569L1653 568z"/>
<path style="fill:#edaca2; stroke:none;" d="M727 572.71C718.62 572.822 696.196 569.834 692.619 580.019C690.189 586.938 700.976 598.85 705.025 603.907C715.535 617.029 731.852 622.102 746 629.904C755.069 634.904 763.928 643.435 770.907 651.001C778.83 659.59 783.329 671.184 787.319 682C802.075 722.009 801.327 792.262 754 811.546C719.59 825.568 680.813 818.852 644.911 818.054C636.559 817.868 628.241 818.947 619.999 820.171C617.227 820.583 612.408 821.624 612.037 825.108C611.339 831.657 626.399 842.774 630.715 847.166C645.767 862.481 672.102 873.477 694 869.536C709.138 866.811 723.102 857.888 737.999 854.206C746.319 852.15 748.556 857.754 749.571 865C751.278 877.19 743.223 890.028 738.799 901C731.091 920.12 725.757 940.085 720.63 960C706.766 1013.85 702.931 1067.86 708.834 1123C713.78 1169.2 726.377 1213.34 760 1247C775.743 1262.76 792.2 1276.77 812 1287.22C819.304 1291.08 828.361 1296.18 836.988 1294.85C844.468 1293.69 842.894 1285.4 841.711 1280C838.883 1267.1 829.096 1255.48 821.572 1245C808.223 1226.4 790.204 1211.47 777.877 1192C771.082 1181.27 767.584 1168.84 763.456 1157C754.179 1130.4 748.139 1103.48 750.089 1075C752.812 1035.24 761.906 1000.89 773.087 963C775.907 953.445 775.659 942.073 779.353 933C785.372 918.214 806.275 912.345 810.022 897C815.754 873.519 774.236 866.664 782.893 844C787.47 832.019 802.277 828.861 810.7 820.674C816.731 814.813 820.191 806.95 824.699 800C832.389 788.144 841.18 777.301 846.547 764C851.11 752.692 849.996 739.927 851.17 728C855.196 687.072 848.342 656.223 824.888 622C819.966 614.818 817.32 605.348 810.815 599.34C788.695 578.911 756.41 572.316 727 572.71z"/>
<path style="fill:#47714d; stroke:none;" d="M378 578L379 579L378 578z"/>
<path style="fill:#fefbf9; stroke:none;" d="M706.001 578.613C696.023 581.323 700.986 588.763 704.616 595C711.711 607.189 724.155 613.191 736 619.846C752.607 629.177 769.41 638.406 780.301 655.015C814.417 707.042 809.949 805.517 738.286 822.044C710.668 828.413 678.513 824.94 650.486 823.193C645.397 822.876 624.166 821.4 623.161 828.109C621.957 836.149 638.188 848.555 644 852.185C658.198 861.053 680.322 869.358 697 863.699C708.987 859.632 721.079 855.258 733 850.946C737.868 849.185 744.063 846.009 748.892 849.553C755.566 854.453 754.996 866.722 753.998 874C752.776 882.925 748.172 889.807 744.926 898C739.889 910.713 735.459 923.891 731.569 937C711.75 1003.79 703.946 1076.31 717.197 1145C723.266 1176.46 731.187 1204.73 751.739 1230C767.587 1249.49 786.15 1266.38 808 1278.85C814.813 1282.74 824.385 1290.26 832.852 1287.57C838.283 1285.84 835.343 1277.65 833.931 1274C829.564 1262.69 820.7 1251.42 813.193 1242C800.764 1226.4 785.303 1212.72 774.248 1196C768.235 1186.9 764.943 1176.1 761.189 1166C751.538 1140.03 743.662 1113.11 745.272 1085C746.399 1065.32 746.076 1045.49 749.614 1026C753.973 1001.99 763.238 980.198 769.961 957C772.323 948.847 771.036 939.957 773.965 932C779.505 916.951 801.452 910.421 804.591 895C809.102 872.841 768.597 867.984 778.133 842C783.379 827.708 801.094 825.04 809.961 813.961C821.814 799.149 836.294 779.184 842.251 761C846.499 748.031 846.973 730.619 847.911 717C850.326 681.919 840.499 653.584 820.774 625C816.164 618.319 813.5 610.368 808.1 604.188C802.275 597.523 789.965 590.353 782 586.37C771.657 581.198 760.083 581.676 748.911 579.768C736.264 577.608 718.531 575.21 706.001 578.613z"/>
<path style="fill:#47714d; stroke:none;" d="M371 591L370 593L371 591M1664 591L1665 592L1664 591M1668 597L1669 598L1668 597M365 601L366 602L365 601z"/>
<path style="fill:#fefbf9; stroke:none;" d="M1673 604L1674 605L1673 604z"/>
<path style="fill:#47714d; stroke:none;" d="M1674 608L1675 609L1674 608M362 611L363 612L362 611z"/>
<path style="fill:#fefbf9; stroke:none;" d="M1677 611L1678 612L1677 611z"/>
<path style="fill:#47714d; stroke:none;" d="M361 613L360 615L361 613z"/>
<path style="fill:#fefbf9; stroke:none;" d="M356 620L357 621L356 620M1682 621L1683 622L1682 621z"/>
<path style="fill:#47714d; stroke:none;" d="M1682 624L1683 625L1682 624z"/>
<path style="fill:#f77229; stroke:none;" d="M977 630L978 631L977 630z"/>
<path style="fill:#47714d; stroke:none;" d="M353 631L354 632L353 631M1686 636L1687 637L1686 636z"/>
<path style="fill:#f77229; stroke:none;" d="M564 638L565 639L564 638z"/>
<path style="fill:#47714d; stroke:none;" d="M1687 638L1688 639L1687 638M347 641L348 642L347 641z"/>
<path style="fill:#f77229; stroke:none;" d="M566 642L567 643L566 642z"/>
<path style="fill:#fefbf9; stroke:none;" d="M1691 647L1692 648L1691 647z"/>
<path style="fill:#47714d; stroke:none;" d="M343 652L344 653L343 652M342 654L343 655L342 654z"/>
<path style="fill:#f77229; stroke:none;" d="M1097 782C1095.78 787.604 1090.31 792.453 1086.87 797C1077.98 808.739 1067.2 819.162 1059.87 832C1052.35 845.184 1042.89 858.941 1037.21 873C1033.46 882.269 1033.21 892.668 1029.77 902C1020.64 926.773 1012.23 948.36 1010.09 975C1008.82 990.775 1003.08 1014.11 1010.57 1028.98C1015.91 1039.59 1034.6 1044.57 1043.9 1036.61C1057.01 1025.36 1042.73 1008.18 1048.34 994.985C1055.98 977.008 1060.62 957.954 1068.42 940C1075.01 924.856 1084.16 910.722 1091.63 896C1101.87 875.806 1113.39 854.523 1131 839.754C1141.13 831.261 1152.35 812.469 1166.91 811.831C1179.53 811.279 1186.12 841.7 1188.86 851C1197.05 878.886 1197.13 910.438 1193.71 939C1191.95 953.736 1181.81 974.402 1186.65 988.957C1189.74 998.223 1209.27 996.431 1216.01 992.51C1231.87 983.296 1234 961.747 1234 945C1234 907.433 1239.45 865.257 1225.53 829C1222.69 821.599 1219.11 812.294 1214.32 806C1209.68 799.919 1202.44 795.203 1201.56 787C1199.61 768.732 1233.58 755.785 1247 751.471C1251.42 750.049 1255.06 745.207 1260 745.734C1265.03 746.27 1268.56 751.376 1271.42 755.004C1280.22 766.151 1282.51 776.536 1285.87 790C1297.88 838.06 1293.14 890.166 1289.93 938.996C1288.88 954.911 1285.06 994.752 1307.42 994.712C1329.12 994.674 1341.9 974.3 1343.83 955C1345.02 943.072 1343.95 929.712 1341.55 918C1340.1 910.902 1336.66 904.378 1336.46 897C1336.05 882.243 1338.92 866.799 1339.62 852C1340.76 828.306 1338.21 802.077 1332.12 779C1328.63 765.817 1322.19 754.878 1315.77 743C1312.61 737.159 1308.12 729.954 1309.83 723.001C1314.91 702.343 1339.99 723.162 1348 729.486C1359.41 738.498 1371.82 746.424 1380.96 758.039C1391.87 771.916 1399.65 793.873 1403.49 811C1414.85 861.731 1411.43 910.682 1401.2 961C1397.71 978.164 1392.8 1005.77 1378.7 1017.57C1367.26 1027.15 1354.81 1023.61 1342.13 1026.92C1335.62 1028.61 1330.69 1034.1 1324.17 1035.89C1318.09 1037.56 1311.71 1036.61 1305.54 1037.46C1291.11 1039.47 1276.06 1042.8 1262 1046.75C1249.62 1050.22 1234.93 1053.85 1224 1060.71C1213.24 1067.46 1205.05 1077.54 1196.84 1087C1167.07 1121.3 1148.38 1165.61 1146 1211C1153.11 1217.7 1166.87 1239.75 1162.98 1250C1159 1260.46 1148.14 1263.42 1148 1276C1147.64 1310.09 1156.04 1342.96 1166.48 1375C1170.79 1388.22 1176.89 1417.84 1193 1421.58C1201.64 1423.58 1204.75 1414.59 1208.78 1409.01C1216.59 1398.23 1229.13 1390.1 1225.24 1375C1219.1 1351.14 1209.55 1327.71 1205.25 1303C1200.92 1278.14 1202.36 1254.54 1202.6 1229.75C1202.74 1214.65 1201.62 1199.06 1204.47 1184C1209.12 1159.4 1227.22 1131.66 1246 1115.58C1254.19 1108.57 1263.74 1100.8 1274 1097.09C1284.5 1093.3 1295.68 1093.17 1306.09 1089.86C1318.37 1085.94 1334.26 1078.74 1347 1086C1352.19 1081.53 1362.4 1082.61 1368.92 1082.68C1386.73 1082.87 1407.68 1086.47 1419.5 1069.96C1424.8 1062.55 1426.89 1054.78 1431.17 1047C1437.58 1035.37 1445.87 1025.6 1450.63 1013C1457.07 995.912 1458.8 977.942 1461.16 960C1466.18 921.804 1466.32 885.362 1461.28 847C1456.8 812.912 1449.09 777.3 1430.53 748C1421.85 734.298 1412.92 719.325 1400.96 708.174C1391.85 699.681 1380.26 693.6 1370 686.641C1350.5 673.407 1331.32 662.586 1307.13 660.466C1287.26 658.724 1277.19 669.811 1260 676.536C1244.02 682.789 1227.46 687.786 1212 695.522C1186.45 708.305 1162.68 725.509 1140 742.749C1129.35 750.846 1119.9 759.505 1111.04 769.486C1107.14 773.879 1103.21 781.17 1097 782M1314 660L1315 661L1314 660z"/>
<path style="fill:#47714d; stroke:none;" d="M340 661L338 664L340 661z"/>
<path style="fill:#edaca2; stroke:none;" d="M1252 740L1253 736C1276.25 744.083 1282.86 763.623 1288.91 785C1300.95 827.536 1298.9 875.341 1295.91 919C1294.68 936.956 1292.77 953.104 1295.56 971C1296.57 977.503 1294.97 985.165 1302.02 988.821C1307.71 991.769 1314.74 988.113 1320 985.85C1342.78 976.055 1341.31 947.857 1338.71 927C1337.49 917.2 1332.16 907.819 1332.02 898C1331.53 863.731 1339.67 828.075 1331.76 794C1328.53 780.064 1324.16 766.467 1317.05 754C1312.52 746.057 1303.09 733.727 1304.62 724C1307.02 708.741 1320.47 707.573 1332 712.901C1350.58 721.483 1374.58 741.007 1385.9 758C1402.2 782.475 1408.69 811.393 1412.16 840C1417.13 881.02 1416 918.769 1405.9 959C1400.8 979.284 1397.02 1011.23 1378 1023.89C1366.7 1031.41 1354.34 1029.58 1342 1032.76C1335.3 1034.49 1329.82 1039.03 1323 1040.48C1291.19 1047.27 1256.84 1048.05 1227 1063.67C1207.57 1073.85 1190.97 1098.82 1179.71 1117C1167.78 1136.25 1159.47 1159.96 1154.58 1182C1152.86 1189.72 1149.78 1197.99 1150.97 1206C1153.19 1220.83 1168.02 1230.17 1167.99 1246C1167.97 1257.64 1155.42 1261.3 1153.13 1272C1151.76 1278.38 1153.68 1284.63 1153.96 1291C1154.73 1308.63 1156.33 1325.81 1160.63 1343C1165.06 1360.74 1171.36 1378.1 1178.2 1395C1180.98 1401.86 1184.92 1412.03 1192.01 1415.42C1198.41 1418.48 1201.08 1412.43 1204.29 1408C1210.5 1399.42 1223.23 1389.56 1220.97 1378C1216.66 1355.89 1207.48 1334.24 1202.8 1312C1195.95 1279.41 1195.26 1246.01 1197.91 1213C1199.36 1195.05 1200.83 1177.95 1207.46 1161C1211.52 1150.64 1219.6 1139.42 1225.7 1130C1243.79 1102.07 1274.06 1092.44 1304 1085.32C1311.02 1083.65 1316.1 1078.71 1323.66 1078.69C1341.8 1078.65 1359.88 1077.99 1378 1078C1387.63 1078 1398.1 1079.88 1407 1075.08C1418.92 1068.66 1421.52 1056.1 1427.26 1045C1432.45 1034.96 1439.32 1026.24 1444.26 1016C1452.38 999.18 1453.16 981.101 1456.42 963C1464.9 915.988 1462.27 866.582 1452.21 820C1448.13 801.082 1443.86 780.211 1434.68 763C1409.45 715.697 1356.98 664.649 1299.54 665.204C1287.18 665.323 1280.45 671.5 1270 676.73C1260.31 681.578 1249.12 684.99 1239 688.938C1176.69 713.253 1123.85 756.59 1083.12 809C1061.32 837.047 1043.99 864.44 1035.33 899C1031.71 913.489 1023.53 926.609 1019.43 941C1015.05 956.349 1014.65 972.266 1012.72 988C1011.37 998.935 1008.89 1018.11 1015.09 1027.9C1020.72 1036.8 1040.71 1038.45 1044.35 1027C1047.6 1016.77 1039.6 1006.6 1042.7 997C1044.71 990.767 1048.93 985.253 1051.14 979C1067.22 933.32 1085.58 890.621 1114.29 851C1123.9 837.746 1139 823.862 1152 813.9C1157.25 809.88 1163.13 806.273 1170 807.19C1183.15 808.944 1188.14 834.477 1191.65 845C1200.92 872.836 1202.14 906.026 1198.71 935C1197.03 949.284 1187.4 971.058 1191.43 984.957C1194.55 995.71 1213.04 989.86 1218.9 985.211C1230.45 976.042 1228.98 954.061 1229 941C1229.04 904.558 1234.44 865.15 1220.55 830C1217.87 823.216 1215.59 815.931 1211.24 810C1204.82 801.253 1195.22 794.149 1197.33 782C1199.78 767.868 1212.13 764.086 1223 758.096C1232.88 752.649 1242.3 745.839 1252 740z"/>
<path style="fill:#47714d; stroke:none;" d="M1700 666L1701 667L1700 666z"/>
<path style="fill:#fefbf9; stroke:none;" d="M1296.96 670.569C1286.79 671.637 1280.03 677.459 1271 681.485C1259.23 686.733 1246.88 691.03 1235 696.127C1175.26 721.764 1127.65 761.496 1087.33 812C1070.87 832.629 1055.59 854.447 1045.28 879C1041.38 888.308 1040.97 898.557 1037.61 908C1027.79 935.616 1017.05 961.932 1017 992C1016.98 1004.78 1011.88 1029.31 1031 1029.51C1036.27 1029.57 1039.49 1026.02 1039.91 1021C1040.53 1013.42 1036.07 1006.65 1036.99 999C1037.65 993.488 1041.44 988.942 1043.69 984C1046.89 976.951 1048.52 969.379 1050.72 962C1056.11 943.901 1064.57 928.771 1072.74 912C1087.28 882.163 1102.99 852.158 1128.04 829.7C1136.96 821.707 1146.58 808.435 1158 804.257C1181.86 795.524 1190.13 821.878 1195.56 840C1205.5 873.169 1205.27 906.721 1202.91 941C1202.1 952.795 1194.65 967.641 1196.27 978.985C1197.52 987.75 1210.66 985.447 1215.67 981.576C1228.55 971.636 1222.84 944.964 1224.17 931C1227.33 897.748 1225.9 860.901 1214.92 829C1209.94 814.527 1191.31 801.122 1191.18 786C1190.98 762.415 1215.22 761.602 1227.58 748.486C1234.48 741.166 1234.06 730.921 1246 728.048C1263.84 723.755 1286.87 753.989 1290.35 769C1302.36 820.86 1309.01 877.957 1299.46 931C1297.07 944.321 1297.74 956.95 1300.76 970C1302.5 977.505 1301.67 985.432 1312 983.671C1347.38 977.64 1333.17 925.381 1327.16 903C1325.06 895.184 1328.9 888.764 1329 881C1329.17 867.219 1327.72 852.469 1328.38 839C1328.88 828.948 1330.92 819.214 1329.83 809C1328.16 793.452 1322.61 775.918 1315.63 762C1310.64 752.037 1302.77 741.906 1300.04 731C1295.44 712.57 1313.68 699.868 1330 706.453C1339.71 710.37 1347.7 717.305 1356 723.526C1366.89 731.697 1379.65 740.886 1387.7 752.004C1403.18 773.374 1409.55 797.788 1414.26 823C1422.01 864.509 1422.89 905.745 1413.67 947C1407.99 972.37 1404.52 1008.68 1383 1026.38C1371.49 1035.85 1357.74 1035.15 1343.96 1038.04C1336.96 1039.51 1330.96 1043.71 1324 1045.4C1311.87 1048.36 1298.41 1048.38 1286 1050.61C1271.89 1053.16 1259.51 1059.09 1246 1063.41C1240.38 1065.2 1234.19 1064.91 1229 1068C1209.06 1079.87 1191.11 1105.76 1180.49 1126C1171.33 1143.45 1165.11 1162.02 1160.12 1181C1158.03 1188.93 1154.84 1197.68 1156.33 1206C1159.14 1221.74 1172.23 1230.52 1172 1248C1171.84 1259.6 1160.64 1262.84 1158.07 1273C1156.47 1279.36 1158.47 1286.59 1158.91 1293C1159.97 1308.41 1161.18 1323.86 1164.65 1339C1168.78 1356.99 1174.61 1376.41 1182.76 1393C1184.97 1397.51 1188.07 1407.94 1194 1408.53C1198.18 1408.95 1201.19 1403.79 1203.4 1401C1209.47 1393.32 1218.27 1385.58 1214.91 1375C1199.14 1325.35 1190.71 1277.18 1191.99 1225C1192.52 1203.23 1193.44 1176.88 1203.38 1157C1216.04 1131.68 1235.33 1106.45 1261 1093.26C1274.85 1086.14 1288.24 1083.52 1303.04 1079.93C1309.32 1078.41 1314.36 1074.18 1320.99 1073.58C1340.86 1071.79 1361.83 1073.49 1381.91 1072.92C1392.4 1072.62 1402.61 1073.71 1410.91 1065.81C1417.56 1059.48 1418.72 1049.78 1423.15 1042C1432.67 1025.27 1442.67 1010.99 1447.52 992C1449.68 983.547 1449.14 974.619 1450.29 966C1451.24 958.867 1454.12 952.226 1454.83 945C1460.54 886.998 1454.95 822.056 1431.53 768C1428.46 760.913 1423.04 754.786 1419.31 748C1407 725.644 1389.33 711.566 1369 697.09C1348.64 682.595 1323.25 667.808 1296.96 670.569M1704 672L1705 673L1704 672z"/>
<path style="fill:#47714d; stroke:none;" d="M335.333 673.667L335.667 674.333L335.333 673.667M1704 675L1705 676L1704 675z"/>
<path style="fill:#fefbf9; stroke:none;" d="M1708 681L1710 683L1708 681z"/>
<path style="fill:#47714d; stroke:none;" d="M330 687L331 688L330 687z"/>
<path style="fill:#fefbf9; stroke:none;" d="M1713 693L1714 694L1713 693z"/>
<path style="fill:#47714d; stroke:none;" d="M327 695L328 696L327 695z"/>
<path style="fill:#fefbf9; stroke:none;" d="M1714 695L1715 696L1714 695z"/>
<path style="fill:#47714d; stroke:none;" d="M327 697L328 698L327 697M326 699L327 700L326 699M1714 700L1715 701L1714 700z"/>
<path style="fill:#fefbf9; stroke:none;" d="M1717 706L1718 707L1717 706M321 708L322 709L321 708M320 710L321 711L320 710M317 720L318 721L317 720M1722 720L1723 721L1722 720M1721 722L1722 723L1721 722M316 724L317 725L316 724z"/>
<path style="fill:#47714d; stroke:none;" d="M317 727L318 728L317 727M316 729L317 730L316 729z"/>
<path style="fill:#fefbf9; stroke:none;" d="M312 738L313 739L312 738M312 740L313 741L312 740M1726 740L1727 741L1726 740M311 742L312 743L311 742z"/>
<path style="fill:#47714d; stroke:none;" d="M313 744L314 745L313 744M1726 744L1727 745L1726 744M312 746L313 747L312 746z"/>
<path style="fill:#f77229; stroke:none;" d="M1246 753L1247 754L1246 753M1248 753L1249 754L1248 753z"/>
<path style="fill:#fefbf9; stroke:none;" d="M1731 757L1732 758L1731 757M308 760L309 761L308 760z"/>
<path style="fill:#47714d; stroke:none;" d="M309 765L310 766L309 765M309 767L308 769L309 767z"/>
<path style="fill:#fefbf9; stroke:none;" d="M1735 769L1736 770L1735 769z"/>
<path style="fill:#47714d; stroke:none;" d="M1735 774L1736 775L1735 774M305 783L306 784L305 783z"/>
<path style="fill:#fefbf9; stroke:none;" d="M1739 787L1741 789L1739 787z"/>
<path style="fill:#47714d; stroke:none;" d="M1739 792L1740 793L1739 792z"/>
<path style="fill:#f77229; stroke:none;" d="M948 795L949 796L948 795z"/>
<path style="fill:#d6191f; stroke:none;" d="M951 795L952 796L951 795z"/>
<path style="fill:#edaca2; stroke:none;" d="M959 797L960 798L959 797z"/>
<path style="fill:#d6191f; stroke:none;" d="M951 798L952 799L951 798z"/>
<path style="fill:#edaca2; stroke:none;" d="M961 798L962 799L961 798z"/>
<path style="fill:#fefbf9; stroke:none;" d="M299 802L300 803L299 802M1743 804L1744 805L1743 804M298 806L299 807L298 806M1744 808L1745 809L1744 808M1745 810L1746 811L1745 810z"/>
<path style="fill:#d6191f; stroke:none;" d="M640 813L641 814L640 813M642 813L643 814L642 813M644 813L645 814L644 813M646 813L647 814L646 813M648 813L649 814L648 813M628 814L629 815L628 814M663 814L664 815L663 814z"/>
<path style="fill:#f77229; stroke:none;" d="M1004 816L1005 817L1004 816M1121 1254L1122 1254L1122 1252L1123 1252L1123 1254L1128 1253C1128 1250.07 1132.47 1250.26 1135 1248.83C1139.42 1246.33 1141.69 1240.93 1140.67 1236C1137.56 1221.08 1119.8 1208.6 1109.17 1198.67C1080.69 1172.06 1043.9 1150.04 1022.33 1117C993.455 1072.76 986.962 1028.82 992 977C993.405 962.544 993.52 945.864 998.333 932C1002.71 919.392 1010.37 907.903 1014.67 895C1021.52 874.449 1010.62 858.831 1000.33 842C996.959 836.479 993.787 829.375 988 826C979.173 820.851 971.199 826.936 967.167 835C957.685 853.964 950.952 878.526 945.833 899C926.739 975.378 930.072 1053.71 967.167 1124C977.85 1144.24 991.773 1160.13 1007 1177C1024.89 1196.82 1039.69 1216.17 1062 1231.67C1074.03 1240.02 1090.2 1245.87 1104 1250.67C1107.28 1251.81 1120.13 1252.18 1121 1254z"/>
<path style="fill:#fefbf9; stroke:none;" d="M295 828L296 829L295 828z"/>
<path style="fill:#edaca2; stroke:none;" d="M978.09 829.758C970.196 832.76 968.006 844.93 966.115 852C961.066 870.88 953.481 889.157 948.14 908C928.566 977.061 935.675 1057.93 970.312 1121C983.841 1145.63 1002.53 1165.58 1020.44 1187C1040.76 1211.31 1063.18 1228.41 1092 1241.14C1102.92 1245.96 1120.65 1251.28 1131.9 1244.44C1141.43 1238.64 1132.89 1228.62 1127.83 1223C1113.38 1206.94 1096.24 1193.45 1080 1179.29C1060.68 1162.43 1039.64 1146.26 1023.67 1126C979.566 1070.03 982.547 1005.58 992.427 939C995.284 919.749 1009.52 903.701 1012.56 884C1015.01 868.145 1002.21 852.119 993.72 840C990.354 835.193 985.258 827.032 978.09 829.758z"/>
<path style="fill:#fefbf9; stroke:none;" d="M1748 829L1749 830L1748 829M1748 831L1749 832L1748 831M294 832L295 833L294 832M1748 833L1749 834L1748 833M980.043 835.891C972.233 837.77 969.764 855.537 967.856 862C959.946 888.781 947.876 915.961 945.911 944C943.568 977.427 941.475 1012.79 947.463 1046C957.679 1102.66 992.851 1149.74 1030.83 1190.96C1049.12 1210.81 1066.54 1223.93 1091 1234.9C1100.42 1239.12 1114.58 1245.14 1125.07 1240.8C1135.78 1236.37 1123.48 1226.29 1119.35 1222C1105.05 1207.16 1089.28 1194.06 1073.83 1180.4C1055.4 1164.11 1034.75 1148.75 1019.75 1129C976.522 1072.1 972.737 998.96 988.529 931C991.43 918.516 1001.3 907.569 1004.84 895C1010.01 876.72 1003.65 862.896 993.091 848C990.435 844.253 985.793 834.507 980.043 835.891M1749 835L1750 836L1749 835z"/>
<path style="fill:#47714d; stroke:none;" d="M295.333 839.667L295.667 840.333L295.333 839.667z"/>
<path style="fill:#fefbf9; stroke:none;" d="M1752 857L1753 858L1752 857M1753 860L1754 861L1753 860M1752 862L1753 863L1752 862M1753 868L1754 869L1753 868M1753 870L1754 871L1753 870M1753 872L1754 873L1753 872M290 873L291 874L290 873z"/>
<path style="fill:#47714d; stroke:none;" d="M1751 874L1752 875L1751 874z"/>
<path style="fill:#fefbf9; stroke:none;" d="M1754 874L1755 875L1754 874M290 876L291 877L290 876z"/>
<path style="fill:#47714d; stroke:none;" d="M1752 876L1753 877L1752 876z"/>
<path style="fill:#fefbf9; stroke:none;" d="M290 878L291 879L290 878z"/>
<path style="fill:#47714d; stroke:none;" d="M1752 878L1753 879L1752 878z"/>
<path style="fill:#fefbf9; stroke:none;" d="M290 880L291 881L290 880M290 882L291 883L290 882z"/>
<path style="fill:#47714d; stroke:none;" d="M1752 883L1753 884L1752 883z"/>
<path style="fill:#fefbf9; stroke:none;" d="M289 884L290 885L289 884z"/>
<path style="fill:#47714d; stroke:none;" d="M1753 885L1754 886L1753 885z"/>
<path style="fill:#fefbf9; stroke:none;" d="M290 886L291 887L290 886M289 892L290 893L289 892M289 896L290 897L289 896z"/>
<path style="fill:#47714d; stroke:none;" d="M291 898L292 899L291 898z"/>
<path style="fill:#fefbf9; stroke:none;" d="M289 900L290 901L289 900z"/>
<path style="fill:#47714d; stroke:none;" d="M291 902L292 903L291 902z"/>
<path style="fill:#fefbf9; stroke:none;" d="M289 904L290 905L289 904z"/>
<path style="fill:#47714d; stroke:none;" d="M291 906L292 907L291 906z"/>
<path style="fill:#fefbf9; stroke:none;" d="M289 908L290 909L289 908M289 910L290 911L289 910z"/>
<path style="fill:#47714d; stroke:none;" d="M291 912L292 913L291 912z"/>
<path style="fill:#fefbf9; stroke:none;" d="M289 914L290 915L289 914M289 918L290 919L289 918M289 924L290 925L289 924z"/>
<path style="fill:#47714d; stroke:none;" d="M291 926L292 927L291 926z"/>
<path style="fill:#f77229; stroke:none;" d="M903 927L904 928L903 927z"/>
<path style="fill:#47714d; stroke:none;" d="M291 930L290 932L291 930z"/>
<path style="fill:#fefbf9; stroke:none;" d="M289 938L290 939L289 938z"/>
<path style="fill:#47714d; stroke:none;" d="M291 940L292 941L291 940z"/>
<path style="fill:#fefbf9; stroke:none;" d="M289 942L290 943L289 942M289 944L290 945L289 944z"/>
<path style="fill:#47714d; stroke:none;" d="M291 946L292 947L291 946z"/>
<path style="fill:#fefbf9; stroke:none;" d="M289 948L290 949L289 948z"/>
<path style="fill:#47714d; stroke:none;" d="M291 950L292 951L291 950M291 953L292 954L291 953M291 955L292 956L291 955M291 957L292 958L291 957z"/>
<path style="fill:#fefbf9; stroke:none;" d="M289 959L290 960L289 959M290 962L291 963L290 962M289 964L290 965L289 964M290 966L291 967L290 966M290 968L291 969L290 968M289 970L290 971L289 970z"/>
<path style="fill:#47714d; stroke:none;" d="M292 973L293 974L292 973z"/>
<path style="fill:#f77229; stroke:none;" d="M1369 1000L1370 1001L1369 1000z"/>
<path style="fill:#47714d; stroke:none;" d="M1753 1004L1754 1005L1753 1004M294 1005L295 1006L294 1005z"/>
<path style="fill:#fefbf9; stroke:none;" d="M294 1010L295 1011L294 1010M294 1012L295 1013L294 1012z"/>
<path style="fill:#47714d; stroke:none;" d="M1752 1012L1753 1013L1752 1012M1752 1014L1753 1015L1752 1014z"/>
<path style="fill:#fefbf9; stroke:none;" d="M294 1015L295 1016L294 1015z"/>
<path style="fill:#47714d; stroke:none;" d="M1751 1019L1751 1022L1752 1022L1751 1019z"/>
<path style="fill:#fefbf9; stroke:none;" d="M295 1020L296 1021L295 1020M1753 1023L1752 1025L1753 1023M1752 1026L1753 1027L1752 1026z"/>
<path style="fill:#d6191f; stroke:none;" d="M1343 1027L1344 1028L1343 1027M1345 1027L1346 1028L1345 1027z"/>
<path style="fill:#fefbf9; stroke:none;" d="M1752 1028L1753 1029L1752 1028z"/>
<path style="fill:#47714d; stroke:none;" d="M298 1033L299 1034L298 1033M299 1036L300 1037L299 1036M300 1038L301 1039L300 1038z"/>
<path style="fill:#fefbf9; stroke:none;" d="M298 1040L299 1041L298 1040M299 1044L300 1045L299 1044M1750 1049L1751 1050L1750 1049M1750 1052L1751 1053L1750 1052M1748 1056L1749 1057L1748 1056M1748 1058L1749 1059L1748 1058M302 1060L303 1061L302 1060M1748 1061L1749 1062L1748 1061M303 1062L304 1063L303 1062M304 1064L305 1065L304 1064z"/>
<path style="fill:#47714d; stroke:none;" d="M1743 1077L1744 1078L1743 1077z"/>
<path style="fill:#fefbf9; stroke:none;" d="M1745 1079L1744 1081L1745 1079z"/>
<path style="fill:#47714d; stroke:none;" d="M308 1081L309 1082L308 1081z"/>
<path style="fill:#fefbf9; stroke:none;" d="M1744 1084L1745 1085L1744 1084M307 1086L308 1087L307 1086M308 1088L309 1089L308 1088z"/>
<path style="fill:#47714d; stroke:none;" d="M1738 1099L1739 1100L1738 1099M312 1102L313 1103L312 1102z"/>
<path style="fill:#fefbf9; stroke:none;" d="M1740 1103L1741 1104L1740 1103z"/>
<path style="fill:#47714d; stroke:none;" d="M313 1104L314 1105L313 1104z"/>
<path style="fill:#fefbf9; stroke:none;" d="M1739 1105L1740 1106L1739 1105M311 1106L312 1107L311 1106z"/>
<path style="fill:#47714d; stroke:none;" d="M314 1107L315 1108L314 1107z"/>
<path style="fill:#fefbf9; stroke:none;" d="M312 1109L313 1110L312 1109M312 1112L313 1113L312 1112M1737 1116L1738 1117L1737 1116z"/>
<path style="fill:#47714d; stroke:none;" d="M316 1118L317 1119L316 1118z"/>
<path style="fill:#fefbf9; stroke:none;" d="M1735 1119L1736 1120L1735 1119M315 1121L316 1122L315 1121z"/>
<path style="fill:#47714d; stroke:none;" d="M318.333 1121.67L318.667 1122.33L318.333 1121.67z"/>
<path style="fill:#fefbf9; stroke:none;" d="M316 1124L317 1125L316 1124M1730 1133L1731 1134L1730 1133z"/>
<path style="fill:#47714d; stroke:none;" d="M321 1134L322 1135L321 1134z"/>
<path style="fill:#fefbf9; stroke:none;" d="M1727 1147L1728 1148L1727 1147z"/>
<path style="fill:#47714d; stroke:none;" d="M326 1148L327 1149L326 1148z"/>
<path style="fill:#fefbf9; stroke:none;" d="M1726 1149L1727 1150L1726 1149M325 1152L326 1153L325 1152M1723 1163L1722 1165L1723 1163M330 1165L331 1166L330 1165M1722 1166L1723 1167L1722 1166M334 1177L335 1178L334 1177M1717 1182L1718 1183L1717 1182M339 1188L340 1189L339 1188M1714 1193L1713 1195L1714 1193M1712 1198L1713 1199L1712 1198z"/>
<path style="fill:#47714d; stroke:none;" d="M345 1200L346 1201L345 1200M1708 1204L1709 1205L1708 1204z"/>
<path style="fill:#fefbf9; stroke:none;" d="M1710 1206L1711 1207L1710 1206M1708 1207L1709 1208L1708 1207z"/>
<path style="fill:#47714d; stroke:none;" d="M348 1208L350 1210L348 1208z"/>
<path style="fill:#fefbf9; stroke:none;" d="M347 1211L348 1212L347 1211z"/>
<path style="fill:#47714d; stroke:none;" d="M353 1218L354 1219L353 1218M357 1226L358 1227L357 1226z"/>
<path style="fill:#fefbf9; stroke:none;" d="M1697 1232L1698 1233L1697 1232z"/>
<path style="fill:#47714d; stroke:none;" d="M360 1236L363 1239L360 1236z"/>
<path style="fill:#fefbf9; stroke:none;" d="M1692 1241L1693 1242L1692 1241M363 1247L364 1248L363 1247z"/>
<path style="fill:#47714d; stroke:none;" d="M366 1248L367 1249L366 1248z"/>
<path style="fill:#fefbf9; stroke:none;" d="M364 1251L365 1252L364 1251z"/>
<path style="fill:#f77229; stroke:none;" d="M1125 1253L1126 1254L1125 1253M1114 1254L1115 1255L1114 1254M1116 1254L1117 1255L1116 1254M1118 1254L1119 1255L1118 1254z"/>
<path style="fill:#fefbf9; stroke:none;" d="M368 1258L369 1259L368 1258z"/>
<path style="fill:#47714d; stroke:none;" d="M371 1258L372 1259L371 1258z"/>
<path style="fill:#fefbf9; stroke:none;" d="M372 1265L373 1266L372 1265M378 1274L379 1275L378 1274M1679 1275L1680 1276L1679 1275z"/>
<path style="fill:#47714d; stroke:none;" d="M383 1280L384 1281L383 1280M1673 1281L1672 1283L1673 1281z"/>
<path style="fill:#fefbf9; stroke:none;" d="M383 1284L384 1285L383 1284M386 1288L387 1289L386 1288M1670 1289L1671 1290L1670 1289M390 1295L391 1296L390 1295M1666 1295L1667 1296L1666 1295M392 1296L393 1297L392 1296z"/>
<path style="fill:#47714d; stroke:none;" d="M396 1302L398 1304L396 1302z"/>
<path style="fill:#f77229; stroke:none;" d="M788 1302L789 1303L788 1302z"/>
<path style="fill:#fefbf9; stroke:none;" d="M396 1306L397 1307L396 1306M399 1313L400 1314L399 1313M1656 1313L1657 1314L1656 1313M403 1318L404 1319L403 1318z"/>
<path style="fill:#47714d; stroke:none;" d="M406 1318L407 1319L406 1318z"/>
<path style="fill:#d6191f; stroke:none;" d="M992 1319L993 1320L992 1319z"/>
<path style="fill:#fefbf9; stroke:none;" d="M1651 1321L1652 1322L1651 1321z"/>
<path style="fill:#f77229; stroke:none;" d="M998 1322L999 1323L998 1322M1003 1322L1004 1323L1003 1322z"/>
<path style="fill:#47714d; stroke:none;" d="M1646 1326L1647 1327L1646 1326z"/>
<path style="fill:#fefbf9; stroke:none;" d="M418 1340L419 1341L418 1340M420 1344L421 1345L420 1344M422 1346L423 1347L422 1346M1634 1348L1635 1349L1634 1348M425 1350L426 1351L425 1350M1631 1353L1632 1354L1631 1353M430 1358L431 1359L430 1358M434 1362L435 1363L434 1362M1624 1363L1625 1364L1624 1363z"/>
<path style="fill:#47714d; stroke:none;" d="M440 1366L441 1367L440 1366z"/>
<path style="fill:#fefbf9; stroke:none;" d="M1620 1366L1621 1367L1620 1366M439 1369L440 1370L439 1369z"/>
<path style="fill:#47714d; stroke:none;" d="M1616 1371L1617 1372L1616 1371M443 1372L444 1373L443 1372z"/>
<path style="fill:#fefbf9; stroke:none;" d="M444 1376L445 1377L444 1376M1612 1379L1613 1380L1612 1379M447 1380L448 1381L447 1380z"/>
<path style="fill:#f77229; stroke:none;" d="M1320 1381L1321 1382L1320 1381z"/>
<path style="fill:#fefbf9; stroke:none;" d="M1611 1381L1612 1382L1611 1381M1608 1385L1609 1386L1608 1385M452 1388L453 1389L452 1388M1605 1390L1606 1391L1605 1390M457 1392L458 1393L457 1392M461 1396L462 1397L461 1396M1596 1399L1597 1400L1596 1399z"/>
<path style="fill:#47714d; stroke:none;" d="M466 1400L467 1401L466 1400z"/>
<path style="fill:#fefbf9; stroke:none;" d="M1586 1411L1587 1412L1586 1411M473 1412L474 1413L473 1412M476 1414L477 1415L476 1414z"/>
<path style="fill:#47714d; stroke:none;" d="M479 1416L480 1417L479 1416M483 1420L484 1421L483 1420z"/>
<path style="fill:#fefbf9; stroke:none;" d="M1577 1423L1578 1424L1577 1423z"/>
<path style="fill:#47714d; stroke:none;" d="M487 1424L488 1425L487 1424z"/>
<path style="fill:#fefbf9; stroke:none;" d="M1572 1427L1573 1428L1572 1427z"/>
<path style="fill:#47714d; stroke:none;" d="M1569 1429L1570 1430L1569 1429z"/>
<path style="fill:#fefbf9; stroke:none;" d="M497 1436L498 1437L497 1436M1563 1437L1564 1438L1563 1437M500 1441L501 1442L500 1441M1559 1441L1560 1442L1559 1441M504 1445L505 1446L504 1445z"/>
<path style="fill:#47714d; stroke:none;" d="M1553 1445L1554 1446L1553 1445M511 1449L512 1450L511 1449z"/>
<path style="fill:#fefbf9; stroke:none;" d="M508 1450L509 1451L508 1450M1550 1451L1551 1452L1550 1451M513 1454L514 1455L513 1454M515 1455L516 1456L515 1455M1546 1455L1547 1456L1546 1455M1541 1460L1542 1461L1541 1460M525 1464L526 1465L525 1464M1537 1464L1538 1465L1537 1464M1529 1472L1530 1473L1529 1472M1525 1475L1526 1476L1525 1475z"/>
<path style="fill:#47714d; stroke:none;" d="M1521 1477L1522 1478L1521 1477M544 1480L545 1481L544 1480M547 1482L548 1483L547 1482z"/>
<path style="fill:#fefbf9; stroke:none;" d="M1515 1484L1516 1485L1515 1484M553 1490L554 1491L553 1490M1508 1491L1509 1492L1508 1491M1506 1492L1507 1493L1506 1492M557 1494L558 1495L557 1494M1498 1498L1499 1499L1498 1498M566 1500L567 1501L566 1500z"/>
<path style="fill:#47714d; stroke:none;" d="M572 1501L573 1502L572 1501z"/>
<path style="fill:#fefbf9; stroke:none;" d="M572 1504L573 1505L572 1504M1486 1507L1487 1508L1486 1507M577 1508L578 1509L577 1508M1481 1513L1482 1514L1481 1513M583 1515L584 1516L583 1515M588 1518L589 1519L588 1518M592 1520L593 1521L592 1520z"/>
<path style="fill:#47714d; stroke:none;" d="M605 1527L608 1530L605 1527z"/>
<path style="fill:#fefbf9; stroke:none;" d="M1451 1533L1452 1534L1451 1533M618 1538L620 1540L618 1538M1446 1538L1447 1539L1446 1538M624 1542L625 1543L624 1542M630 1546L631 1547L630 1546z"/>
<path style="fill:#47714d; stroke:none;" d="M1431 1546L1432 1547L1431 1546z"/>
<path style="fill:#fefbf9; stroke:none;" d="M1435 1547L1436 1548L1435 1547M1433 1548L1434 1549L1433 1548M1428 1550L1429 1551L1428 1550z"/>
<path style="fill:#47714d; stroke:none;" d="M640 1551L641 1552L640 1551z"/>
<path style="fill:#fefbf9; stroke:none;" d="M637 1553L638 1554L637 1553M1424 1553L1425 1554L1424 1553M645 1556L646 1557L645 1556M1418 1557L1419 1558L1418 1557M1410 1559L1411 1560L1410 1559M654 1560L655 1561L654 1560z"/>
<path style="fill:#47714d; stroke:none;" d="M1400 1565L1401 1566L1400 1565z"/>
<path style="fill:#fefbf9; stroke:none;" d="M1397 1569L1398 1570L1397 1569M1389 1573L1390 1574L1389 1573M676 1574L677 1575L676 1574z"/>
<path style="fill:#47714d; stroke:none;" d="M679 1574L680 1575L679 1574M1380 1576L1381 1577L1380 1576z"/>
<path style="fill:#fefbf9; stroke:none;" d="M682 1577L683 1578L682 1577M1382 1578L1383 1579L1382 1578z"/>
<path style="fill:#47714d; stroke:none;" d="M692 1580L694 1582L692 1580z"/>
<path style="fill:#fefbf9; stroke:none;" d="M1374 1581L1375 1582L1374 1581M689 1582L690 1583L689 1582M1373 1583L1374 1584L1373 1583M1367 1585L1368 1586L1367 1585M701 1586L702 1587L701 1586z"/>
<path style="fill:#47714d; stroke:none;" d="M711 1589L713 1591L711 1589M1353 1589L1354 1590L1353 1589z"/>
<path style="fill:#fefbf9; stroke:none;" d="M707 1590L708 1591L707 1590M709 1591L710 1592L709 1591M1356 1591L1357 1592L1356 1591M1353 1592L1354 1593L1353 1592z"/>
<path style="fill:#47714d; stroke:none;" d="M721 1594L722 1595L721 1594z"/>
<path style="fill:#fefbf9; stroke:none;" d="M1347 1595L1348 1596L1347 1595M719 1596L720 1597L719 1596M1343 1597L1344 1598L1343 1597z"/>
<path style="fill:#47714d; stroke:none;" d="M732 1598L733 1599L732 1598M1335 1598L1336 1599L1335 1598z"/>
<path style="fill:#fefbf9; stroke:none;" d="M728 1599L729 1600L728 1599M730 1600L731 1601L730 1600M1334 1601L1335 1602L1334 1601M740 1603L741 1604L740 1603z"/>
<path style="fill:#47714d; stroke:none;" d="M752 1607L754 1609L752 1607z"/>
<path style="fill:#fefbf9; stroke:none;" d="M1313 1609L1314 1610L1313 1609z"/>
<path style="fill:#47714d; stroke:none;" d="M1303 1611L1304 1612L1303 1611z"/>
<path style="fill:#fefbf9; stroke:none;" d="M1305 1613L1306 1614L1305 1613M1294 1617L1295 1618L1294 1617M1292 1619L1293 1620L1292 1619M778 1621L779 1622L778 1621z"/>
<path style="fill:#47714d; stroke:none;" d="M782 1621L783 1622L782 1621z"/>
<path style="fill:#fefbf9; stroke:none;" d="M1283 1622L1284 1623L1283 1622M780 1623L781 1624L780 1623M1280 1623L1281 1624L1280 1623z"/>
<path style="fill:#47714d; stroke:none;" d="M1269 1624L1270 1625L1269 1624z"/>
<path style="fill:#fefbf9; stroke:none;" d="M789 1625L790 1626L789 1625z"/>
<path style="fill:#47714d; stroke:none;" d="M792 1625L793 1626L792 1625z"/>
<path style="fill:#fefbf9; stroke:none;" d="M790 1627L791 1628L790 1627M1268 1627L1269 1628L1268 1627M1270 1627L1271 1628L1270 1627M793 1628L794 1629L793 1628z"/>
<path style="fill:#47714d; stroke:none;" d="M1258 1628L1259 1629L1258 1628M801 1629L802 1630L801 1629z"/>
<path style="fill:#fefbf9; stroke:none;" d="M1262 1629L1263 1630L1262 1629M797 1630L798 1631L797 1630z"/>
<path style="fill:#47714d; stroke:none;" d="M1255 1630L1256 1631L1255 1630z"/>
<path style="fill:#fefbf9; stroke:none;" d="M799 1631L800 1632L799 1631M1259 1631L1260 1632L1259 1631M808 1634L809 1635L808 1634M810 1634L811 1635L810 1634z"/>
<path style="fill:#47714d; stroke:none;" d="M813 1634L814 1635L813 1634M1236 1635L1237 1636L1236 1635z"/>
<path style="fill:#fefbf9; stroke:none;" d="M1241 1635L1242 1636L1241 1635z"/>
<path style="fill:#47714d; stroke:none;" d="M1223 1637L1224 1638L1223 1637z"/>
<path style="fill:#fefbf9; stroke:none;" d="M820 1638L821 1639L820 1638z"/>
<path style="fill:#47714d; stroke:none;" d="M825 1638L826 1639L825 1638z"/>
<path style="fill:#fefbf9; stroke:none;" d="M822 1639L823 1640L822 1639M1226 1639L1227 1640L1226 1639M1223 1640L1224 1641L1223 1640M829 1642L830 1643L829 1642z"/>
<path style="fill:#47714d; stroke:none;" d="M1203 1643L1202 1645L1203 1643z"/>
<path style="fill:#fefbf9; stroke:none;" d="M830 1644L831 1645L830 1644M834 1644L835 1645L834 1644M1206 1645L1207 1646L1206 1645z"/>
<path style="fill:#47714d; stroke:none;" d="M1188 1646L1189 1647L1188 1646z"/>
<path style="fill:#fefbf9; stroke:none;" d="M836 1647L837 1648L836 1647z"/>
<path style="fill:#47714d; stroke:none;" d="M845 1647L846 1648L845 1647z"/>
<path style="fill:#fefbf9; stroke:none;" d="M840 1648L841 1649L840 1648z"/>
<path style="fill:#47714d; stroke:none;" d="M1184 1648L1185 1649L1184 1648z"/>
<path style="fill:#fefbf9; stroke:none;" d="M1189 1649L1190 1650L1189 1649z"/>
<path style="fill:#47714d; stroke:none;" d="M1173 1650L1174 1651L1173 1650M1170 1651L1171 1652L1170 1651z"/>
<path style="fill:#fefbf9; stroke:none;" d="M1175 1652L1176 1653L1175 1652M1173 1653L1174 1654L1173 1653z"/>
<path style="fill:#47714d; stroke:none;" d="M856 1658L857 1659L856 1658z"/>
<path style="fill:#fefbf9; stroke:none;" d="M1165 1658L1166 1659L1165 1658M1161 1661L1162 1662L1161 1661M1159 1663L1160 1664L1159 1663M860 1666L861 1667L860 1666M1156 1667L1157 1668L1156 1667M1153 1671L1154 1672L1153 1671M1150 1676L1151 1677L1150 1676M870 1678L871 1679L870 1678M1146 1678L1147 1679L1146 1678M873 1682L874 1683L873 1682z"/>
<path style="fill:#47714d; stroke:none;" d="M1140 1683L1141 1684L1140 1683z"/>
<path style="fill:#fefbf9; stroke:none;" d="M1143 1683L1144 1684L1143 1683M874 1684L875 1685L874 1684M882 1694L883 1695L882 1694z"/>
<path style="fill:#47714d; stroke:none;" d="M885 1694L886 1695L885 1694M1131 1696L1132 1697L1131 1696z"/>
<path style="fill:#fefbf9; stroke:none;" d="M887 1700L888 1701L887 1700M1128 1703L1129 1704L1128 1703M891 1704L892 1705L891 1704M1125 1708L1126 1709L1125 1708M896 1710L897 1711L896 1710M1484 1711L1485 1712L1484 1711M1120 1713L1121 1714L1120 1713M1117 1719L1118 1720L1117 1719M905 1722L906 1723L905 1722M1113 1723L1114 1724L1113 1723z"/>
<path style="fill:#47714d; stroke:none;" d="M909 1726L911 1728L909 1726z"/>
<path style="fill:#fefbf9; stroke:none;" d="M1106 1731L1107 1732L1106 1731M1103 1735L1104 1736L1103 1735M914 1737L915 1738L914 1737z"/>
<path style="fill:#47714d; stroke:none;" d="M920 1738L921 1739L920 1738M1098 1739L1099 1740L1098 1739z"/>
<path style="fill:#fefbf9; stroke:none;" d="M919 1741L920 1742L919 1741z"/>
<path style="fill:#47714d; stroke:none;" d="M922 1742L923 1743L922 1742z"/>
<path style="fill:#fefbf9; stroke:none;" d="M1097 1742L1098 1743L1097 1742M1090 1753L1091 1754L1090 1753M931 1754L932 1755L931 1754M1089 1756L1090 1757L1089 1756M936 1762L937 1763L936 1762M941 1768L942 1769L941 1768M944 1772L945 1773L944 1772M1077 1772L1078 1773L1077 1772M1071 1777L1072 1778L1071 1777M1066 1783L1067 1784L1066 1783M953 1784L954 1785L953 1784z"/>
<path style="fill:#47714d; stroke:none;" d="M1062 1787L1063 1788L1062 1787z"/>
<path style="fill:#fefbf9; stroke:none;" d="M959 1791L960 1792L959 1791M1060 1793L1061 1794L1060 1793M1058 1795L1059 1796L1058 1795z"/>
<path style="fill:#47714d; stroke:none;" d="M966 1798L967 1799L966 1798z"/>
<path style="fill:#fefbf9; stroke:none;" d="M1054 1801L1055 1802L1054 1801M1049 1805L1050 1806L1049 1805M971 1806L972 1807L971 1806M1045 1811L1046 1812L1045 1811z"/>
<path style="fill:#47714d; stroke:none;" d="M979 1814L980 1815L979 1814z"/>
<path style="fill:#fefbf9; stroke:none;" d="M1040 1816L1041 1817L1040 1816M979 1817L980 1818L979 1817M984 1823L985 1824L984 1823M1036 1823L1037 1824L1036 1823z"/>
<path style="fill:#47714d; stroke:none;" d="M1031 1827L1032 1828L1031 1827z"/>
<path style="fill:#fefbf9; stroke:none;" d="M1033 1829L1034 1830L1033 1829M1031 1830L1032 1831L1031 1830M991 1832L992 1833L991 1832M1029 1833L1030 1834L1029 1833M1024 1837L1025 1838L1024 1837M1026 1837L1027 1838L1026 1837M999 1838L1000 1839L999 1838M1007 1841L1008 1842L1007 1841M1013 1841L1014 1842L1013 1841M1010 1843L1011 1844L1010 1843z"/>
</svg>
